<?xml version="1.0" encoding="utf-8" ?>
<svg baseProfile="full" height="200mm" version="1.1" viewBox="0,0,200,200" width="200mm" xmlns="http://www.w3.org/2000/svg" xmlns:ev="http://www.w3.org/2001/xml-events" xmlns:xlink="http://www.w3.org/1999/xlink"><defs /><rect fill="#1a1a1a" height="200" width="200" x="0" y="0" /><text alignment-baseline="middle" fill="#e1ed5e" style="dominant-baseline: central; font-size:9.0px; font-family:Arial;" text-anchor="middle" x="100.0" y="100.0">2019</text><line stroke="#e1ed5e" stroke-width="0.3" x1="100.0" x2="100.0" y1="15.0" y2="10.0" /><path d="M 100.0 14.0 a86.0,86.0 0 0,1 42.46469731375804,11.215312516191453" fill="none" id="id49" stroke="none" /><text fill="#e1ed5e" style="font-size:6.75px; font-family:Arial;" text-anchor="middle"><textPath startOffset="22.20632615414155" xlink:href="#id49">January</textPath></text><line stroke="#e1ed5e" stroke-width="0.3" x1="143.23703022742887" x2="145.7803849466894" y1="26.81831364943548" y2="22.513508569990506" /><path d="M 143.74570117128098 25.957352633546492 a86.0,86.0 0 0,1 28.547481713284135,27.462654790039103" fill="none" id="id50" stroke="none" /><text fill="#e1ed5e" style="font-size:6.75px; font-family:Arial;" text-anchor="middle"><textPath startOffset="19.985693538727396" xlink:href="#id50">February</textPath></text><line stroke="#e1ed5e" stroke-width="0.3" x1="172.23445277983987" x2="176.4835382374775" y1="55.19839476539836" y2="52.563006222186495" /><path d="M 173.08426987136738 54.67131705675599 a86.0,86.0 0 0,1 12.851231095245387,41.99856678651699" fill="none" id="id51" stroke="none" /><text fill="#e1ed5e" style="font-size:6.75px; font-family:Arial;" text-anchor="middle"><textPath startOffset="22.20632615414155" xlink:href="#id51">March</textPath></text><path d="M 120.98425023603335 99.18683210126433 l 45.218930151235426 -1.7522943160015327 a66.25286929457843,66.25286929457843 0 0,0 0.03435149924140864,1.1399590235657537 l -45.24239334493248 0.9736651450107797" fill="#71ff27" stroke="none" /><line stroke="#e1ed5e" stroke-width="0.3" x1="184.98032266829074" x2="189.97916517819016" y1="98.17113171792111" y2="98.06355123074" /><path d="M 185.9800911702706 98.14961562048488 a86.0,86.0 0 0,1 -9.607161424134198,41.387399972396054" fill="none" id="id52" stroke="none" /><text fill="#e1ed5e" style="font-size:6.75px; font-family:Arial;" text-anchor="middle"><textPath startOffset="21.466115282336823" xlink:href="#id52">April</textPath></text><path d="M 120.99513854157772 99.54816195383933 l 55.81819037212031 -1.2012677138575225 a76.83111516474143,76.83111516474143 0 0,0 0.017074774648182144,1.3224601135635699 l -55.83059815388621 0.24027134223349" fill="#3effb3" stroke="none" /><path d="M 120.99824983174949 100.27111621757518 l 60.54549785738387 0.7817254533985498 a81.55054422119562,81.55054422119562 0 0,0 -0.030204524807427954,1.4034855813999378 l -60.52307126989144 -1.8238008505886025" fill="#48f9ff" stroke="none" /><path d="M 120.9904718944345 100.63252640178507 l 57.50958854209145 1.7329926307332795 a78.5356935974429,78.5356935974429 0 0,0 -0.05234915263883893,1.350899021377753 l -57.471237256601405 -2.7226688991250385" fill="#41ffd2" stroke="none" /><path d="M 120.95626037817324 101.35467743843564 l 62.86878113451971 4.064032315306923 a84.0,84.0 0 0,0 -0.10569376534264929,1.4421074540129188 l -62.789510810512716 -5.145612905816612" fill="#4dd2ff" stroke="none" /><path d="M 120.92983693683757 101.71520430193887 l 61.7731222977323 5.062319664936465 a82.98020424942624,82.98020424942624 0 0,0 -0.12891726974515616,1.4225913291349732 l -61.67683043171007 -6.124892382620009" fill="#4be2ff" stroke="none" /><path d="M 120.8583938346157 102.4346265915055 l 26.58689973175163 3.1032673745564923 a47.76739631985527,47.76739631985527 0 0,0 -0.10235527340957849,0.815872237326177 l -26.5295429490952 -3.560457366170064" fill="#ff0000" stroke="none" /><path d="M 120.49622156327973 104.57218783832717 l 60.151343510387164 13.418241035701591 a82.62980868538196,82.62980868538196 0 0,0 -0.32162446662903865,1.38554978454356 l -59.91145847782757 -14.451659477593717" fill="#4ae8ff" stroke="none" /><path d="M 120.32669344350535 105.2749913415812 l 60.80555371855372 15.779682528144061 a83.8196923242142,83.8196923242142 0 0,0 -0.3744422179702335,1.3934387889913848 l -60.524923424241706 -16.824012250310993" fill="#4dd5ff" stroke="none" /><line stroke="#e1ed5e" stroke-width="0.3" x1="174.80103733775053" x2="179.2010983576182" y1="140.37084112569926" y2="142.7455964860345" /><path d="M 175.68104954172406 140.8457921977663 a86.0,86.0 0 0,1 -30.038265399797805,32.042727171017184" fill="none" id="id53" stroke="none" /><text fill="#e1ed5e" style="font-size:6.75px; font-family:Arial;" text-anchor="middle"><textPath startOffset="22.206326154141568" xlink:href="#id53">May</textPath></text><path d="M 115.80600337817218 113.82643327865902 l 43.30980643284442 37.88561438512162 a78.54180315725765,78.54180315725765 0 0,0 -0.8988965391194799,1.0099197908375204 l -42.6512510440766 -38.625508345700005" fill="#41ffd2" stroke="none" /><path d="M 111.45004920935366 117.60387380957326 l 33.386157760300506 51.329535572538475 a82.23199124712642,82.23199124712642 0 0,0 -1.1932182946150929,0.7615683707929968 l -32.497657663638485 -51.89661837215528" fill="#49eeff" stroke="none" /><line stroke="#e1ed5e" stroke-width="0.3" x1="143.8653032363475" x2="146.44561519142675" y1="172.8068346515853" y2="177.08958963109032" /><path d="M 144.38136562736335 173.6633856474863 a86.0,86.0 0 0,1 -40.68145358897372,12.25698825130547" fill="none" id="id54" stroke="none" /><text fill="#e1ed5e" style="font-size:6.75px; font-family:Arial;" text-anchor="middle"><textPath startOffset="21.466115282336833" xlink:href="#id54">June</textPath></text><path d="M 105.53697534728816 120.25689768951611 l 13.52997907146646 49.49911903187795 a72.31494050085553,72.31494050085553 0 0,0 -1.2035601348841394,0.31787117061074194 l -12.675928493770824 -49.72468155179228" fill="#34ff5d" stroke="none" /><line stroke="#e1ed5e" stroke-width="0.3" x1="102.19456741930631" x2="102.32365962044197" y1="184.97166512339345" y2="189.96999836594603" /><path d="M 102.22038585953345 185.97133177190398 a86.0,86.0 0 0,1 -42.740103519485714,-10.115201625700543" fill="none" id="id55" stroke="none" /><text fill="#e1ed5e" style="font-size:6.75px; font-family:Arial;" text-anchor="middle"><textPath startOffset="22.20632615414155" xlink:href="#id55">July</textPath></text><line stroke="#e1ed5e" stroke-width="0.3" x1="58.666819895761336" x2="56.23545636021788" y1="174.27360380694188" y2="178.64263932499728" /><path d="M 58.180547188652646 175.14741091055294 a86.0,86.0 0 0,1 -31.652253787137756,-30.449443065178592" fill="none" id="id56" stroke="none" /><text fill="#e1ed5e" style="font-size:6.75px; font-family:Arial;" text-anchor="middle"><textPath startOffset="22.20632615414155" xlink:href="#id56">August</textPath></text><path d="M 86.24171649860922 115.8653595955263 l -27.337555679565043 31.5242923490549 a62.726765494607896,62.726765494607896 0 0,0 -0.8096461649880313,-0.7144186046565104 l 27.87614419745966 -31.0490506026261" fill="#b2ff20" stroke="none" /><path d="M 83.95833913139862 113.55231037782056 l -35.06294329481905 29.621863607738742 a66.90059690343006,66.90059690343006 0 0,0 -0.7356007349767664,-0.8860784724313828 l 35.56764002968935 -29.013923878193598" fill="#65ff29" stroke="none" /><path d="M 83.72743513129214 113.27417163493432 l -34.51640533273437 28.156390360363684 a65.54396205120055,65.54396205120055 0 0,0 -0.7056340853682086,-0.8803870176974513 l 34.995957330157445 -27.558075509087974" fill="#7eff26" stroke="none" /><path d="M 82.85270091963577 112.12312394758628 l -40.587977070622436 28.695660727840643 a70.7073920789726,70.7073920789726 0 0,0 -0.6940741742900349,-0.9998656145628443 l 41.07591215207461 -27.992753851090786" fill="#31ff3d" stroke="none" /><path d="M 82.6465618267979 111.8261652097733 l -35.851043065463514 24.432066660403756 a64.38459600111695,64.38459600111695 0 0,0 -0.6162430407432958,-0.921199732957484 l 36.26628921161754 -23.81133001324045" fill="#93ff23" stroke="none" /><path d="M 82.44556493220864 111.52570212397912 l -38.753420908085126 25.44430418562997 a67.3598991324407,67.3598991324407 0 0,0 -0.628035269216412,-0.9747246846580335 l 39.18566104067858 -24.77345790105049" fill="#5dff2a" stroke="none" /><path d="M 82.24976979558568 111.22182372390057 l -41.44777372243459 26.203581874989315 a70.03616675093403,70.03616675093403 0 0,0 -0.6354460127697306,-1.0245413030000494 l 41.89268437487228 -25.486244240624" fill="#2fff2f" stroke="none" /><line stroke="#e1ed5e" stroke-width="0.3" x1="26.63291911575756" x2="22.317208475507996" y1="142.92168965132927" y2="145.44649492493687" /><path d="M 25.769776987707644 143.4266507060508 a86.0,86.0 0 0,1 -11.730757126820373,-40.83630448921669" fill="none" id="id57" stroke="none" /><text fill="#e1ed5e" style="font-size:6.75px; font-family:Arial;" text-anchor="middle"><textPath startOffset="21.46611528233685" xlink:href="#id57">September</textPath></text><path d="M 81.87401531095188 110.60418214915194 l -42.42816922354456 24.821605138690856 a70.15548418358645,70.15548418358645 0 0,0 -0.6008249423514997,-1.0475889306749595 l 42.849146162048434 -24.08759636215759" fill="#30ff32" stroke="none" /><path d="M 81.69416730710424 110.29060199501025 l -42.48027931927657 23.880238306842557 a69.73232923466051,69.73232923466051 0 0,0 -0.5791887258294508,-1.0513957741182345 l 42.88504445455754 -23.145472014326497" fill="#35ff2f" stroke="none" /><path d="M 81.51974371655577 109.97397251340807 l -42.69170684644952 23.041125842958465 a69.51263045408106,69.51263045408106 0 0,0 -0.5592373600908283,-1.0578663311900562 l 43.08199671476523 -22.302844496682283" fill="#38ff2e" stroke="none" /><path d="M 81.18737489456691 109.33194174019688 l -44.43232403973227 22.040510401739887 a70.59854351027835,70.59854351027835 0 0,0 -0.5306547705162621,-1.0933060020146614 l 44.80513206686325 -21.272415443759943" fill="#31ff3b" stroke="none" /><path d="M 80.73074385275274 108.34839909993369 l -44.13673841188086 19.12222788550109 a69.10105276336304,69.10105276336304 0 0,0 -0.46346740382373025,-1.095500036581449 l 44.4593567968969 -18.359653323253482" fill="#3fff2d" stroke="none" /><path d="M 79.58551787078972 104.9243191809786 l -45.07599045510974 10.873093081411021 a67.36883725807854,67.36883725807854 0 0,0 -0.2622233633996129,-1.1296513865025044 l 45.256474384439905 -10.095573037559943" fill="#5dff2a" stroke="none" /><line stroke="#e1ed5e" stroke-width="0.3" x1="15.007084014347285" x2="10.007500721073583" y1="101.09737516637583" y2="101.16192664675087" /><path d="M 14.007167355692545 101.11028546245083 a86.0,86.0 0 0,1 10.666146001902534,-42.60595125391555" fill="none" id="id58" stroke="none" /><text fill="#e1ed5e" style="font-size:6.75px; font-family:Arial;" text-anchor="middle"><textPath startOffset="22.20632615414155" xlink:href="#id58">October</textPath></text><path d="M 81.10775173730289 90.83032412892265 l -45.000495795835356 -21.841760427230334 a71.02106676622881,71.02106676622881 0 0,0 0.5432772973981811,-1.0952138803246794 l 44.617858485483765 22.613133896053974" fill="#31ff43" stroke="none" /><line stroke="#e1ed5e" stroke-width="0.3" x1="26.266209847984243" x2="21.928928074336255" y1="57.711370442889674" y2="55.22380399835377" /><path d="M 25.398753493254645 57.213857153982495 a86.0,86.0 0 0,1 29.58750427330803,-30.492523968695096" fill="none" id="id59" stroke="none" /><text fill="#e1ed5e" style="font-size:6.75px; font-family:Arial;" text-anchor="middle"><textPath startOffset="21.46611528233685" xlink:href="#id59">November</textPath></text><line stroke="#e1ed5e" stroke-width="0.3" x1="56.762969772571076" x2="54.21961505331055" y1="26.818313649435495" y2="22.513508569990535" /><path d="M 56.25429882871897 25.957352633546506 a86.0,86.0 0 0,1 42.265352541879196,-11.944610805530505" fill="none" id="id60" stroke="none" /><text fill="#e1ed5e" style="font-size:6.75px; font-family:Arial;" text-anchor="middle"><textPath startOffset="22.20632615414155" xlink:href="#id60">December</textPath></text></svg>