<?xml version="1.0" encoding="utf-8" ?>
<svg baseProfile="full" height="200mm" version="1.1" viewBox="0,0,200,200" width="200mm" xmlns="http://www.w3.org/2000/svg" xmlns:ev="http://www.w3.org/2001/xml-events" xmlns:xlink="http://www.w3.org/1999/xlink"><defs /><rect fill="#1a1a1a" height="200" width="200" x="0" y="0" /><text alignment-baseline="middle" fill="#e1ed5e" style="dominant-baseline: central; font-size:9.0px; font-family:Arial;" text-anchor="middle" x="100.0" y="100.0">2022</text><line stroke="#e1ed5e" stroke-width="0.3" x1="100.0" x2="100.0" y1="15.0" y2="10.0" /><path d="M 100.0 14.0 a86.0,86.0 0 0,1 42.46469731375804,11.215312516191453" fill="none" id="id85" stroke="none" /><text fill="#e1ed5e" style="font-size:6.75px; font-family:Arial;" text-anchor="middle"><textPath startOffset="22.20632615414155" xlink:href="#id85">January</textPath></text><line stroke="#e1ed5e" stroke-width="0.3" x1="143.23703022742887" x2="145.7803849466894" y1="26.81831364943548" y2="22.513508569990506" /><path d="M 143.74570117128098 25.957352633546492 a86.0,86.0 0 0,1 28.547481713284135,27.462654790039103" fill="none" id="id86" stroke="none" /><text fill="#e1ed5e" style="font-size:6.75px; font-family:Arial;" text-anchor="middle"><textPath startOffset="19.985693538727396" xlink:href="#id86">February</textPath></text><line stroke="#e1ed5e" stroke-width="0.3" x1="172.23445277983987" x2="176.4835382374775" y1="55.19839476539836" y2="52.563006222186495" /><path d="M 173.08426987136738 54.67131705675599 a86.0,86.0 0 0,1 12.851231095245387,41.99856678651699" fill="none" id="id87" stroke="none" /><text fill="#e1ed5e" style="font-size:6.75px; font-family:Arial;" text-anchor="middle"><textPath startOffset="22.20632615414155" xlink:href="#id87">March</textPath></text><line stroke="#e1ed5e" stroke-width="0.3" x1="184.98032266829074" x2="189.97916517819016" y1="98.17113171792111" y2="98.06355123074" /><path d="M 185.9800911702706 98.14961562048488 a86.0,86.0 0 0,1 -9.607161424134198,41.387399972396054" fill="none" id="id88" stroke="none" /><text fill="#e1ed5e" style="font-size:6.75px; font-family:Arial;" text-anchor="middle"><textPath startOffset="21.466115282336823" xlink:href="#id88">April</textPath></text><line stroke="#e1ed5e" stroke-width="0.3" x1="174.80103733775053" x2="179.2010983576182" y1="140.37084112569926" y2="142.7455964860345" /><path d="M 175.68104954172406 140.8457921977663 a86.0,86.0 0 0,1 -30.038265399797805,32.042727171017184" fill="none" id="id89" stroke="none" /><text fill="#e1ed5e" style="font-size:6.75px; font-family:Arial;" text-anchor="middle"><textPath startOffset="22.206326154141568" xlink:href="#id89">May</textPath></text><line stroke="#e1ed5e" stroke-width="0.3" x1="143.8653032363475" x2="146.44561519142675" y1="172.8068346515853" y2="177.08958963109032" /><path d="M 144.38136562736335 173.6633856474863 a86.0,86.0 0 0,1 -40.68145358897372,12.25698825130547" fill="none" id="id90" stroke="none" /><text fill="#e1ed5e" style="font-size:6.75px; font-family:Arial;" text-anchor="middle"><textPath startOffset="21.466115282336833" xlink:href="#id90">June</textPath></text><line stroke="#e1ed5e" stroke-width="0.3" x1="102.19456741930631" x2="102.32365962044197" y1="184.97166512339345" y2="189.96999836594603" /><path d="M 102.22038585953345 185.97133177190398 a86.0,86.0 0 0,1 -42.740103519485714,-10.115201625700543" fill="none" id="id91" stroke="none" /><text fill="#e1ed5e" style="font-size:6.75px; font-family:Arial;" text-anchor="middle"><textPath startOffset="22.20632615414155" xlink:href="#id91">July</textPath></text><path d="M 96.58105272829116 120.7198165907248 l -1.46707567421666 8.890906024207252 a30.011133167652282,30.011133167652282 0 0,0 -0.5089759973785065,-0.08849200123506705 l 1.6199006430672163 -8.864335444451179" fill="#ff0500" stroke="none" /><path d="M 96.22490169976321 120.6578951692458 l -1.5864086195850793 8.68106214795013 a29.82482477587325,29.82482477587325 0 0,0 -0.5042275564361662,-0.09663641126268747 l 1.7356037905929407 -8.652468538338974" fill="#ff0200" stroke="none" /><path d="M 95.86986931433489 120.58985236759428 l -1.904346084118999 9.493695893185082 a30.682809288650617,30.682809288650617 0 0,0 -0.5169447577932529,-0.10833080015531298 l 2.0674823033416385 -9.459509112303229" fill="#ff1001" stroke="none" /><path d="M 95.51606077576429 120.51570834832081 l -2.1077100011577534 9.643565959340549 a30.87121096224431,30.87121096224431 0 0,0 -0.5181657060968236,-0.11793282770493156 l 2.2733958566474395 -9.60585639805793" fill="#ff1302" stroke="none" /><path d="M 94.81253420990036 120.34920634021253 l -2.454039473737422 9.626618784342897 a30.93449037232031,30.93449037232031 0 0,0 -0.5148523824705676,-0.13597719363096344 l 2.619382299019479 -9.582950241408353" fill="#ff1402" stroke="none" /><path d="M 94.46302465271185 120.25689768951611 l -2.632735818784117 9.63180378810144 a30.985136058361654,30.985136058361654 0 0,0 -0.5132744327019941,-0.14505648164131552 l 2.7981414195907255 -9.585058513121602" fill="#ff1502" stroke="none" /><path d="M 94.11515582081647 120.15858648285463 l -3.291703915327457 11.275761266169326 a32.746408250943205,32.746408250943205 0 0,0 -0.539731018707041,-0.16261652845537308 l 3.485309908474744 -11.217429368608228" fill="#ff3204" stroke="none" /><path d="M 93.76903079525671 120.05430185196036 l -3.4908726891878312 11.235333113578045 a32.76515628052517,32.76515628052517 0 0,0 -0.5371592348640158,-0.17198142407391076 l 3.6837532691427874 -11.173578842844428" fill="#ff3204" stroke="none" /><path d="M 93.42475214034765 119.94407469862007 l -3.7789628141726874 11.462368911086564 a33.06923614006884,33.06923614006884 0 0,0 -0.5390762113996053,-0.18288391956515418 l 3.9757087585095183 -11.395622004623286" fill="#ff3705" stroke="none" /><path d="M 93.08242187328487 119.8279376855182 l -3.951272021863083 11.325578691401896 a32.99505245031862,32.99505245031862 0 0,0 -0.5346462354685539,-0.19170511823709238 l 4.145637817961363 -11.255886032124847" fill="#ff3605" stroke="none" /><path d="M 92.7421414339146 119.70592522655815 l -5.143386904726085 13.964890171517569 a35.88195505819903,35.88195505819903 0 0,0 -0.5777503591675375,-0.21845574970408999 l 5.3830074846539055 -13.874286171706846" fill="#ff6409" stroke="none" /><path d="M 92.40401165467489 119.57807347666478 l -5.424766625241443 13.981917132363643 a35.99740309635696,35.99740309635696 0 0,0 -0.5757509055853267,-0.2291031674769018 l 5.664638606868627 -13.886467120480674" fill="#ff6509" stroke="none" /><path d="M 91.7346041902142 119.30500536409082 l -6.391241303956755 14.927651439269855 a37.23831096197318,37.23831096197318 0 0,0 -0.5870873747702496,-0.2573618521917178 l 6.647249353384748 -14.815425033783686" fill="#ff790b" stroke="none" /><path d="M 91.40352486487194 119.15986991738527 l -6.668651294268572 14.863125794487107 a37.290592944005994,37.290592944005994 0 0,0 -0.5833882494721722,-0.2678049319459542 l 6.923507539508164 -14.746133792207077" fill="#ff790b" stroke="none" /><path d="M 91.07499286063937 119.00905698771935 l -5.268764118473716 11.221754315604121 a33.397082126689966,33.397082126689966 0 0,0 -0.5182707614687522,-0.2488014607673117 l 5.46114754794271 -11.129398578337247" fill="#ff3c05" stroke="none" /><path d="M 90.42595943632237 118.69057910512821 l -12.10092724114848 23.62360346624724 a47.5425522666163,47.5425522666163 0 0,0 -0.7251577146717513,-0.37936824324609836 l 12.505775858346725 -23.411805804056424" fill="#efff19" stroke="none" /><path d="M 90.10565033884886 118.52300852407294 l -6.218464175230923 11.641458900194522 a34.198214349810684,34.198214349810684 0 0,0 -0.5168444337836391,-0.2818247945884791 l 6.417931420883202 -11.532693453846276" fill="#ff4906" stroke="none" /><line stroke="#e1ed5e" stroke-width="0.3" x1="58.666819895761336" x2="56.23545636021788" y1="174.27360380694188" y2="178.64263932499728" /><path d="M 58.180547188652646 175.14741091055294 a86.0,86.0 0 0,1 -31.652253787137756,-30.449443065178592" fill="none" id="id92" stroke="none" /><text fill="#e1ed5e" style="font-size:6.75px; font-family:Arial;" text-anchor="middle"><textPath startOffset="22.20632615414155" xlink:href="#id92">August</textPath></text><path d="M 89.4739219176387 118.17145234162733 l -7.314052331053273 12.626445701615786 a35.59186391648571,35.59186391648571 0 0,0 -0.5274919800379025,-0.31165155960428437 l 7.530312182119557 -12.498675569717753" fill="#ff5f08" stroke="none" /><path d="M 89.1626897886671 117.98757091392108 l -8.361188613706396 13.877749199837249 a37.201894885708796,37.201894885708796 0 0,0 -0.5456646393681036,-0.3351917889625943 l 8.598832453006807 -13.731768944046275" fill="#ff780b" stroke="none" /><path d="M 88.54995079064634 117.60387380957326 l -8.313530186827608 12.78163382926215 a36.24745708348223,36.24745708348223 0 0,0 -0.5201083774090757,-0.3446994719037576 l 8.532313262976645 -12.636636336267074" fill="#ff6909" stroke="none" /><path d="M 88.24862548938628 117.40417183066458 l -8.60845543866473 12.749405400689213 a36.383525054765556,36.383525054765556 0 0,0 -0.5160277357482143,-0.3549285820397304 l 8.826640059035835 -12.59933602928438" fill="#ff6b09" stroke="none" /><path d="M 87.95078237400918 117.19931262002967 l -10.43466443794606 14.894664643305637 a39.18607315417694,39.18607315417694 0 0,0 -0.5491138313423164,-0.39177813878626866 l 10.689505597137263 -14.71284224267515" fill="#ff960d" stroke="none" /><path d="M 87.36589467227662 116.77436683061367 l -9.288514916915437 12.332409180258347 a36.43906815682478,36.43906815682478 0 0,0 -0.497777229269563,-0.38167435309393427 l 9.499420874678487 -12.170695485337045" fill="#ff6c0a" stroke="none" /><path d="M 87.07902340077011 116.55440617244103 l -9.114824511015017 11.677949107566468 a35.81399747622203,35.81399747622203 0 0,0 -0.4827087448325758,-0.3834930207765798 l 9.314490748564952 -11.519322172784756" fill="#ff6309" stroke="none" /><path d="M 86.79598089348748 116.32954008644616 l -6.748111213465323 8.345455401055037 a31.73236370984021,31.73236370984021 0 0,0 -0.42178336206194667,-0.3470989921118837 l 6.890764704071959 -8.228061290085973" fill="#ff2103" stroke="none" /><path d="M 86.51685102203217 116.09983520530335 l -10.381576919443567 12.39633841080747 a37.16930256163153,37.16930256163153 0 0,0 -0.48697896886941344,-0.4150140420536269 l 10.593421364890037 -12.215799978530892" fill="#ff780b" stroke="none" /><path d="M 85.97065885151581 115.62618273729859 l -18.642689867793464 20.76463003541693 a48.90555045173752,48.90555045173752 0 0,0 -0.621567307101915,-0.5677869978189883 l 18.997356724362234 -20.440650271011364" fill="#ddff1b" stroke="none" /><path d="M 85.44109423537348 115.13401014063109 l -11.284710751520631 11.730478217844487 a37.27724841503653,37.27724841503653 0 0,0 -0.4585989953963827,-0.44883563928913284 l 11.484959699292807 -11.534492475632783" fill="#ff790b" stroke="none" /><path d="M 85.18274418774928 114.88116024355367 l -11.061747218136952 11.109454747395334 a36.67744355124219,36.67744355124219 0 0,0 -0.4435514589921157,-0.4493152861926011 l 11.251339302184602 -10.917398967222068" fill="#ff700a" stroke="none" /><path d="M 84.9287848128048 114.62390073753433 l -6.261326827712522 6.075490322208663 a29.724436732459218,29.724436732459218 0 0,0 -0.3531453442237734,-0.37027148156214545 l 6.364978723315253 -5.966811724064017" fill="#ff0000" stroke="none" /><path d="M 84.67929136418377 114.36230785411682 l -12.381454245639041 11.606921179991211 a37.97118229574421,37.97118229574421 0 0,0 -0.44291321409483453,-0.4806948174777626 l 12.579413867729604 -11.392075107712104" fill="#ff840c" stroke="none" /><path d="M 84.43433777217949 114.09645910891817 l -21.623470510188856 19.58248633296054 a50.17273123801735,50.17273123801735 0 0,0 -0.5742177115252305,-0.6451396861387674 l 21.957347071362424 -19.207372477080906" fill="#ccff1d" stroke="none" /><path d="M 83.72743513129214 113.27417163493432 l -7.056135090477541 5.7559671155712095 a30.106052923775792,30.106052923775792 0 0,0 -0.32411615737114713,-0.4043847414579528 l 7.1541691599035495 -5.633654540534997" fill="#ff0601" stroke="none" /><path d="M 83.50135304334701 112.99209946851258 l -11.708059694990029 9.219681864836504 a35.90238891957411,35.90238891957411 0 0,0 -0.37816017498073096,-0.48882300266717904 l 11.865026687188829 -9.016780868056072" fill="#ff6409" stroke="none" /><path d="M 83.28015986056508 112.70617746262583 l -12.345417122244308 9.381851710137058 a36.50575588074327,36.50575588074327 0 0,0 -0.37590278142811306,-0.5035832048775555 l 12.505081170367507 -9.167955625750194" fill="#ff6d0a" stroke="none" /><path d="M 83.06392112726016 112.41649034213515 l -12.626878339948055 9.257249811916891 a36.656779065059474,36.656779065059474 0 0,0 -0.368697737379207,-0.5120889100043189 l 12.78435586970287 -9.038527296461433" fill="#ff700a" stroke="none" /><path d="M 82.6465618267979 111.8261652097733 l -26.801287199332567 18.26476385200407 a53.43317120034028,53.43317120034028 0 0,0 -0.5114238799678663,-0.7645093096487097 l 27.111714184711165 -17.80071762814954" fill="#a2ff22" stroke="none" /><path d="M 82.24976979558568 111.22182372390057 l -7.759996938274109 4.905926105547849 a30.18072238089789,30.18072238089789 0 0,0 -0.2738330863774175,-0.44150612559325286 l 7.843294664319482 -4.7716236485893315" fill="#ff0801" stroke="none" /><path d="M 82.05923443525364 110.91462005526583 l -13.110032921937679 7.975748177444021 a36.34553753389862,36.34553753389862 0 0,0 -0.32056612544313084,-0.5372872651717736 l 13.24537992307904 -7.748898818386136" fill="#ff6b09" stroke="none" /><line stroke="#e1ed5e" stroke-width="0.3" x1="26.63291911575756" x2="22.317208475507996" y1="142.92168965132927" y2="145.44649492493687" /><path d="M 25.769776987707644 143.4266507060508 a86.0,86.0 0 0,1 -11.730757126820373,-40.83630448921669" fill="none" id="id93" stroke="none" /><text fill="#e1ed5e" style="font-size:6.75px; font-family:Arial;" text-anchor="middle"><textPath startOffset="21.46611528233685" xlink:href="#id93">September</textPath></text><path d="M 81.87401531095188 110.60418214915194 l -13.39649297081124 7.83730396220345 a36.5206107261591,36.5206107261591 0 0,0 -0.31276947325694265,-0.5453399400408447 l 13.52941444022056 -7.605544176304298" fill="#ff6e0a" stroke="none" /><path d="M 81.35079622478065 109.6543875284942 l -19.348847781172253 10.016581778011316 a42.78783653726461,42.78783653726461 0 0,0 -0.33297357923274107,-0.6569884610378545 l 19.518400030191263 -9.682039105270777" fill="#ffcc13" stroke="none" /><path d="M 81.18737489456691 109.33194174019688 l -14.387917983082163 7.1370801059591304 a37.060824895589164,37.060824895589164 0 0,0 -0.27856811985432844,-0.573932836051539 l 14.50863935955121 -6.888358313942306" fill="#ff760a" stroke="none" /><path d="M 80.87730276802145 108.67885076344099 l -14.091468161145027 6.395423601846378 a36.47484791471689,36.47484791471689 0 0,0 -0.2545578164272593,-0.5739606747425772 l 14.199467062303565 -6.151914590611105" fill="#ff6d0a" stroke="none" /><path d="M 80.58989483394504 108.01547362559985 l -14.50630060756632 5.990429672082164 a36.69452149551688,36.69452149551688 0 0,0 -0.2360635202438295,-0.5858902978167894 l 14.607266742067537 -5.739840006422569" fill="#ff700a" stroke="none" /><path d="M 80.32549172779594 107.34259656027581 l -38.1199821009905 14.226513088916567 a61.688164250171695,61.688164250171695 0 0,0 -0.3627138889533832,-0.9980328429830629 l 38.3592202509491 -13.568232448927388" fill="#3fff2d" stroke="none" /><path d="M 79.97269907076064 106.31721596034903 l -17.90298359835924 5.6471420749614385 a39.772507433422945,39.772507433422945 0 0,0 -0.2003269750836698,-0.6546801454146425 l 17.99753734594904 -5.338134956994748" fill="#ff9f0e" stroke="none" /><path d="M 79.86692584326677 105.97154293290107 l -18.23581412339627 5.408808714780694 a40.02104435766203,40.02104435766203 0 0,0 -0.19020928125726239,-0.6621434611699353 l 18.326216041539638 -5.094107778106163" fill="#ffa30f" stroke="none" /><path d="M 79.76711848015287 105.62410040840567 l -18.40720925493536 5.116621326860459 a40.105108383818745,40.105108383818745 0 0,0 -0.17915892219084037,-0.6667169982270873 l 18.492556253467978 -4.799013395457832" fill="#ffa40f" stroke="none" /><path d="M 79.58551787078972 104.9243191809786 l -18.74929022868916 4.522646664191442 a40.287047906010415,40.287047906010415 0 0,0 -0.1568114521983764,-0.6755396319336076 l 18.82436224681809 -4.19923837490926" fill="#ffa70f" stroke="none" /><path d="M 79.35854240842038 103.8639653848113 l -33.68729578353954 6.306073310859394 a55.27244458467493,55.27244458467493 0 0,0 -0.16701110711941272,-0.9366869823249205 l 33.79085333299814 -5.72526757780126" fill="#8bff24" stroke="none" /><path d="M 79.18660465613746 102.79330883721812 l -15.940485779537886 2.1393289783765645 a37.08340185922653,37.08340185922653 0 0,0 -0.07946176741227715,-0.6333884694061837 l 15.974949056197012 -1.8646227546829723" fill="#ff760a" stroke="none" /><path d="M 79.1416061653843 102.43462659150553 l -48.35797080535206 5.644423178863018 a69.68626966027864,69.68626966027864 0 0,0 -0.12881240977090913,-1.192642934763479 l 48.44796551662402 -4.811183922214758" fill="#39ff87" stroke="none" /><path d="M 79.04373962182676 101.35467743843564 l -19.289064618757394 1.2469047518980876 a40.329324492255395,40.329324492255395 0 0,0 -0.038819181629967954,-0.6931425652543304 l 19.30767015127489 -0.9146904703083195" fill="#ffa80f" stroke="none" /><path d="M 79.0235259727143 100.99374915477108 l -22.360262359235794 1.059305381402339 a43.385340307105565,43.385340307105565 0 0,0 -0.028919153801157334,-0.7462748602365372 l 22.375183645888153 -0.6742532741518048" fill="#ffd413" stroke="none" /><path d="M 79.0095281055655 100.63252640178507 l -21.58565452032361 0.6504616214719874 a42.59545279432166,42.59545279432166 0 0,0 -0.015776417225617043,-0.7330681162332696 l 21.593653000234237 -0.27880368944858885" fill="#ffc912" stroke="none" /><line stroke="#e1ed5e" stroke-width="0.3" x1="15.007084014347285" x2="10.007500721073583" y1="101.09737516637583" y2="101.16192664675087" /><path d="M 14.007167355692545 101.11028546245083 a86.0,86.0 0 0,1 10.666146001902534,-42.60595125391555" fill="none" id="id94" stroke="none" /><text fill="#e1ed5e" style="font-size:6.75px; font-family:Arial;" text-anchor="middle"><textPath startOffset="22.20632615414155" xlink:href="#id94">October</textPath></text><path d="M 79.00019446554 99.90962569577889 l -21.126664294642335 -0.0909202508093884 a42.12685993493881,42.12685993493881 0 0,0 0.009362178831873968,-0.725111068011684 l 21.121969108692745 0.4545675768815443" fill="#ffc212" stroke="none" /><path d="M 79.03285615573316 98.82574320788736 l -23.863146340064894 -1.3364462932637935 a44.90054062028997,44.90054062028997 0 0,0 0.049859717659404834,-0.7713077637575743 l 23.836606031401075 1.7470131212743796" fill="#ffea16" stroke="none" /><path d="M 79.05617556472873 98.46500227214037 l -13.1746793719054 -0.9655878735832248 a34.2100165213417,34.2100165213417 0 0,0 0.048098495063626026,-0.5869234687967326 l 13.156106393022277 1.1922252595877358" fill="#ff4906" stroke="none" /><path d="M 79.08570108090925 98.10471618934814 l -23.85604539801762 -2.1618691022803898 a44.953800951992406,44.953800951992406 0 0,0 0.07647042769114921,-0.7700467709654354 l 23.815297844644242 2.5721914039502556" fill="#ffeb16" stroke="none" /><path d="M 79.21141760316559 97.0276538004421 l -62.36574719050324 -8.91703859867371 a84.0,84.0 0 0,0 0.21697642624279112,-1.4296035504316318 l 62.20301487082115 9.989241261497433" fill="#4dd2ff" stroke="none" /><path d="M 79.32604984820605 96.31383870115002 l -18.688844212097216 -3.3322172951496385 a39.98358686039427,39.98358686039427 0 0,0 0.12664187311934733,-0.6765259501513099 l 18.628716615068004 3.653421322763521" fill="#ffa20f" stroke="none" /><path d="M 79.3925641242962 95.95851677861259 l -30.469686484396735 -5.975645268551321 a52.05012287951513,52.05012287951513 0 0,0 0.1799960272010209,-0.8777245529201222 l 30.362311161280722 6.499245477634846" fill="#b4ff20" stroke="none" /><path d="M 79.46518482838121 95.60439243477599 l -13.133517760415984 -2.811312862726752 a34.43103751671087,34.43103751671087 0 0,0 0.12904361494802719,-0.5784772229019027 l 13.083179758465919 3.0369682551786137" fill="#ff4d07" stroke="none" /><path d="M 79.62865764111835 94.90015583598534 l -29.331528541836278 -7.3429733799793135 a51.236696655878944,51.236696655878944 0 0,0 0.2215466666286745,-0.8537096810933628 l 29.200785543337293 7.84677948662154" fill="#beff1f" stroke="none" /><line stroke="#e1ed5e" stroke-width="0.3" x1="26.266209847984243" x2="21.928928074336255" y1="57.711370442889674" y2="55.22380399835377" /><path d="M 25.398753493254645 57.213857153982495 a86.0,86.0 0 0,1 29.58750427330803,-30.492523968695096" fill="none" id="id95" stroke="none" /><text fill="#e1ed5e" style="font-size:6.75px; font-family:Arial;" text-anchor="middle"><textPath startOffset="21.46611528233685" xlink:href="#id95">November</textPath></text><line stroke="#e1ed5e" stroke-width="0.3" x1="56.762969772571076" x2="54.21961505331055" y1="26.818313649435495" y2="22.513508569990535" /><path d="M 56.25429882871897 25.957352633546506 a86.0,86.0 0 0,1 42.265352541879196,-11.944610805530505" fill="none" id="id96" stroke="none" /><text fill="#e1ed5e" style="font-size:6.75px; font-family:Arial;" text-anchor="middle"><textPath startOffset="22.20632615414155" xlink:href="#id96">December</textPath></text></svg>