<?xml version="1.0" encoding="utf-8" ?>
<svg baseProfile="full" height="200mm" version="1.1" viewBox="0,0,200,200" width="200mm" xmlns="http://www.w3.org/2000/svg" xmlns:ev="http://www.w3.org/2001/xml-events" xmlns:xlink="http://www.w3.org/1999/xlink"><defs /><rect fill="#1a1a1a" height="200" width="200" x="0" y="0" /><text alignment-baseline="middle" fill="#e1ed5e" style="dominant-baseline: central; font-size:9.0px; font-family:Arial;" text-anchor="middle" x="100.0" y="100.0">2022</text><line stroke="#e1ed5e" stroke-width="0.3" x1="100.0" x2="100.0" y1="15.0" y2="10.0" /><path d="M 100.0 14.0 a86.0,86.0 0 0,1 42.46469731375804,11.215312516191453" fill="none" id="id85" stroke="none" /><text fill="#e1ed5e" style="font-size:6.75px; font-family:Arial;" text-anchor="middle"><textPath startOffset="22.20632615414155" xlink:href="#id85">January</textPath></text><line stroke="#e1ed5e" stroke-width="0.3" x1="143.23703022742887" x2="145.7803849466894" y1="26.81831364943548" y2="22.513508569990506" /><path d="M 143.74570117128098 25.957352633546492 a86.0,86.0 0 0,1 28.547481713284135,27.462654790039103" fill="none" id="id86" stroke="none" /><text fill="#e1ed5e" style="font-size:6.75px; font-family:Arial;" text-anchor="middle"><textPath startOffset="19.985693538727396" xlink:href="#id86">February</textPath></text><line stroke="#e1ed5e" stroke-width="0.3" x1="172.23445277983987" x2="176.4835382374775" y1="55.19839476539836" y2="52.563006222186495" /><path d="M 173.08426987136738 54.67131705675599 a86.0,86.0 0 0,1 12.851231095245387,41.99856678651699" fill="none" id="id87" stroke="none" /><text fill="#e1ed5e" style="font-size:6.75px; font-family:Arial;" text-anchor="middle"><textPath startOffset="22.20632615414155" xlink:href="#id87">March</textPath></text><line stroke="#e1ed5e" stroke-width="0.3" x1="184.98032266829074" x2="189.97916517819016" y1="98.17113171792111" y2="98.06355123074" /><path d="M 185.9800911702706 98.14961562048488 a86.0,86.0 0 0,1 -9.607161424134198,41.387399972396054" fill="none" id="id88" stroke="none" /><text fill="#e1ed5e" style="font-size:6.75px; font-family:Arial;" text-anchor="middle"><textPath startOffset="21.466115282336823" xlink:href="#id88">April</textPath></text><line stroke="#e1ed5e" stroke-width="0.3" x1="174.80103733775053" x2="179.2010983576182" y1="140.37084112569926" y2="142.7455964860345" /><path d="M 175.68104954172406 140.8457921977663 a86.0,86.0 0 0,1 -30.038265399797805,32.042727171017184" fill="none" id="id89" stroke="none" /><text fill="#e1ed5e" style="font-size:6.75px; font-family:Arial;" text-anchor="middle"><textPath startOffset="22.206326154141568" xlink:href="#id89">May</textPath></text><line stroke="#e1ed5e" stroke-width="0.3" x1="143.8653032363475" x2="146.44561519142675" y1="172.8068346515853" y2="177.08958963109032" /><path d="M 144.38136562736335 173.6633856474863 a86.0,86.0 0 0,1 -40.68145358897372,12.25698825130547" fill="none" id="id90" stroke="none" /><text fill="#e1ed5e" style="font-size:6.75px; font-family:Arial;" text-anchor="middle"><textPath startOffset="21.466115282336833" xlink:href="#id90">June</textPath></text><line stroke="#e1ed5e" stroke-width="0.3" x1="102.19456741930631" x2="102.32365962044197" y1="184.97166512339345" y2="189.96999836594603" /><path d="M 102.22038585953345 185.97133177190398 a86.0,86.0 0 0,1 -42.740103519485714,-10.115201625700543" fill="none" id="id91" stroke="none" /><text fill="#e1ed5e" style="font-size:6.75px; font-family:Arial;" text-anchor="middle"><textPath startOffset="22.20632615414155" xlink:href="#id91">July</textPath></text><path d="M 96.58105272829116 120.7198165907248 l -1.8983949298349394 11.504826379870389 a32.660400222144375,32.660400222144375 0 0,0 -0.553906434821486,-0.09630373370609645 l 2.0961503361284755 -11.470444067643287" fill="#ff0601" stroke="none" /><path d="M 96.22490169976321 120.6578951692458 l -2.052811680402791 11.233288545970893 a32.41931728923577,32.41931728923577 0 0,0 -0.5480908357692602,-0.1050429131423594 l 2.2458701307437465 -11.196288434480065" fill="#ff0200" stroke="none" /><path d="M 95.86986931433489 120.58985236759428 l -2.4642225443979577 12.284836062489104 a33.529548668270216,33.529548668270216 0 0,0 -0.5649066958691874,-0.1183816906043144 l 2.675320701696532 -12.24059839115825" fill="#ff1602" stroke="none" /><path d="M 95.51606077576429 120.51570834832081 l -2.727375315453127 12.478767826694437 a33.773340306430704,33.773340306430704 0 0,0 -0.5668772355102241,-0.1290194132082972 l 2.9417727003562137 -12.429971679908453" fill="#ff1a02" stroke="none" /><path d="M 94.81253420990036 120.34920634021253 l -3.1755254186498854 12.456838193713677 a33.85522382025515,33.85522382025515 0 0,0 -0.5634630612350142,-0.14881571570823784 l 3.3894789226963886 -12.400331128701858" fill="#ff1b02" stroke="none" /><path d="M 94.46302465271185 120.25689768951611 l -3.40675836823704 12.463547585069136 a33.920759303726534,33.920759303726534 0 0,0 -0.5619035674281857,-0.15879956085823493 l 3.6207931037698398 -12.40305923087238" fill="#ff1c02" stroke="none" /><path d="M 94.11515582081647 120.15858648285463 l -4.259462639316183 14.590827449411993 a36.199844329276694,36.199844329276694 0 0,0 -0.5966510497014293,-0.17976606687184823 l 4.509988663457858 -14.515346013434419" fill="#ff4306" stroke="none" /><path d="M 93.76903079525671 120.05430185196036 l -4.517186897936896 14.538513447311948 a36.22410426687111,36.22410426687111 0 0,0 -0.5938659948706625,-0.19013713788757997 l 4.766774237898499 -14.458603462764662" fill="#ff4406" stroke="none" /><path d="M 93.42475214034765 119.94407469862007 l -4.889975324749839 14.832297615678954 a36.61758339938474,36.61758339938474 0 0,0 -0.5969193859192755,-0.20250746490540086 l 5.14456444360634 -14.745927163875429" fill="#ff4a06" stroke="none" /><path d="M 93.08242187328487 119.8279376855182 l -5.112943322919384 14.655291163957212 a36.521589755039535,36.521589755039535 0 0,0 -0.5917896480164632,-0.21219471291153616 l 5.364452531565575 -14.56510891000572" fill="#ff4906" stroke="none" /><path d="M 92.7421414339146 119.70592522655815 l -6.655539174777043 18.070558433508292 a40.25723977640175,40.25723977640175 0 0,0 -0.6481986475426228,-0.24509326434713397 l 6.965608043079948 -17.953316919054526" fill="#ff860c" stroke="none" /><path d="M 92.40401165467489 119.57807347666478 l -7.019644342746608 18.092591309322916 a40.406629459667684,40.406629459667684 0 0,0 -0.6462731058899304,-0.2571654063904466 l 7.330038524678397 -17.969079058526404" fill="#ff880c" stroke="none" /><path d="M 91.7346041902142 119.30500536409082 l -8.27026192310194 19.316370862589903 a42.012363398195404,42.012363398195404 0 0,0 -0.6623535680908692,-0.2903563394739474 l 8.60153616585055 -19.171149969821503" fill="#ffa20e" stroke="none" /><path d="M 91.40352486487194 119.15986991738527 l -8.629230262873985 19.232874721898103 a42.08001624757266,42.08001624757266 0 0,0 -0.6583158131406952,-0.30220050146124683 l 8.9590140717821 -19.08148715010278" fill="#ffa30f" stroke="none" /><path d="M 91.07499286063937 119.00905698771935 l -6.81777720453813 14.520942491920902 a37.0418158842568,37.0418158842568 0 0,0 -0.5748313595688906,-0.27595398503726465 l 7.0667212321072626 -14.401434230384075" fill="#ff5107" stroke="none" /><path d="M 90.42595943632237 118.69057910512821 l -15.658591662740074 30.568926901947787 a55.346044674708324,55.346044674708324 0 0,0 -0.8441829342135275,-0.44163661263107323 l 16.1824654994801 -30.294860870371995" fill="#9cff22" stroke="none" /><path d="M 90.10565033884886 118.52300852407294 l -8.04668843542913 15.064039940415054 a38.07848043894096,38.07848043894096 0 0,0 -0.5754876690488597,-0.3138017622257918 l 8.30479891634663 -14.923297526429497" fill="#ff6209" stroke="none" /><line stroke="#e1ed5e" stroke-width="0.3" x1="58.666819895761336" x2="56.23545636021788" y1="174.27360380694188" y2="178.64263932499728" /><path d="M 58.180547188652646 175.14741091055294 a86.0,86.0 0 0,1 -31.652253787137756,-30.449443065178592" fill="none" id="id92" stroke="none" /><text fill="#e1ed5e" style="font-size:6.75px; font-family:Arial;" text-anchor="middle"><textPath startOffset="22.20632615414155" xlink:href="#id92">August</textPath></text><path d="M 89.4739219176387 118.17145234162733 l -9.464378767804721 16.33861219502686 a39.881862035296024,39.881862035296024 0 0,0 -0.5910722299332154,-0.3492158919349496 l 9.74421886876632 -16.173277730798162" fill="#ff800b" stroke="none" /><path d="M 89.1626897886671 117.98757091392108 l -10.819372409081137 17.957798075112223 a41.96524102014786,41.96524102014786 0 0,0 -0.6155317673361638,-0.37810988539708634 l 11.126883376349609 -17.768899722886758" fill="#ffa10e" stroke="none" /><path d="M 88.54995079064634 117.60387380957326 l -10.757702436944962 16.53942552720328 a40.730199149825,40.730199149825 0 0,0 -0.5844304537715413,-0.3873286367411787 l 11.040807589456465 -16.351798869370782" fill="#ff8d0d" stroke="none" /><path d="M 88.24862548938628 117.40417183066458 l -11.139335513280198 16.49772196243518 a40.90627101260408,40.90627101260408 0 0,0 -0.5801738665168741,-0.39904887569806274 l 11.421666264419963 -16.303532297372016" fill="#ff900d" stroke="none" /><path d="M 87.95078237400918 117.19931262002967 l -13.502448722764587 19.273685970930565 a44.53276635708035,44.53276635708035 0 0,0 -0.6240369597228201,-0.4452338015533201 l 13.832213010336293 -19.038407907533028" fill="#ffc912" stroke="none" /><path d="M 87.36589467227662 116.77436683061367 l -12.01933201801856 15.958129135331033 a40.978143749089085,40.978143749089085 0 0,0 -0.5597834381560888,-0.4292180699877339 l 12.292244184668135 -15.748871723515933" fill="#ff910d" stroke="none" /><path d="M 87.07902340077011 116.55440617244103 l -11.79457675029974 15.111258244065619 a40.16930271130258,40.16930271130258 0 0,0 -0.5414104835810718,-0.4301292322777954 l 12.05294472659817 -14.905995097782693" fill="#ff840c" stroke="none" /><path d="M 86.79598089348748 116.32954008644616 l -8.73205134455319 10.799013642555135 a34.88767137917675,34.88767137917675 0 0,0 -0.46372339178308314,-0.38161278130969206 l 8.916644864880961 -10.647105742388263" fill="#ff2d04" stroke="none" /><path d="M 86.51685102203217 116.09983520530335 l -13.433753509740583 16.04085351640804 a41.92306657484336,41.92306657484336 0 0,0 -0.549261092499898,-0.46809221899334275 l 13.707880078817537 -15.807236907191744" fill="#ffa00e" stroke="none" /><path d="M 85.97065885151581 115.62618273729859 l -24.123628075560116 26.869417216791952 a57.10976340407104,57.10976340407104 0 0,0 -0.7258391229708523,-0.66303682935437 l 24.58256674799782 -26.450187620851008" fill="#85ff25" stroke="none" /><path d="M 85.44109423537348 115.13401014063109 l -14.602408077401488 15.179230877224969 a42.06274843611489,42.06274843611489 0 0,0 -0.5174720505559651,-0.5064553148983568 l 14.861530080333248 -14.925625459404042" fill="#ffa20f" stroke="none" /><path d="M 85.18274418774928 114.88116024355367 l -14.313893416056795 14.375626926638938 a41.28660134818399,41.28660134818399 0 0,0 -0.49929140342696116,-0.505779555621478 l 14.559225444539289 -14.127106877036796" fill="#ff960d" stroke="none" /><path d="M 84.9287848128048 114.62390073753433 l -8.10215267874009 7.861680366352291 a32.28941522897906,32.28941522897906 0 0,0 -0.38361893140165687,-0.40222291588636017 l 8.236278161520705 -7.721050333883431" fill="#ff0000" stroke="none" /><path d="M 84.67929136418377 114.36230785411682 l -16.021593416750495 15.019348153839669 a42.96069840824535,42.96069840824535 0 0,0 -0.5011132090529461,-0.5438594173661866 l 16.27775303379917 -14.741337481672138" fill="#ffb010" stroke="none" /><path d="M 84.43433777217949 114.09645910891817 l -27.98075621006823 25.339724065634094 a58.7494944841616,58.7494944841616 0 0,0 -0.6723771946143812,-0.7554229059709647 l 28.412792254330945 -24.854326989922267" fill="#70ff27" stroke="none" /><path d="M 83.72743513129214 113.27417163493432 l -9.13063403300266 7.448217553148038 a32.783226322346906,32.783226322346906 0 0,0 -0.352938107454011,-0.44034455576374365 l 9.257490052511534 -7.289945163806035" fill="#ff0901" stroke="none" /><path d="M 83.50135304334701 112.99209946851258 l -15.150221323819343 11.930262095199836 a40.28368117919585,40.28368117919585 0 0,0 -0.42430836448566306,-0.5484757584408518 l 15.353336505523075 -11.667708342645732" fill="#ff860c" stroke="none" /><path d="M 83.28015986056508 112.70617746262583 l -15.974961403459886 12.140109765297057 a41.064437618719694,41.064437618719694 0 0,0 -0.4228439035500307,-0.5664685089684075 l 16.181566573705002 -11.863328376819341" fill="#ff930d" stroke="none" /><path d="M 83.06392112726016 112.41649034213515 l -16.339172028736094 11.97887499330394 a41.25986151704484,41.25986151704484 0 0,0 -0.4149960245801855,-0.5763931815638466 l 16.542947845691888 -11.695848206288955" fill="#ff960d" stroke="none" /><path d="M 82.6465618267979 111.8261652097733 l -34.680847502587 23.634592066827715 a62.96850158944265,62.96850158944265 0 0,0 -0.6026892036389268,-0.9009385854952197 l 35.08253981163666 -23.034116567126674" fill="#3cff2e" stroke="none" /><path d="M 82.24976979558568 111.22182372390057 l -10.041430787829041 6.348265061302822 a32.87984854934267,32.87984854934267 0 0,0 -0.29832256147676395,-0.4809909570720268 l 10.149217988973762 -6.174477772865531" fill="#ff0a01" stroke="none" /><path d="M 82.05923443525364 110.91462005526583 l -16.964373730935506 10.320612745340846 a40.85711518630404,40.85711518630404 0 0,0 -0.3603580522049384,-0.6039808232519142 l 17.13951265883868 -10.027069828202821" fill="#ff8f0d" stroke="none" /><line stroke="#e1ed5e" stroke-width="0.3" x1="26.63291911575756" x2="22.317208475507996" y1="142.92168965132927" y2="145.44649492493687" /><path d="M 25.769776987707644 143.4266507060508 a86.0,86.0 0 0,1 -11.730757126820373,-40.83630448921669" fill="none" id="id93" stroke="none" /><text fill="#e1ed5e" style="font-size:6.75px; font-family:Arial;" text-anchor="middle"><textPath startOffset="21.46611528233685" xlink:href="#id93">September</textPath></text><path d="M 81.87401531095188 110.60418214915194 l -17.33505284036333 10.141466024488835 a41.08365977863721,41.08365977863721 0 0,0 -0.35184829533060813,-0.6134771602899968 l 17.507053131846316 -9.84156901834053" fill="#ff930d" stroke="none" /><path d="M 81.35079622478065 109.6543875284942 l -25.037395937696406 12.961450043677496 a49.19344573789667,49.19344573789667 0 0,0 -0.38282182572781814,-0.7553437804770134 l 25.25679643321049 -12.528552051497797" fill="#f0ff19" stroke="none" /><path d="M 81.18737489456691 109.33194174019688 l -18.617956135458595 9.235376828269652 a41.7826965483789,41.7826965483789 0 0,0 -0.3140601228579539,-0.6470568746230474 l 18.774169514931266 -8.91353099768132" fill="#ff9e0e" stroke="none" /><path d="M 80.87730276802145 108.67885076344099 l -18.234350266445446 8.275673813741431 a41.024442731593425,41.024442731593425 0 0,0 -0.2863094202974315,-0.645552159291199 l 18.374100771474158 -7.960573317957535" fill="#ff920d" stroke="none" /><path d="M 80.58989483394504 108.01547362559985 l -18.771143171445186 7.751611942639362 a41.30870019652076,41.30870019652076 0 0,0 -0.26574749547501364,-0.6595634899754972 l 18.901793281177586 -7.427349084821059" fill="#ff960d" stroke="none" /><path d="M 80.32549172779594 107.34259656027581 l -49.32723104727298 18.409098311612443 a73.65045701071989,73.65045701071989 0 0,0 -0.43304974317626616,-1.1915669057570641 l 49.63680505145447 -17.55728360884926" fill="#3effb2" stroke="none" /><path d="M 79.97269907076064 106.31721596034903 l -23.166448663386397 7.307398024228386 a45.291611917652034,45.291611917652034 0 0,0 -0.2281257129014222,-0.7455280290272633 l 23.28880114879395 -6.907543022649074" fill="#ffd413" stroke="none" /><path d="M 79.86692584326677 105.97154293290107 l -23.597131137596172 6.998994817407284 a45.61321852946105,45.61321852946105 0 0,0 -0.21678738402682882,-0.7546653236303089 l 23.714111158509105 -6.591772018272379" fill="#ffd914" stroke="none" /><path d="M 79.76711848015287 105.62410040840567 l -23.818916321844387 6.62090453512811 a45.72199732243139,45.72199732243139 0 0,0 -0.2042508820149289,-0.760093515170692 l 23.92935528020109 -6.20992008678188" fill="#ffdb14" stroke="none" /><path d="M 79.58551787078972 104.9243191809786 l -24.261568870434925 5.852301723508757 a45.957426941049846,45.957426941049846 0 0,0 -0.17888257473567962,-0.7706214501693661 l 24.35871201110116 -5.433811615990816" fill="#ffde14" stroke="none" /><path d="M 79.35854240842038 103.8639653848113 l -43.59133795158059 8.160054597657341 a65.34852010434687,65.34852010434687 0 0,0 -0.19745695659475523,-1.1074434748795556 l 43.72534135051453 -7.408492372044572" fill="#31ff42" stroke="none" /><path d="M 79.18660465613746 102.79330883721812 l -20.626977813628187 2.7682902505813423 a41.81191112405041,41.81191112405041 0 0,0 -0.08959394743272335,-0.7141519133099848 l 20.67157327030776 -2.4128205829839486" fill="#ff9e0e" stroke="none" /><path d="M 79.1416061653843 102.43462659150553 l -62.5751815038471 7.303879774516597 a84.0,84.0 0 0,0 -0.15527079399579247,-1.4376147124608716 l 62.69163459934394 -6.225668740170943" fill="#4dd2ff" stroke="none" /><path d="M 79.04373962182676 101.35467743843564 l -24.960036565979962 1.6134939053190533 a46.01213281504715,46.01213281504715 0 0,0 -0.04428919560188831,-0.7908133392705171 l 24.984112112469383 -1.1836088497130985" fill="#ffdf14" stroke="none" /><path d="M 79.0235259727143 100.99374915477108 l -28.934164364232647 1.3707404468244777 a49.966615211808765,49.966615211808765 0 0,0 -0.033306001981431674,-0.8594799192477081 l 28.953472499065278 -0.872483280562773" fill="#e5ff1a" stroke="none" /><path d="M 79.0095281055655 100.63252640178507 l -27.931822344768328 0.8416968980921646 a48.94450130469244,48.94450130469244 0 0,0 -0.01812796490768898,-0.8423352967899607 l 27.942172372361025 -0.36077178551207506" fill="#f4ff19" stroke="none" /><line stroke="#e1ed5e" stroke-width="0.3" x1="15.007084014347285" x2="10.007500721073583" y1="101.09737516637583" y2="101.16192664675087" /><path d="M 14.007167355692545 101.11028546245083 a86.0,86.0 0 0,1 10.666146001902534,-42.60595125391555" fill="none" id="id94" stroke="none" /><text fill="#e1ed5e" style="font-size:6.75px; font-family:Arial;" text-anchor="middle"><textPath startOffset="22.20632615414155" xlink:href="#id94">October</textPath></text><path d="M 79.00019446554 99.90962569577889 l -27.337889303282665 -0.11765074303206917 a48.338142461693934,48.338142461693934 0 0,0 0.010742560324360823,-0.8320231358385656 l 27.33181373584059 0.5882101369311068" fill="#fdff18" stroke="none" /><line stroke="#e1ed5e" stroke-width="0.3" x1="26.266209847984243" x2="21.928928074336255" y1="57.711370442889674" y2="55.22380399835377" /><path d="M 25.398753493254645 57.213857153982495 a86.0,86.0 0 0,1 29.58750427330803,-30.492523968695096" fill="none" id="id95" stroke="none" /><text fill="#e1ed5e" style="font-size:6.75px; font-family:Arial;" text-anchor="middle"><textPath startOffset="21.46611528233685" xlink:href="#id95">November</textPath></text><line stroke="#e1ed5e" stroke-width="0.3" x1="56.762969772571076" x2="54.21961505331055" y1="26.818313649435495" y2="22.513508569990535" /><path d="M 56.25429882871897 25.957352633546506 a86.0,86.0 0 0,1 42.265352541879196,-11.944610805530505" fill="none" id="id96" stroke="none" /><text fill="#e1ed5e" style="font-size:6.75px; font-family:Arial;" text-anchor="middle"><textPath startOffset="22.20632615414155" xlink:href="#id96">December</textPath></text></svg>