<?xml version="1.0" encoding="utf-8" ?>
<svg baseProfile="full" height="200mm" version="1.1" viewBox="0,0,200,200" width="200mm" xmlns="http://www.w3.org/2000/svg" xmlns:ev="http://www.w3.org/2001/xml-events" xmlns:xlink="http://www.w3.org/1999/xlink"><defs /><rect fill="#1a1a1a" height="200" width="200" x="0" y="0" /><text alignment-baseline="middle" fill="#e1ed5e" style="dominant-baseline: central; font-size:9.0px; font-family:Arial;" text-anchor="middle" x="100.0" y="100.0">2022</text><line stroke="#e1ed5e" stroke-width="0.3" x1="100.0" x2="100.0" y1="15.0" y2="10.0" /><path d="M 100.0 14.0 a86.0,86.0 0 0,1 42.46469731375804,11.215312516191453" fill="none" id="id85" stroke="none" /><text fill="#e1ed5e" style="font-size:6.75px; font-family:Arial;" text-anchor="middle"><textPath startOffset="22.20632615414155" xlink:href="#id85">January</textPath></text><line stroke="#e1ed5e" stroke-width="0.3" x1="143.23703022742887" x2="145.7803849466894" y1="26.81831364943548" y2="22.513508569990506" /><path d="M 143.74570117128098 25.957352633546492 a86.0,86.0 0 0,1 28.547481713284135,27.462654790039103" fill="none" id="id86" stroke="none" /><text fill="#e1ed5e" style="font-size:6.75px; font-family:Arial;" text-anchor="middle"><textPath startOffset="19.985693538727396" xlink:href="#id86">February</textPath></text><line stroke="#e1ed5e" stroke-width="0.3" x1="172.23445277983987" x2="176.4835382374775" y1="55.19839476539836" y2="52.563006222186495" /><path d="M 173.08426987136738 54.67131705675599 a86.0,86.0 0 0,1 12.851231095245387,41.99856678651699" fill="none" id="id87" stroke="none" /><text fill="#e1ed5e" style="font-size:6.75px; font-family:Arial;" text-anchor="middle"><textPath startOffset="22.20632615414155" xlink:href="#id87">March</textPath></text><line stroke="#e1ed5e" stroke-width="0.3" x1="184.98032266829074" x2="189.97916517819016" y1="98.17113171792111" y2="98.06355123074" /><path d="M 185.9800911702706 98.14961562048488 a86.0,86.0 0 0,1 -9.607161424134198,41.387399972396054" fill="none" id="id88" stroke="none" /><text fill="#e1ed5e" style="font-size:6.75px; font-family:Arial;" text-anchor="middle"><textPath startOffset="21.466115282336823" xlink:href="#id88">April</textPath></text><line stroke="#e1ed5e" stroke-width="0.3" x1="174.80103733775053" x2="179.2010983576182" y1="140.37084112569926" y2="142.7455964860345" /><path d="M 175.68104954172406 140.8457921977663 a86.0,86.0 0 0,1 -30.038265399797805,32.042727171017184" fill="none" id="id89" stroke="none" /><text fill="#e1ed5e" style="font-size:6.75px; font-family:Arial;" text-anchor="middle"><textPath startOffset="22.206326154141568" xlink:href="#id89">May</textPath></text><line stroke="#e1ed5e" stroke-width="0.3" x1="143.8653032363475" x2="146.44561519142675" y1="172.8068346515853" y2="177.08958963109032" /><path d="M 144.38136562736335 173.6633856474863 a86.0,86.0 0 0,1 -40.68145358897372,12.25698825130547" fill="none" id="id90" stroke="none" /><text fill="#e1ed5e" style="font-size:6.75px; font-family:Arial;" text-anchor="middle"><textPath startOffset="21.466115282336833" xlink:href="#id90">June</textPath></text><line stroke="#e1ed5e" stroke-width="0.3" x1="102.19456741930631" x2="102.32365962044197" y1="184.97166512339345" y2="189.96999836594603" /><path d="M 102.22038585953345 185.97133177190398 a86.0,86.0 0 0,1 -42.740103519485714,-10.115201625700543" fill="none" id="id91" stroke="none" /><text fill="#e1ed5e" style="font-size:6.75px; font-family:Arial;" text-anchor="middle"><textPath startOffset="22.20632615414155" xlink:href="#id91">July</textPath></text><path d="M 96.58105272829116 120.7198165907248 l -2.849729584095676 17.27019155990457 a38.503727466407526,38.503727466407526 0 0,0 -0.6530067685390915,-0.11353359699808244 l 3.1465853241068173 -17.218579384385485" fill="#ff0b01" stroke="none" /><path d="M 96.22490169976321 120.6578951692458 l -3.081528550400012 16.862579115147398 a38.14183165888452,38.14183165888452 0 0,0 -0.6448374037361244,-0.12358462315198086 l 3.371333568707831 -16.80703729364695" fill="#ff0400" stroke="none" /><path d="M 95.86986931433489 120.58985236759428 l -3.6991080076140745 18.441084209008366 a39.808428612080604,39.808428612080604 0 0,0 -0.6706934261920392,-0.1405503284885816 l 4.015992895235501 -18.374677899793245" fill="#ff2403" stroke="none" /><path d="M 95.51606077576429 120.51570834832081 l -4.094133418305556 18.732200181278614 a40.17439052690804,40.17439052690804 0 0,0 -0.6743172938646352,-0.15347242069496198 l 4.4159708615630535 -18.658951027005966" fill="#ff2b04" stroke="none" /><path d="M 94.81253420990036 120.34920634021253 l -4.766863094899441 18.699281043700076 a40.29730798108366,40.29730798108366 0 0,0 -0.6706806794455995,-0.1771328631634211 l 5.08803421715653 -18.61445683123307" fill="#ff2e04" stroke="none" /><path d="M 94.46302465271185 120.25689768951611 l -5.113972838451861 18.7093526840824 a40.395684985320955,40.395684985320955 0 0,0 -0.6691618928313137,-0.18911183499161324 l 5.4352658993877885 -18.618552055752268" fill="#ff2f04" stroke="none" /><path d="M 94.11515582081647 120.15858648285463 l -6.39398920890764 21.902667345745535 a43.81687828915286,43.81687828915286 0 0,0 -0.7221961008467462,-0.21759176092017393 l 6.770060284194632 -21.789360215719636" fill="#ff6f0a" stroke="none" /><path d="M 93.76903079525671 120.05430185196036 l -6.780865739595823 21.824137448144153 a43.85329550707977,43.85329550707977 0 0,0 -0.7189406471669967,-0.23018209182552776 l 7.15552773185376 -21.70418250965892" fill="#ff700a" stroke="none" /><path d="M 93.42475214034765 119.94407469862007 l -7.340468060378302 22.26514443924857 a44.44395717975179,44.44395717975179 0 0,0 -0.7245005586033777,-0.2457899255849568 l 7.7226383519189055 -22.13549152676549" fill="#ff7b0b" stroke="none" /><path d="M 93.08242187328487 119.8279376855182 l -7.675171072225045 21.999435490009482 a44.299858644786,44.299858644786 0 0,0 -0.7178273982708944,-0.2573873659444106 l 8.052718031125666 -21.864060583025115" fill="#ff780b" stroke="none" /><path d="M 92.7421414339146 119.70592522655815 l -9.990801485188832 27.126181259647417 a49.90753922504816,49.90753922504816 0 0,0 -0.8035821533601454,-0.30384601060925 l 10.45625385930926 -26.95018699893153" fill="#ffdb14" stroke="none" /><path d="M 92.40401165467489 119.57807347666478 l -10.537369142201706 27.159255377706252 a50.13179193098994,50.13179193098994 0 0,0 -0.801819634755922,-0.3190605803407283 l 11.003309852999488 -26.973847952959456" fill="#ffde14" stroke="none" /><path d="M 91.7346041902142 119.30500536409082 l -12.41470344241426 28.996302423369993 a52.5422005540296,52.5422005540296 0 0,0 -0.8283636338774126,-0.36313027372864604 l 12.911987750949415 -28.778307596346895" fill="#f8ff18" stroke="none" /><path d="M 91.40352486487194 119.15986991738527 l -12.953560074153717 28.870964213418127 a52.64375599082984,52.64375599082984 0 0,0 -0.8235789840951546,-0.37806471759977006 l 13.448607054016291 -28.64371242548428" fill="#f6ff19" stroke="none" /><path d="M 91.07499286063937 119.00905698771935 l -10.234341175381626 21.79776123389507 a45.08078350270212,45.08078350270212 0 0,0 -0.6995836314359188,-0.3358426567165155 l 10.608037474817786 -21.618364300678994" fill="#ff860c" stroke="none" /><path d="M 90.42595943632237 118.69057910512821 l -23.505515741376392 45.88780446970172 a72.55773336093888,72.55773336093888 0 0,0 -1.1067096232174054,-0.5789781685403256 l 24.291916267120296 -45.476396882216676" fill="#3aff92" stroke="none" /><path d="M 90.10565033884886 118.52300852407294 l -12.079091514660087 22.613018818972602 a46.636947398759126,46.636947398759126 0 0,0 -0.7048334870689662,-0.3843314152734923 l 12.466547813597694 -22.401746751939342" fill="#ffa20f" stroke="none" /><line stroke="#e1ed5e" stroke-width="0.3" x1="58.666819895761336" x2="56.23545636021788" y1="174.27360380694188" y2="178.64263932499728" /><path d="M 58.180547188652646 175.14741091055294 a86.0,86.0 0 0,1 -31.652253787137756,-30.449443065178592" fill="none" id="id92" stroke="none" /><text fill="#e1ed5e" style="font-size:6.75px; font-family:Arial;" text-anchor="middle"><textPath startOffset="22.20632615414155" xlink:href="#id92">August</textPath></text><path d="M 89.4739219176387 118.17145234162733 l -14.207223031324231 24.526312098443483 a49.34405001780876,49.34405001780876 0 0,0 -0.7313073209106963,-0.43206925552777664 l 14.62729822326331 -24.278124270621955" fill="#ffd113" stroke="none" /><path d="M 89.1626897886671 117.98757091392108 l -16.241238928186462 26.956913777847703 a52.47146393717259,52.47146393717259 0 0,0 -0.7696334429833767,-0.4727717209196139 l 16.702851571102148 -26.67335359009971" fill="#f9ff18" stroke="none" /><path d="M 88.54995079064634 117.60387380957326 l -16.148664542696462 24.82775816985379 a50.6175107369489,50.6175107369489 0 0,0 -0.7263017462783022,-0.48135319340953014 l 16.573640987714725 -24.54610695535294" fill="#ffe615" stroke="none" /><path d="M 88.24862548938628 117.40417183066458 l -16.721543794958542 24.765155873348373 a50.88181675062542,50.88181675062542 0 0,0 -0.7216570865263562,-0.4963623245334618 l 17.145357766107786 -24.47365275944981" fill="#ffeb16" stroke="none" /><path d="M 87.95078237400918 117.19931262002967 l -20.268873972573623 28.932227031762157 a56.325642430584345,56.325642430584345 0 0,0 -0.7892903480321987,-0.5631377063624714 l 20.76389164845471 -28.579045063555466" fill="#bcff1f" stroke="none" /><path d="M 87.36589467227662 116.77436683061367 l -18.042529241159524 23.955159165814912 a50.98970676878356,50.98970676878356 0 0,0 -0.696546762595486,-0.5340823552805335 l 18.452204732248497 -23.64103746870701" fill="#ffed16" stroke="none" /><path d="M 87.07902340077011 116.55440617244103 l -17.7051433129031 22.683899432225996 a49.77553462894791,49.77553462894791 0 0,0 -0.6708853391767325,-0.5329918881101713 l 18.09298614479719 -22.375773630110697" fill="#ffd814" stroke="none" /><path d="M 86.79598089348748 116.32954008644616 l -13.107907451364326 16.21067785875194 a41.847141636055596,41.847141636055596 0 0,0 -0.5562279650306857,-0.4577377474131845 l 13.385005544939702 -15.982644992481573" fill="#ff4b07" stroke="none" /><path d="M 86.51685102203217 116.09983520530335 l -20.16575381682327 24.079338867507246 a52.40815478975114,52.40815478975114 0 0,0 -0.6866329853120966,-0.5851635262674687 l 20.57725227871242 -23.728650951016828" fill="#faff18" stroke="none" /><path d="M 85.97065885151581 115.62618273729859 l -36.212600193059934 40.33437508008904 a75.20529702753885,75.20529702753885 0 0,0 -0.955825126625197,-0.8731235907770976 l 36.901524869151984 -39.70505872272536" fill="#3effb8" stroke="none" /><path d="M 85.44109423537348 115.13401014063109 l -21.920051325056388 22.78593490470796 a52.617834833756326,52.617834833756326 0 0,0 -0.6473247683420733,-0.6335435296263102 l 22.309026045774257 -22.40524127215908" fill="#f7ff19" stroke="none" /><path d="M 85.18274418774928 114.88116024355367 l -21.486954526830736 21.57962429152049 a51.45274042514521,51.45274042514521 0 0,0 -0.622233609407132,-0.630319361195902 l 21.8552287612934 -21.20656443634392" fill="#fff417" stroke="none" /><path d="M 84.9287848128048 114.62390073753433 l -12.162350320580131 11.801371131267299 a37.94683232637961,37.94683232637961 0 0,0 -0.4508326695882336,-0.4726962516580017 l 12.363689541547322 -11.590267763026796" fill="#ff0000" stroke="none" /><path d="M 84.67929136418377 114.36230785411682 l -24.050427035240865 22.545930825653404 a53.965770692835214,53.965770692835214 0 0,0 -0.6294813988804192,-0.6831777343985066 l 24.434954842117016 -22.12860183645355" fill="#e1ff1b" stroke="none" /><path d="M 84.43433777217949 114.09645910891817 l -42.002634701586175 38.038113243874534 a77.66673963648088,77.66673963648088 0 0,0 -0.8888815975378483,-0.9986678978028993 l 42.65117514877236 -37.309471176330774" fill="#42ffda" stroke="none" /><path d="M 83.72743513129214 113.27417163493432 l -13.70623020345975 11.180711440180769 a38.688104892803565,38.688104892803565 0 0,0 -0.4165089301335991,-0.5196589315173636 l 13.896657045648212 -10.943124675085144" fill="#ff0f01" stroke="none" /><path d="M 83.50135304334701 112.99209946851258 l -22.742387916005978 17.90882408312283 a49.94723109664092,49.94723109664092 0 0,0 -0.5260946198766986,-0.6800482144590712 l 23.047289353100744 -17.514697874550507" fill="#ffdb14" stroke="none" /><path d="M 83.28015986056508 112.70617746262583 l -23.980426517565796 18.223831832159334 a51.11924472179202,51.11924472179202 0 0,0 -0.526379082197346,-0.7051708002435684 l 24.290566866458224 -17.808348152406456" fill="#ffef16" stroke="none" /><path d="M 83.06392112726016 112.41649034213515 l -24.527152479261147 17.98179815807358 a51.41260057506797,51.41260057506797 0 0,0 -0.5171133413321819,-0.718225203099449 l 24.833045612968935 -17.556939349522995" fill="#fff417" stroke="none" /><path d="M 82.6465618267979 111.8261652097733 l -52.06031451960629 35.47849562931989 a84.0,84.0 0 0,0 -0.8039875783570785,-1.2018523431767165 l 52.6633052033741 -34.57710637193735" fill="#4dd2ff" stroke="none" /><path d="M 82.24976979558568 111.22182372390057 l -15.07345069933031 9.529544389611576 a38.8331470093957,38.8331470093957 0 0,0 -0.35233750753630716,-0.5680802488532561 l 15.235252846534573 -9.268667809393056" fill="#ff1101" stroke="none" /><path d="M 82.05923443525364 110.91462005526583 l -25.465658876841747 15.492537935165013 a50.808027672158985,50.808027672158985 0 0,0 -0.4481246853779662,-0.7510827487772171 l 25.728564437917942 -15.051893092501684" fill="#ffea16" stroke="none" /><line stroke="#e1ed5e" stroke-width="0.3" x1="26.63291911575756" x2="22.317208475507996" y1="142.92168965132927" y2="145.44649492493687" /><path d="M 25.769776987707644 143.4266507060508 a86.0,86.0 0 0,1 -11.730757126820373,-40.83630448921669" fill="none" id="id93" stroke="none" /><text fill="#e1ed5e" style="font-size:6.75px; font-family:Arial;" text-anchor="middle"><textPath startOffset="21.46611528233685" xlink:href="#id93">September</textPath></text><path d="M 81.87401531095188 110.60418214915194 l -26.02209484690332 15.223616172742213 a51.14809960173627,51.14809960173627 0 0,0 -0.4380420768557932,-0.7637632836746252 l 26.28028891991149 -14.77343304320928" fill="#ffef16" stroke="none" /><line stroke="#e1ed5e" stroke-width="0.3" x1="15.007084014347285" x2="10.007500721073583" y1="101.09737516637583" y2="101.16192664675087" /><path d="M 14.007167355692545 101.11028546245083 a86.0,86.0 0 0,1 10.666146001902534,-42.60595125391555" fill="none" id="id94" stroke="none" /><text fill="#e1ed5e" style="font-size:6.75px; font-family:Arial;" text-anchor="middle"><textPath startOffset="22.20632615414155" xlink:href="#id94">October</textPath></text><line stroke="#e1ed5e" stroke-width="0.3" x1="26.266209847984243" x2="21.928928074336255" y1="57.711370442889674" y2="55.22380399835377" /><path d="M 25.398753493254645 57.213857153982495 a86.0,86.0 0 0,1 29.58750427330803,-30.492523968695096" fill="none" id="id95" stroke="none" /><text fill="#e1ed5e" style="font-size:6.75px; font-family:Arial;" text-anchor="middle"><textPath startOffset="21.46611528233685" xlink:href="#id95">November</textPath></text><line stroke="#e1ed5e" stroke-width="0.3" x1="56.762969772571076" x2="54.21961505331055" y1="26.818313649435495" y2="22.513508569990535" /><path d="M 56.25429882871897 25.957352633546506 a86.0,86.0 0 0,1 42.265352541879196,-11.944610805530505" fill="none" id="id96" stroke="none" /><text fill="#e1ed5e" style="font-size:6.75px; font-family:Arial;" text-anchor="middle"><textPath startOffset="22.20632615414155" xlink:href="#id96">December</textPath></text></svg>