<?xml version="1.0" encoding="utf-8" ?>
<svg baseProfile="full" height="200mm" version="1.1" viewBox="0,0,200,200" width="200mm" xmlns="http://www.w3.org/2000/svg" xmlns:ev="http://www.w3.org/2001/xml-events" xmlns:xlink="http://www.w3.org/1999/xlink"><defs /><rect fill="#1a1a1a" height="200" width="200" x="0" y="0" /><text alignment-baseline="middle" fill="#e1ed5e" style="dominant-baseline: central; font-size:9.0px; font-family:Arial;" text-anchor="middle" x="100.0" y="100.0">2022</text><line stroke="#e1ed5e" stroke-width="0.3" x1="100.0" x2="100.0" y1="15.0" y2="10.0" /><path d="M 100.0 14.0 a86.0,86.0 0 0,1 42.46469731375804,11.215312516191453" fill="none" id="id85" stroke="none" /><text fill="#e1ed5e" style="font-size:6.75px; font-family:Arial;" text-anchor="middle"><textPath startOffset="22.20632615414155" xlink:href="#id85">January</textPath></text><line stroke="#e1ed5e" stroke-width="0.3" x1="143.23703022742887" x2="145.7803849466894" y1="26.81831364943548" y2="22.513508569990506" /><path d="M 143.74570117128098 25.957352633546492 a86.0,86.0 0 0,1 28.547481713284135,27.462654790039103" fill="none" id="id86" stroke="none" /><text fill="#e1ed5e" style="font-size:6.75px; font-family:Arial;" text-anchor="middle"><textPath startOffset="19.985693538727396" xlink:href="#id86">February</textPath></text><line stroke="#e1ed5e" stroke-width="0.3" x1="172.23445277983987" x2="176.4835382374775" y1="55.19839476539836" y2="52.563006222186495" /><path d="M 173.08426987136738 54.67131705675599 a86.0,86.0 0 0,1 12.851231095245387,41.99856678651699" fill="none" id="id87" stroke="none" /><text fill="#e1ed5e" style="font-size:6.75px; font-family:Arial;" text-anchor="middle"><textPath startOffset="22.20632615414155" xlink:href="#id87">March</textPath></text><line stroke="#e1ed5e" stroke-width="0.3" x1="184.98032266829074" x2="189.97916517819016" y1="98.17113171792111" y2="98.06355123074" /><path d="M 185.9800911702706 98.14961562048488 a86.0,86.0 0 0,1 -9.607161424134198,41.387399972396054" fill="none" id="id88" stroke="none" /><text fill="#e1ed5e" style="font-size:6.75px; font-family:Arial;" text-anchor="middle"><textPath startOffset="21.466115282336823" xlink:href="#id88">April</textPath></text><line stroke="#e1ed5e" stroke-width="0.3" x1="174.80103733775053" x2="179.2010983576182" y1="140.37084112569926" y2="142.7455964860345" /><path d="M 175.68104954172406 140.8457921977663 a86.0,86.0 0 0,1 -30.038265399797805,32.042727171017184" fill="none" id="id89" stroke="none" /><text fill="#e1ed5e" style="font-size:6.75px; font-family:Arial;" text-anchor="middle"><textPath startOffset="22.206326154141568" xlink:href="#id89">May</textPath></text><line stroke="#e1ed5e" stroke-width="0.3" x1="143.8653032363475" x2="146.44561519142675" y1="172.8068346515853" y2="177.08958963109032" /><path d="M 144.38136562736335 173.6633856474863 a86.0,86.0 0 0,1 -40.68145358897372,12.25698825130547" fill="none" id="id90" stroke="none" /><text fill="#e1ed5e" style="font-size:6.75px; font-family:Arial;" text-anchor="middle"><textPath startOffset="21.466115282336833" xlink:href="#id90">June</textPath></text><line stroke="#e1ed5e" stroke-width="0.3" x1="102.19456741930631" x2="102.32365962044197" y1="184.97166512339345" y2="189.96999836594603" /><path d="M 102.22038585953345 185.97133177190398 a86.0,86.0 0 0,1 -42.740103519485714,-10.115201625700543" fill="none" id="id91" stroke="none" /><text fill="#e1ed5e" style="font-size:6.75px; font-family:Arial;" text-anchor="middle"><textPath startOffset="22.20632615414155" xlink:href="#id91">July</textPath></text><path d="M 96.58105272829116 120.7198165907248 l -3.1682246931751843 19.200364715769574 a40.460001359841016,40.460001359841016 0 0,0 -0.6861843380261731,-0.11930194272587517 l 3.498258002673407 -19.142984194522693" fill="#ff0d01" stroke="none" /><path d="M 96.22490169976321 120.6578951692458 l -3.425930270924211 18.747196169556428 a40.057658891927574,40.057658891927574 0 0,0 -0.6772269614797332,-0.12979215898134047 l 3.7481248469756396 -18.68544681222662" fill="#ff0400" stroke="none" /><path d="M 95.86986931433489 120.58985236759428 l -4.1125324303934 20.50212016114638 a41.91052017748775,41.91052017748775 0 0,0 -0.7061095187967208,-0.14797211503811125 l 4.464833410619507 -20.428292065381726" fill="#ff2a04" stroke="none" /><path d="M 95.51606077576429 120.51570834832081 l -4.551707174400408 20.825772207667477 a42.31738319417145,42.31738319417145 0 0,0 -0.7102869003031684,-0.16165898601338752 l 4.909514224096439 -20.744336488076403" fill="#ff3204" stroke="none" /><path d="M 94.81253420990036 120.34920634021253 l -5.299623322343569 20.789173919487286 a42.454038305489675,42.454038305489675 0 0,0 -0.7065758156674176,-0.18661309488541958 l 5.656689580822476 -20.694869475298287" fill="#ff3505" stroke="none" /><path d="M 94.46302465271185 120.25689768951611 l -5.685527187363611 20.800371199375927 a42.5634102458326,42.5634102458326 0 0,0 -0.7050706573191379,-0.199260010518826 l 6.042729012787364 -20.69942239551858" fill="#ff3705" stroke="none" /><path d="M 94.11515582081647 120.15858648285463 l -7.10860237849035 24.350581163375036 a46.366967315183615,46.366967315183615 0 0,0 -0.7642270355760102,-0.23025533676908616 l 7.526704388506606 -24.224610457500226" fill="#ff800b" stroke="none" /><path d="M 93.76903079525671 120.05430185196036 l -7.538717496983324 24.263274507290273 a46.407454640625545,46.407454640625545 0 0,0 -0.7608140981632266,-0.24358864851452114 l 7.955252940237491 -24.129913012116045" fill="#ff810b" stroke="none" /><path d="M 93.42475214034765 119.94407469862007 l -8.160862805421004 24.7535698836929 a47.064130595816394,47.064130595816394 0 0,0 -0.7672131617115766,-0.260280359601656 l 8.585745700069808 -24.609426537193123" fill="#ff8e0d" stroke="none" /><path d="M 93.08242187328487 119.8279376855182 l -8.532973321777057 24.458164432286164 a46.903927136766484,46.903927136766484 0 0,0 -0.760023282585247,-0.2725173088018824 l 8.952716164992031 -24.307659582444327" fill="#ff8b0c" stroke="none" /><path d="M 92.7421414339146 119.70592522655815 l -11.107406171674088 30.157892095447128 a53.13834045969356,53.13834045969356 0 0,0 -0.8556026347048147,-0.32351570543815783 l 11.624879027139185 -29.962228139902336" fill="#fffa17" stroke="none" /><path d="M 92.40401165467489 119.57807347666478 l -11.715060019640372 30.194662685233542 a53.38765638231348,53.38765638231348 0 0,0 -0.8538946942065943,-0.3397823212028951 l 12.233075789888824 -29.988533519624582" fill="#ffff18" stroke="none" /><path d="M 91.7346041902142 119.30500536409082 l -13.802211348128832 32.23702412369379 a56.06746016537314,56.06746016537314 0 0,0 -0.8839417564383615,-0.3874940893689018 l 14.355073779224936 -31.99466548103044" fill="#d3ff1c" stroke="none" /><path d="M 91.40352486487194 119.15986991738527 l -14.401292361389228 32.09767770500759 a56.18036577030928,56.18036577030928 0 0,0 -0.8789070554780558,-0.4034631215011252 l 14.951667412634702 -31.84502751317239" fill="#d1ff1c" stroke="none" /><path d="M 91.07499286063937 119.00905698771935 l -11.378164655055558 24.233950400974084 a47.772130713755814,47.772130713755814 0 0,0 -0.7413491534404559,-0.355892645365286 l 11.793626476496256 -24.034503479109233" fill="#ff9b0e" stroke="none" /><path d="M 90.42595943632237 118.69057910512821 l -26.132569143847018 51.016375745924975 a78.3199944548789,78.3199944548789 0 0,0 -1.1946003208558156,-0.6249584275738389 l 27.00686036722933 -50.55898789940642" fill="#43ffe0" stroke="none" /><path d="M 90.10565033884886 118.52300852407294 l -13.42909033244751 25.140323843126716 a49.50221658212429,49.50221658212429 0 0,0 -0.7481368716716268,-0.40794387324520676 l 13.859850015987778 -24.905439318121743" fill="#ffba11" stroke="none" /><line stroke="#e1ed5e" stroke-width="0.3" x1="58.666819895761336" x2="56.23545636021788" y1="174.27360380694188" y2="178.64263932499728" /><path d="M 58.180547188652646 175.14741091055294 a86.0,86.0 0 0,1 -31.652253787137756,-30.449443065178592" fill="none" id="id92" stroke="none" /><text fill="#e1ed5e" style="font-size:6.75px; font-family:Arial;" text-anchor="middle"><textPath startOffset="22.20632615414155" xlink:href="#id92">August</textPath></text><path d="M 89.4739219176387 118.17145234162733 l -15.795068795473957 27.267453044134527 a52.511873853641845,52.511873853641845 0 0,0 -0.7782562997979995,-0.4598075397970566 l 16.26209296630034 -26.991526932043723" fill="#ffef16" stroke="none" /><path d="M 89.1626897886671 117.98757091392108 l -18.05641296887025 29.969706725655413 a55.988817792605985,55.988817792605985 0 0,0 -0.8212247833963183,-0.5044633359526457 l 18.569616952198878 -29.65445492287439" fill="#d4ff1c" stroke="none" /><path d="M 88.54995079064634 117.60387380957326 l -17.953492166945104 27.60258971549904 a53.92766071239699,53.92766071239699 0 0,0 -0.7737985052577214,-0.5128314553419828 l 18.425965370942787 -27.289460239065736" fill="#f6ff19" stroke="none" /><path d="M 88.24862548938628 117.40417183066458 l -18.590398280196695 27.532990781359864 a54.221506431569104,54.221506431569104 0 0,0 -0.7690239236199302,-0.5289416670003019 l 19.061579088439515 -27.20890832499446" fill="#f1ff19" stroke="none" /><path d="M 87.95078237400918 117.19931262002967 l -22.534189693350047 32.16578745652025 a60.27375189403119,60.27375189403119 0 0,0 -0.8446151443061797,-0.6026104795395097 l 23.084532165505117 -31.77313271513652" fill="#90ff24" stroke="none" /><path d="M 87.36589467227662 116.77436683061367 l -20.059021385117404 26.632466189651108 a54.34145459141678,54.34145459141678 0 0,0 -0.7423334368644373,-0.5691896246660141 l 20.51448355047533 -26.283237223157727" fill="#efff19" stroke="none" /><path d="M 87.07902340077011 116.55440617244103 l -19.683928100829153 25.219126305798998 a52.99158259771552,52.99158259771552 0 0,0 -0.7142319239682198,-0.5674290366391486 l 20.11511751751473 -24.87656335515472" fill="#fff817" stroke="none" /><path d="M 86.79598089348748 116.32954008644616 l -14.57289010685063 18.02243629425078 a44.177086444302546,44.177086444302546 0 0,0 -0.5871973552603972,-0.48322344718688426 l 14.880957590655717 -17.768917728206716" fill="#ff5708" stroke="none" /><path d="M 86.51685102203217 116.09983520530335 l -22.419544491350642 26.77052462140145 a55.91843300757799,55.91843300757799 0 0,0 -0.73262340076656,-0.6243575560585184 l 22.87703336869426 -26.38064267511998" fill="#d5ff1c" stroke="none" /><path d="M 85.97065885151581 115.62618273729859 l -40.259838960173056 44.84227690434697 a81.26345850567488,81.26345850567488 0 0,0 -1.0328216041450566,-0.9434580474226273 l 41.02576011378497 -44.142626090337764" fill="#48f6ff" stroke="none" /><path d="M 85.44109423537348 115.13401014063109 l -24.369908033133367 25.332565596776405 a56.15154757984857,56.15154757984857 0 0,0 -0.6907978567346064,-0.6760910964906258 l 24.802355842243767 -24.90932439736321" fill="#d1ff1c" stroke="none" /><path d="M 85.18274418774928 114.88116024355367 l -23.888406918665677 23.991433759682234 a54.856238405306854,54.856238405306854 0 0,0 -0.6633931436769704,-0.6720137521061016 l 24.297840687398182 -23.57667951359547" fill="#e7ff1a" stroke="none" /><path d="M 84.9287848128048 114.62390073753433 l -13.521654415128312 13.120331009677475 a39.84086579554303,39.84086579554303 0 0,0 -0.473335000160865,-0.49628985530027364 l 13.745495966668136 -12.885634037794702" fill="#ff0000" stroke="none" /><path d="M 84.67929136418377 114.36230785411682 l -26.73838150809607 25.065737876010505 a57.650133164033136,57.650133164033136 0 0,0 -0.6724574856216413,-0.7298197886758869 l 27.16588540171344 -24.601766832533276" fill="#b9ff1f" stroke="none" /><path d="M 84.43433777217949 114.09645910891817 l -46.69698668346152 42.28937732675451 a84.0,84.0 0 0,0 -0.9613646014066468,-1.0801033210365434 l 47.4180101345165 -41.4792998359771" fill="#4dd2ff" stroke="none" /><line stroke="#e1ed5e" stroke-width="0.3" x1="26.63291911575756" x2="22.317208475507996" y1="142.92168965132927" y2="145.44649492493687" /><path d="M 25.769776987707644 143.4266507060508 a86.0,86.0 0 0,1 -11.730757126820373,-40.83630448921669" fill="none" id="id93" stroke="none" /><text fill="#e1ed5e" style="font-size:6.75px; font-family:Arial;" text-anchor="middle"><textPath startOffset="21.46611528233685" xlink:href="#id93">September</textPath></text><line stroke="#e1ed5e" stroke-width="0.3" x1="15.007084014347285" x2="10.007500721073583" y1="101.09737516637583" y2="101.16192664675087" /><path d="M 14.007167355692545 101.11028546245083 a86.0,86.0 0 0,1 10.666146001902534,-42.60595125391555" fill="none" id="id94" stroke="none" /><text fill="#e1ed5e" style="font-size:6.75px; font-family:Arial;" text-anchor="middle"><textPath startOffset="22.20632615414155" xlink:href="#id94">October</textPath></text><line stroke="#e1ed5e" stroke-width="0.3" x1="26.266209847984243" x2="21.928928074336255" y1="57.711370442889674" y2="55.22380399835377" /><path d="M 25.398753493254645 57.213857153982495 a86.0,86.0 0 0,1 29.58750427330803,-30.492523968695096" fill="none" id="id95" stroke="none" /><text fill="#e1ed5e" style="font-size:6.75px; font-family:Arial;" text-anchor="middle"><textPath startOffset="21.46611528233685" xlink:href="#id95">November</textPath></text><line stroke="#e1ed5e" stroke-width="0.3" x1="56.762969772571076" x2="54.21961505331055" y1="26.818313649435495" y2="22.513508569990535" /><path d="M 56.25429882871897 25.957352633546506 a86.0,86.0 0 0,1 42.265352541879196,-11.944610805530505" fill="none" id="id96" stroke="none" /><text fill="#e1ed5e" style="font-size:6.75px; font-family:Arial;" text-anchor="middle"><textPath startOffset="22.20632615414155" xlink:href="#id96">December</textPath></text></svg>