<?xml version="1.0" encoding="utf-8" ?>
<svg baseProfile="full" height="200mm" version="1.1" viewBox="0,0,200,200" width="200mm" xmlns="http://www.w3.org/2000/svg" xmlns:ev="http://www.w3.org/2001/xml-events" xmlns:xlink="http://www.w3.org/1999/xlink"><defs /><rect fill="#1a1a1a" height="200" width="200" x="0" y="0" /><text alignment-baseline="middle" fill="#e1ed5e" style="dominant-baseline: central; font-size:9.0px; font-family:Arial;" text-anchor="middle" x="100.0" y="100.0">2023</text><line stroke="#e1ed5e" stroke-width="0.3" x1="100.0" x2="100.0" y1="15.0" y2="10.0" /><path d="M 100.0 14.0 a86.0,86.0 0 0,1 42.46469731375804,11.215312516191453" fill="none" id="id97" stroke="none" /><text fill="#e1ed5e" style="font-size:6.75px; font-family:Arial;" text-anchor="middle"><textPath startOffset="22.20632615414155" xlink:href="#id97">January</textPath></text><path d="M 109.41281617654863 81.2277094730956 l 10.822034598165288 -21.582741419631127 a45.14396736310227,45.14396736310227 0 0,0 0.6916475260816027,0.35428872659465616 l -11.191942611835646 21.39326016772397" fill="#e3ff1b" stroke="none" /><line stroke="#e1ed5e" stroke-width="0.3" x1="143.23703022742887" x2="145.7803849466894" y1="26.81831364943548" y2="22.513508569990506" /><path d="M 143.74570117128098 25.957352633546492 a86.0,86.0 0 0,1 28.547481713284135,27.462654790039103" fill="none" id="id98" stroke="none" /><text fill="#e1ed5e" style="font-size:6.75px; font-family:Arial;" text-anchor="middle"><textPath startOffset="19.985693538727396" xlink:href="#id98">February</textPath></text><path d="M 110.68208982089419 81.91981866633111 l 5.871668882971227 -9.938208713404556 a32.54315762269765,32.54315762269765 0 0,0 0.4798379088117066,0.2890969711160466 l -6.041868858000571 9.835665132829895" fill="#ff740a" stroke="none" /><path d="M 111.2981086023043 82.29822771554956 l 9.653459314636901 -15.124950959495745 a38.943060448722264,38.943060448722264 0 0,0 0.561953877754232,0.3655104338554139 l -9.912380218175413 14.956541601480803" fill="#ffcb13" stroke="none" /><path d="M 112.48926042617603 83.11751280151076 l 12.404092621871284 -16.76736073648636 a41.85679505195911,41.85679505195911 0 0,0 0.5755385982190608,0.4334837400121353 l -12.690877373848728 16.551360406968378" fill="#fff116" stroke="none" /><path d="M 113.06298171725822 83.55741782278167 l 12.964035494149565 -16.318036997579895 a41.840934425978986,41.840934425978986 0 0,0 0.5600640222870799,0.4528661561807808 l -13.243002915001137 16.092464744134983" fill="#fff116" stroke="none" /><path d="M 113.89432698308785 84.25364557470407 l 10.887685104278063 -12.338945868458094 a37.45573675271507,37.45573675271507 0 0,0 0.4797705541894003,0.4307427406217593 l -11.098466646063454 12.149704119067037" fill="#ffb811" stroke="none" /><path d="M 114.16331599549186 84.49514656593476 l 13.935689149701956 -15.255665963930818 a41.66249685009433,41.66249685009433 0 0,0 0.5253286051108098,0.48823568607085477 l -14.196225638607611 15.013525691785324" fill="#ffef16" stroke="none" /><path d="M 114.68862486808459 84.99185889309783 l 14.475415166490944 -14.790293533312726 a41.69517883575371,41.69517883575371 0 0,0 0.5086101011114875,0.5064259677015569 l -14.727861067769753 14.538931714961048" fill="#ffef16" stroke="none" /><path d="M 115.19652480421416 85.50635884689758 l 22.44904161771443 -21.41070788421222 a52.02221593724313,52.02221593724313 0 0,0 0.6124567506283564,0.6533261592583277 l -22.81426569031325 21.021112308075836" fill="#91ff23" stroke="none" /><path d="M 115.9244219780498 86.31012108654704 l 24.83193852899512 -21.347476983267065 a53.74660203225534,53.74660203225534 0 0,0 0.5970719912027098,0.7067449113834945 l -25.19572113368495 20.916873122254465" fill="#7eff26" stroke="none" /><path d="M 116.38621287248628 86.86637796730983 l 25.68546346147518 -20.587012475830456 a53.917595840382624,53.917595840382624 0 0,0 0.5742119187564492,0.729190824687366 l -26.036029460825592 20.141829257190054" fill="#7cff26" stroke="none" /><path d="M 116.82858285166822 87.43820079747576 l 26.987808091060497 -20.14521538410792 a54.67746261867139,54.67746261867139 0 0,0 0.5565056197380321,0.7590730399090814 l -27.330576323312158 19.677679900527345" fill="#74ff27" stroke="none" /><path d="M 117.2510076193507 88.02491185347247 l 51.75302285805209 -35.92526443958259 a84.0,84.0 0 0,0 0.8143021373250665,1.1948879069183742 l -52.36374946104589 35.02909850939381" fill="#4dd2ff" stroke="none" /><line stroke="#e1ed5e" stroke-width="0.3" x1="172.23445277983987" x2="176.4835382374775" y1="55.19839476539836" y2="52.563006222186495" /><path d="M 173.08426987136738 54.67131705675599 a86.0,86.0 0 0,1 12.851231095245387,41.99856678651699" fill="none" id="id99" stroke="none" /><text fill="#e1ed5e" style="font-size:6.75px; font-family:Arial;" text-anchor="middle"><textPath startOffset="22.20632615414155" xlink:href="#id99">March</textPath></text><path d="M 117.84615892207809 88.93136811851018 l 28.897127642732674 -17.922717695522273 a55.00393794244678,55.00393794244678 0 0,0 0.4921129034014615,0.8089042208164449 l -29.201356344420358 17.422645701498745" fill="#70ff27" stroke="none" /><path d="M 118.03404312379186 89.2402003453031 l 14.564503162750956 -8.689739456963732 a37.95984446295705,37.95984446295705 0 0,0 0.3299620173963773,0.5640120464898377 l -14.71192485461766 8.437747998119999" fill="#ffbe11" stroke="none" /><path d="M 118.56541770881063 90.18545643968196 l 28.900319546606926 -15.278053504967756 a53.69017266391611,53.69017266391611 0 0,0 0.42489524898797354,0.8207623796032876 l -29.159024228755015 14.778318403104123" fill="#7fff26" stroke="none" /><path d="M 118.73160827565052 90.50648371742162 l 29.36016016159563 -14.880257714739 a53.9156660933908,53.9156660933908 0 0,0 0.4124291382309843,0.8314319759065186 l -29.611949312780023 14.372666150333531" fill="#7cff26" stroke="none" /><path d="M 118.89224826269711 90.83032412892265 l 8.326811245694119 -4.041560279165857 a30.255808717316345,30.255808717316345 0 0,0 0.2233769157290983,0.470488752741367 l -8.395146355264973 3.89762911078395" fill="#ff5307" stroke="none" /><path d="M 119.04729006885535 91.15688171328212 l 38.75772443071214 -17.99411572070419 a63.73112921064823,63.73112921064823 0 0,0 0.4533944305419239,0.9989945279899103 l -39.06172117821741 17.324299183872217" fill="#33ff50" stroke="none" /><path d="M 119.34039704204932 91.81776055985345 l 30.32094617002909 -12.827722258006148 a53.92279202884148,53.92279202884148 0 0,0 0.35429408964409276,0.8579512404282791 l -30.53726194655938 12.303896447124565" fill="#7cff26" stroke="none" /><path d="M 119.61058180528143 92.48833698450437 l 3.434821540224613 -1.3156785548088286 a24.678180130550274,24.678180130550274 0 0,0 0.14853374917294843,0.39799660144951454 l -3.4569598778991866 1.2563588163299806" fill="#ff0000" stroke="none" /><path d="M 119.85752413597 93.16781622104841 l 11.504560853334524 -3.9582615389465836 a33.166460242764984,33.166460242764984 0 0,0 0.18109314702125853,0.5414454596227407 l -11.570991294127554 3.759642976401529" fill="#ff7d0b" stroke="none" /><line stroke="#e1ed5e" stroke-width="0.3" x1="184.98032266829074" x2="189.97916517819016" y1="98.17113171792111" y2="98.06355123074" /><path d="M 185.9800911702706 98.14961562048488 a86.0,86.0 0 0,1 -9.607161424134198,41.387399972396054" fill="none" id="id100" stroke="none" /><text fill="#e1ed5e" style="font-size:6.75px; font-family:Arial;" text-anchor="middle"><textPath startOffset="21.466115282336823" xlink:href="#id100">April</textPath></text><line stroke="#e1ed5e" stroke-width="0.3" x1="174.80103733775053" x2="179.2010983576182" y1="140.37084112569926" y2="142.7455964860345" /><path d="M 175.68104954172406 140.8457921977663 a86.0,86.0 0 0,1 -30.038265399797805,32.042727171017184" fill="none" id="id101" stroke="none" /><text fill="#e1ed5e" style="font-size:6.75px; font-family:Arial;" text-anchor="middle"><textPath startOffset="22.206326154141568" xlink:href="#id101">May</textPath></text><line stroke="#e1ed5e" stroke-width="0.3" x1="143.8653032363475" x2="146.44561519142675" y1="172.8068346515853" y2="177.08958963109032" /><path d="M 144.38136562736335 173.6633856474863 a86.0,86.0 0 0,1 -40.68145358897372,12.25698825130547" fill="none" id="id102" stroke="none" /><text fill="#e1ed5e" style="font-size:6.75px; font-family:Arial;" text-anchor="middle"><textPath startOffset="21.466115282336833" xlink:href="#id102">June</textPath></text><line stroke="#e1ed5e" stroke-width="0.3" x1="102.19456741930631" x2="102.32365962044197" y1="184.97166512339345" y2="189.96999836594603" /><path d="M 102.22038585953345 185.97133177190398 a86.0,86.0 0 0,1 -42.740103519485714,-10.115201625700543" fill="none" id="id103" stroke="none" /><text fill="#e1ed5e" style="font-size:6.75px; font-family:Arial;" text-anchor="middle"><textPath startOffset="22.20632615414155" xlink:href="#id103">July</textPath></text><line stroke="#e1ed5e" stroke-width="0.3" x1="58.666819895761336" x2="56.23545636021788" y1="174.27360380694188" y2="178.64263932499728" /><path d="M 58.180547188652646 175.14741091055294 a86.0,86.0 0 0,1 -31.652253787137756,-30.449443065178592" fill="none" id="id104" stroke="none" /><text fill="#e1ed5e" style="font-size:6.75px; font-family:Arial;" text-anchor="middle"><textPath startOffset="22.20632615414155" xlink:href="#id104">August</textPath></text><line stroke="#e1ed5e" stroke-width="0.3" x1="26.63291911575756" x2="22.317208475507996" y1="142.92168965132927" y2="145.44649492493687" /><path d="M 25.769776987707644 143.4266507060508 a86.0,86.0 0 0,1 -11.730757126820373,-40.83630448921669" fill="none" id="id105" stroke="none" /><text fill="#e1ed5e" style="font-size:6.75px; font-family:Arial;" text-anchor="middle"><textPath startOffset="21.46611528233685" xlink:href="#id105">September</textPath></text><line stroke="#e1ed5e" stroke-width="0.3" x1="15.007084014347285" x2="10.007500721073583" y1="101.09737516637583" y2="101.16192664675087" /><path d="M 14.007167355692545 101.11028546245083 a86.0,86.0 0 0,1 10.666146001902534,-42.60595125391555" fill="none" id="id106" stroke="none" /><text fill="#e1ed5e" style="font-size:6.75px; font-family:Arial;" text-anchor="middle"><textPath startOffset="22.20632615414155" xlink:href="#id106">October</textPath></text><line stroke="#e1ed5e" stroke-width="0.3" x1="26.266209847984243" x2="21.928928074336255" y1="57.711370442889674" y2="55.22380399835377" /><path d="M 25.398753493254645 57.213857153982495 a86.0,86.0 0 0,1 29.58750427330803,-30.492523968695096" fill="none" id="id107" stroke="none" /><text fill="#e1ed5e" style="font-size:6.75px; font-family:Arial;" text-anchor="middle"><textPath startOffset="21.46611528233685" xlink:href="#id107">November</textPath></text><line stroke="#e1ed5e" stroke-width="0.3" x1="56.762969772571076" x2="54.21961505331055" y1="26.818313649435495" y2="22.513508569990535" /><path d="M 56.25429882871897 25.957352633546506 a86.0,86.0 0 0,1 42.265352541879196,-11.944610805530505" fill="none" id="id108" stroke="none" /><text fill="#e1ed5e" style="font-size:6.75px; font-family:Arial;" text-anchor="middle"><textPath startOffset="22.20632615414155" xlink:href="#id108">December</textPath></text></svg>