<?xml version="1.0" encoding="utf-8" ?>
<svg baseProfile="full" height="200mm" version="1.1" viewBox="0,0,200,200" width="200mm" xmlns="http://www.w3.org/2000/svg" xmlns:ev="http://www.w3.org/2001/xml-events" xmlns:xlink="http://www.w3.org/1999/xlink"><defs /><rect fill="#1a1a1a" height="200" width="200" x="0" y="0" /><text alignment-baseline="middle" fill="#e1ed5e" style="dominant-baseline: central; font-size:9.0px; font-family:Arial;" text-anchor="middle" x="100.0" y="100.0">2022</text><line stroke="#e1ed5e" stroke-width="0.3" x1="100.0" x2="100.0" y1="15.0" y2="10.0" /><path d="M 100.0 14.0 a86.0,86.0 0 0,1 42.46469731375804,11.215312516191453" fill="none" id="id85" stroke="none" /><text fill="#e1ed5e" style="font-size:6.75px; font-family:Arial;" text-anchor="middle"><textPath startOffset="22.20632615414155" xlink:href="#id85">January</textPath></text><line stroke="#e1ed5e" stroke-width="0.3" x1="143.23703022742887" x2="145.7803849466894" y1="26.81831364943548" y2="22.513508569990506" /><path d="M 143.74570117128098 25.957352633546492 a86.0,86.0 0 0,1 28.547481713284135,27.462654790039103" fill="none" id="id86" stroke="none" /><text fill="#e1ed5e" style="font-size:6.75px; font-family:Arial;" text-anchor="middle"><textPath startOffset="19.985693538727396" xlink:href="#id86">February</textPath></text><line stroke="#e1ed5e" stroke-width="0.3" x1="172.23445277983987" x2="176.4835382374775" y1="55.19839476539836" y2="52.563006222186495" /><path d="M 173.08426987136738 54.67131705675599 a86.0,86.0 0 0,1 12.851231095245387,41.99856678651699" fill="none" id="id87" stroke="none" /><text fill="#e1ed5e" style="font-size:6.75px; font-family:Arial;" text-anchor="middle"><textPath startOffset="22.20632615414155" xlink:href="#id87">March</textPath></text><line stroke="#e1ed5e" stroke-width="0.3" x1="184.98032266829074" x2="189.97916517819016" y1="98.17113171792111" y2="98.06355123074" /><path d="M 185.9800911702706 98.14961562048488 a86.0,86.0 0 0,1 -9.607161424134198,41.387399972396054" fill="none" id="id88" stroke="none" /><text fill="#e1ed5e" style="font-size:6.75px; font-family:Arial;" text-anchor="middle"><textPath startOffset="21.466115282336823" xlink:href="#id88">April</textPath></text><line stroke="#e1ed5e" stroke-width="0.3" x1="174.80103733775053" x2="179.2010983576182" y1="140.37084112569926" y2="142.7455964860345" /><path d="M 175.68104954172406 140.8457921977663 a86.0,86.0 0 0,1 -30.038265399797805,32.042727171017184" fill="none" id="id89" stroke="none" /><text fill="#e1ed5e" style="font-size:6.75px; font-family:Arial;" text-anchor="middle"><textPath startOffset="22.206326154141568" xlink:href="#id89">May</textPath></text><line stroke="#e1ed5e" stroke-width="0.3" x1="143.8653032363475" x2="146.44561519142675" y1="172.8068346515853" y2="177.08958963109032" /><path d="M 144.38136562736335 173.6633856474863 a86.0,86.0 0 0,1 -40.68145358897372,12.25698825130547" fill="none" id="id90" stroke="none" /><text fill="#e1ed5e" style="font-size:6.75px; font-family:Arial;" text-anchor="middle"><textPath startOffset="21.466115282336833" xlink:href="#id90">June</textPath></text><line stroke="#e1ed5e" stroke-width="0.3" x1="102.19456741930631" x2="102.32365962044197" y1="184.97166512339345" y2="189.96999836594603" /><path d="M 102.22038585953345 185.97133177190398 a86.0,86.0 0 0,1 -42.740103519485714,-10.115201625700543" fill="none" id="id91" stroke="none" /><text fill="#e1ed5e" style="font-size:6.75px; font-family:Arial;" text-anchor="middle"><textPath startOffset="22.20632615414155" xlink:href="#id91">July</textPath></text><path d="M 96.58105272829116 120.7198165907248 l -1.397911237178119 8.47174938441414 a29.58630848848038,29.58630848848038 0 0,0 -0.5017711523103575,-0.08723934656774887 l 1.5435313609605263 -8.446431459325387" fill="#ff0500" stroke="none" /><path d="M 96.22490169976321 120.6578951692458 l -1.5116182996206522 8.271798476749149 a29.40878349844361,29.40878349844361 0 0,0 -0.49719383609509554,-0.09528838201892582 l 1.6537797502874427 -8.244552896381755" fill="#ff0200" stroke="none" /><path d="M 95.86986931433489 120.58985236759428 l -1.814566785648272 9.046121072467088 a30.226318825908358,30.226318825908358 0 0,0 -0.5092537947697167,-0.10671908407589811 l 1.9700120418473754 -9.013546007664647" fill="#ff0f01" stroke="none" /><path d="M 95.51606077576429 120.51570834832081 l -2.008343228037193 9.188925600738754 a30.405838411195194,30.405838411195194 0 0,0 -0.5103545419410876,-0.11615503217405324 l 2.1662179193711437 -9.152993834987015" fill="#ff1202" stroke="none" /><path d="M 94.81253420990036 120.34920634021253 l -2.338345197256398 9.172777390538018 a30.466134549957417,30.466134549957417 0 0,0 -0.5070573902762479,-0.13391846534486201 l 2.495893030344135 -9.131167575889574" fill="#ff1302" stroke="none" /><path d="M 94.46302465271185 120.25689768951611 l -2.5086170061164386 9.177717950283 a30.514392574322514,30.514392574322514 0 0,0 -0.5054764809917531,-0.14285270259636712 l 2.6662246552128055 -9.133176454348112" fill="#ff1402" stroke="none" /><path d="M 94.11515582081647 120.15858648285463 l -3.1365184315774477 10.744172000624454 a32.192630604582085,32.192630604582085 0 0,0 -0.5306035757546047,-0.15986650476736025 l 3.320996981772298 -10.688590126751368" fill="#ff2f04" stroke="none" /><path d="M 93.76903079525671 120.05430185196036 l -3.326297508395053 10.705649809984301 a32.21049476911577,32.21049476911577 0 0,0 -0.5280659910984037,-0.1690700545753354 l 3.510084844584397 -10.646806908749259" fill="#ff2f04" stroke="none" /><path d="M 93.42475214034765 119.94407469862007 l -3.6008057904926427 10.921982135682708 a32.50023895895288,32.50023895895288 0 0,0 -0.5298007372582055,-0.17973717513285917 l 3.788276260688074 -10.858381973651726" fill="#ff3404" stroke="none" /><path d="M 93.08242187328487 119.8279376855182 l -3.7649915799054994 10.791640812059192 a32.42955261649645,32.42955261649645 0 0,0 -0.5254829720439433,-0.18841949798632393 l 3.9501941125791693 -10.72523377303291" fill="#ff3304" stroke="none" /><path d="M 92.7421414339146 119.70592522655815 l -4.900904893750932 13.306523473743923 a35.18035386493898,35.18035386493898 0 0,0 -0.5664535850441401,-0.214184276357158 l 5.129228699555354 -13.22019094728013" fill="#ff5e08" stroke="none" /><path d="M 92.40401165467489 119.57807347666478 l -5.169019129529861 13.322747708335248 a35.2903591718822,35.2903591718822 0 0,0 -0.5644422792737208,-0.22460323168406512 l 5.39758248484544 -13.231797632245117" fill="#ff6008" stroke="none" /><path d="M 91.7346041902142 119.30500536409082 l -6.089929916593135 14.223895916463613 a36.47276515143322,36.47276515143322 0 0,0 -0.575018022843004,-0.2520710029923713 l 6.333868614093882 -14.11696036017679" fill="#ff720a" stroke="none" /><path d="M 91.40352486487194 119.15986991738527 l -6.354261572810816 14.162412296011563 a36.52258232955843,36.52258232955843 0 0,0 -0.5713731986894887,-0.26228941143265116 l 6.5971027672677245 -14.050935814244838" fill="#ff730a" stroke="none" /><path d="M 91.07499286063937 119.00905698771935 l -5.020371271023855 10.692711176614031 a32.81262883550517,32.81262883550517 0 0,0 -0.5092009555762431,-0.24444740276771088 l 5.20368489460034 -10.604709497346759" fill="#ff3905" stroke="none" /><path d="M 90.42595943632237 118.69057910512821 l -11.530436001338867 22.509882297475798 a46.291218939133515,46.291218939133515 0 0,0 -0.7060713599686785,-0.3693831645422826 l 11.91619826383404 -22.3080697139888" fill="#fdff18" stroke="none" /><path d="M 90.10565033884886 118.52300852407294 l -5.925298266012349 11.092629030481643 a33.575992141739476,33.575992141739476 0 0,0 -0.5074406654602808,-0.27669711031279326 l 6.11536174334127 -10.988991268409084" fill="#ff4506" stroke="none" /><line stroke="#e1ed5e" stroke-width="0.3" x1="58.666819895761336" x2="56.23545636021788" y1="174.27360380694188" y2="178.64263932499728" /><path d="M 58.180547188652646 175.14741091055294 a86.0,86.0 0 0,1 -31.652253787137756,-30.449443065178592" fill="none" id="id92" stroke="none" /><text fill="#e1ed5e" style="font-size:6.75px; font-family:Arial;" text-anchor="middle"><textPath startOffset="22.20632615414155" xlink:href="#id92">August</textPath></text><path d="M 89.4739219176387 118.17145234162733 l -6.969235549725456 12.031179196896284 a34.9039389028932,34.9039389028932 0 0,0 -0.5172965340115585,-0.3056279103826543 l 7.175299954765396 -11.90943271421988" fill="#ff5a08" stroke="none" /><path d="M 89.1626897886671 117.98757091392108 l -7.967005195902235 13.223490712945411 a36.438065890094094,36.438065890094094 0 0,0 -0.5344610575421921,-0.32830963394634677 l 8.193445453376736 -13.084392612170687" fill="#ff720a" stroke="none" /><path d="M 88.54995079064634 117.60387380957326 l -7.9215935980883305 12.179051069715186 a35.52862450791556,35.52862450791556 0 0,0 -0.509793975390592,-0.3378636486730581 l 8.130062272218884 -12.04088939995081" fill="#ff6409" stroke="none" /><path d="M 88.24862548938628 117.40417183066458 l -8.202614768922508 12.148342031830861 a35.65827763312232,35.65827763312232 0 0,0 -0.5057415475824315,-0.3478536480248337 l 8.41051320112783 -12.005347594440927" fill="#ff6609" stroke="none" /><path d="M 87.95078237400918 117.19931262002967 l -9.942728197559562 14.192464263981535 a38.32870121777564,38.32870121777564 0 0,0 -0.5370994917826886,-0.3832062265109741 l 10.185555017191138 -14.01921377562634" fill="#ff8f0d" stroke="none" /><path d="M 87.36589467227662 116.77436683061367 l -8.850613235057361 11.75100485785559 a35.71120218765,35.71120218765 0 0,0 -0.4878341894570159,-0.3740504541586416 l 9.051576153007863 -11.596915061869582" fill="#ff6709" stroke="none" /><path d="M 87.07902340077011 116.55440617244103 l -8.685111363227966 11.12739892805999 a35.11560010399353,35.11560010399353 0 0,0 -0.4732955951509014,-0.3760146453688596 l 8.875364451096225 -10.976250368685998" fill="#ff5d08" stroke="none" /><path d="M 86.79598089348748 116.32954008644616 l -6.429975399917732 7.952013716492701 a31.22639260887412,31.22639260887412 0 0,0 -0.4150580454727673,-0.34156451441621144 l 6.565903573935188 -7.840154083219309" fill="#ff1f03" stroke="none" /><path d="M 86.51685102203217 116.09983520530335 l -9.892143459517227 11.811920181679282 a36.40701011234924,36.40701011234924 0 0,0 -0.47699168459597574,-0.40650266172629806 l 10.09400062069026 -11.639893129730034" fill="#ff710a" stroke="none" /><path d="M 85.97065885151581 115.62618273729859 l -17.76379099962259 19.785693521129733 a47.58995936044934,47.58995936044934 0 0,0 -0.6048467425789528,-0.5525131585680207 l 18.101737291668396 -19.476987595975135" fill="#ebff1a" stroke="none" /><path d="M 85.44109423537348 115.13401014063109 l -10.752699567647351 11.177451583711733 a36.50986692071545,36.50986692071545 0 0,0 -0.4491583741771549,-0.4395960044387419 l 10.9435078942003 -10.99070547635042" fill="#ff730a" stroke="none" /><path d="M 85.18274418774928 114.88116024355367 l -10.540247521528867 10.58570590681898 a35.938339511497176,35.938339511497176 0 0,0 -0.4346132494705645,-0.44026092713728215 l 10.720901396054964 -10.402704485701033" fill="#ff6a09" stroke="none" /><path d="M 84.9287848128048 114.62390073753433 l -5.966140183448735 5.789064832880695 a29.31312819147267,29.31312819147267 0 0,0 -0.34825873535053425,-0.36514789169495904 l 6.064905470178227 -5.685509824603235" fill="#ff0000" stroke="none" /><path d="M 84.67929136418377 114.36230785411682 l -11.797737721898484 11.05971957118977 a37.17108568860064,37.17108568860064 0 0,0 -0.433580521815299,-0.4705660232374379 l 11.986364651709511 -10.855002293150989" fill="#ff7d0b" stroke="none" /><path d="M 84.43433777217949 114.09645910891817 l -20.604044456754178 18.65928130213803 a48.797399638963,48.797399638963 0 0,0 -0.558477293495149,-0.6274551596189447 l 20.922180599897665 -18.30185197277822" fill="#dbff1b" stroke="none" /><path d="M 83.72743513129214 113.27417163493432 l -6.723477668793171 5.48460536364699 a29.676753307413193,29.676753307413193 0 0,0 -0.31949439767489457,-0.39861838560883756 l 6.816889978522926 -5.3680591444598935" fill="#ff0601" stroke="none" /><path d="M 83.50135304334701 112.99209946851258 l -11.15608996919521 8.785025277543317 a35.1998243836976,35.1998243836976 0 0,0 -0.37076005660929123,-0.479257352126098 l 11.30565684302257 -8.591689931303966" fill="#ff5f08" stroke="none" /><path d="M 83.28015986056508 112.70617746262583 l -11.7633995479144 8.939549718961873 a35.77474595726316,35.77474595726316 0 0,0 -0.3683755119097006,-0.49349919726883756 l 11.915536326519184 -8.735737642183727" fill="#ff6809" stroke="none" /><path d="M 83.06392112726016 112.41649034213515 l -12.031591438743744 8.820822105412761 a35.91864924060453,35.91864924060453 0 0,0 -0.3612735500089628,-0.5017773630848269 l 12.181644781128314 -8.612411136876796" fill="#ff6a09" stroke="none" /><path d="M 82.6465618267979 111.8261652097733 l -25.53775596258169 17.403682088011028 a51.90412803857978,51.90412803857978 0 0,0 -0.4967889786723035,-0.7426321179013264 l 25.833548046664728 -16.961513055903882" fill="#b2ff20" stroke="none" /><path d="M 82.24976979558568 111.22182372390057 l -7.39415635548133 4.674639047077552 a29.747902516018744,29.747902516018744 0 0,0 -0.2699060630958168,-0.43517451367187837 l 7.473527058245103 -4.546668202040409" fill="#ff0701" stroke="none" /><path d="M 82.05923443525364 110.91462005526583 l -12.491967976455761 7.599736126839586 a35.62208101203064,35.62208101203064 0 0,0 -0.3141852690883313,-0.5265925828949577 l 12.620934121242325 -7.383581450058517" fill="#ff6509" stroke="none" /><line stroke="#e1ed5e" stroke-width="0.3" x1="26.63291911575756" x2="22.317208475507996" y1="142.92168965132927" y2="145.44649492493687" /><path d="M 25.769776987707644 143.4266507060508 a86.0,86.0 0 0,1 -11.730757126820373,-40.83630448921669" fill="none" id="id93" stroke="none" /><text fill="#e1ed5e" style="font-size:6.75px; font-family:Arial;" text-anchor="middle"><textPath startOffset="21.46611528233685" xlink:href="#id93">September</textPath></text><path d="M 81.87401531095188 110.60418214915194 l -12.764923031440752 7.46781878432729 a35.78890047955419,35.78890047955419 0 0,0 -0.3065029671975738,-0.5344137585209673 l 12.891577994790703 -7.246985179948015" fill="#ff6809" stroke="none" /><path d="M 81.35079622478065 109.6543875284942 l -18.436657505204543 9.544355803644603 a41.76066154222402,41.76066154222402 0 0,0 -0.3249801361826545,-0.6412166395618948 l 18.598216311173466 -9.225584952380023" fill="#ffc112" stroke="none" /><path d="M 81.18737489456691 109.33194174019688 l -13.70960788296553 6.800606578176585 a36.303646563345914,36.303646563345914 0 0,0 -0.27287678014449535,-0.5622069905301441 l 13.824637919724744 -6.563610631681157" fill="#ff700a" stroke="none" /><path d="M 80.87730276802145 108.67885076344099 l -13.427134017009942 6.093915042459427 a35.745295129479736,35.745295129479736 0 0,0 -0.24946627048270545,-0.5624805827664817 l 13.530041372223929 -5.861886123200249" fill="#ff6709" stroke="none" /><path d="M 80.58989483394504 108.01547362559985 l -13.822409426854126 5.708014318075451 a35.954612325932764,35.954612325932764 0 0,0 -0.23130353002964849,-0.5740763924691484 l 13.918615571141162 -5.4692385577634965" fill="#ff6a09" stroke="none" /><path d="M 80.32549172779594 107.34259656027581 l -36.32283751719658 13.55581232950159 a59.769944199254795,59.769944199254795 0 0,0 -0.35143514427045175,-0.966998581643727 l 36.55079692247226 -12.928565950851745" fill="#53ff2b" stroke="none" /><path d="M 79.97269907076064 106.31721596034903 l -17.05895775589415 5.380910816850013 a38.887488390947304,38.887488390947304 0 0,0 -0.1958692931543278,-0.6401121829498023 l 17.149053821554606 -5.086471661348162" fill="#ff970d" stroke="none" /><path d="M 79.86692584326677 105.97154293290107 l -17.376097177671824 5.153813545559645 a39.12430818514982,39.12430818514982 0 0,0 -0.18594733493405805,-0.6473070669040311 l 17.462237149491987 -4.853949003151018" fill="#ff9b0e" stroke="none" /><path d="M 79.76711848015287 105.62410040840567 l -17.53941198452666 4.875401163626103 a39.20440906124789,39.20440906124789 0 0,0 -0.1751352871390293,-0.6517435553703188 l 17.620735348007464 -4.572766675080245" fill="#ff9c0e" stroke="none" /><path d="M 79.58551787078972 104.9243191809786 l -17.865365747948296 4.309429094061626 a39.37777114953576,39.37777114953576 0 0,0 -0.15327222517519834,-0.6602927345479336 l 17.93689853905405 -4.0012677021651175" fill="#ff9e0e" stroke="none" /><path d="M 79.35854240842038 103.8639653848113 l -32.099127641181504 6.008777119439517 a53.656689939367126,53.656689939367126 0 0,0 -0.16212894614075737,-0.9093052308163132 l 32.19780302966145 -5.455353137889991" fill="#9cff22" stroke="none" /><path d="M 79.18660465613746 102.79330883721812 l -15.188980765557405 2.038471546800202 a36.32515914904595,36.32515914904595 0 0,0 -0.07783701609881498,-0.6204376028308136 l 15.221819290903069 -1.7767161896819794" fill="#ff700a" stroke="none" /><path d="M 79.1416061653843 102.43462659150553 l -46.078162145267605 5.378320101540982 a67.39098353991012,67.39098353991012 0 0,0 -0.12456966098094316,-1.1533603502878955 l 46.1639141077496 -4.584363429368305" fill="#36ff6b" stroke="none" /><path d="M 79.04373962182676 101.35467743843564 l -18.379692785522714 1.188120146085738 a39.418054630490445,39.418054630490445 0 0,0 -0.037942034523659185,-0.6774805144370891 l 18.397421170933907 -0.8715679153132111" fill="#ff9f0e" stroke="none" /><path d="M 79.0235259727143 100.99374915477108 l -21.30610067876461 1.0093650397797365 a42.32999634123699,42.32999634123699 0 0,0 -0.02821569834256138,-0.7281218005842415 l 21.320318509958373 -0.6424659921814981" fill="#ffca12" stroke="none" /><path d="M 79.0095281055655 100.63252640178507 l -20.568011279933987 0.6197959832537621 a41.57734761995212,41.57734761995212 0 0,0 -0.015399333500554384,-0.7155465172516545 l 20.575632676119547 -0.2656596502119787" fill="#ffbf11" stroke="none" /><line stroke="#e1ed5e" stroke-width="0.3" x1="15.007084014347285" x2="10.007500721073583" y1="101.09737516637583" y2="101.16192664675087" /><path d="M 14.007167355692545 101.11028546245083 a86.0,86.0 0 0,1 10.666146001902534,-42.60595125391555" fill="none" id="id94" stroke="none" /><text fill="#e1ed5e" style="font-size:6.75px; font-family:Arial;" text-anchor="middle"><textPath startOffset="22.20632615414155" xlink:href="#id94">October</textPath></text><path d="M 79.00019446554 99.90962569577889 l -20.130659883880494 -0.08663386799141136 a41.130846300827955,41.130846300827955 0 0,0 0.0091408269965857,-0.7079671244303269 l 20.12618604976619 0.4331372504822103" fill="#ffb811" stroke="none" /><path d="M 79.03285615573316 98.82574320788736 l -22.738132060579836 -1.2734403030955015 a43.77376340901777,43.77376340901777 0 0,0 0.04860849010528277,-0.7519518273017306 l 22.712842979470143 1.664651194650244" fill="#ffde14" stroke="none" /><path d="M 79.05617556472873 98.46500227214037 l -12.553566706801972 -0.9200657898479839 a33.58723790669643,33.58723790669643 0 0,0 0.04722288267964602,-0.5762387798673368 l 12.53586934030283 1.1360184869230991" fill="#ff4506" stroke="none" /><path d="M 79.08570108090925 98.10471618934814 l -22.731365888352396 -2.059949029554709 a43.82451281308134,43.82451281308134 0 0,0 0.07454940777425066,-0.75070236256298 l 22.692539354895917 2.450926922822119" fill="#ffdf14" stroke="none" /><path d="M 79.21141760316559 97.0276538004421 l -59.425549986822986 -8.49664995372019 a81.02990131319933,81.02990131319933 0 0,0 0.20930450483028618,-1.3790551739104109 l 59.270489588553396 9.518304240022694" fill="#49f1ff" stroke="none" /><path d="M 79.32604984820605 96.31383870115002 l -17.807769423967496 -3.175121831459822 a39.08861660000024,39.08861660000024 0 0,0 0.12380719221495154,-0.6613829714114515 l 17.75047650784268 3.4811828803338463" fill="#ff9a0e" stroke="none" /><path d="M 79.3925641242962 95.95851677861259 l -29.03321067781682 -5.693926916727339 a50.58628273365089,50.58628273365089 0 0,0 0.17493387948385147,-0.8530397228660345 l 28.930897502417977 6.192842295756776" fill="#c3ff1e" stroke="none" /><path d="M 79.46518482838121 95.60439243477599 l -12.51434563576067 -2.678775138254203 a33.79783899463542,33.79783899463542 0 0,0 0.12667045886091516,-0.5678388294925255 l 12.466380789897716 2.8937921372966877" fill="#ff4906" stroke="none" /><path d="M 79.62865764111835 94.90015583598534 l -27.948710535424155 -6.9967931324699695 a49.811205020469174,49.811205020469174 0 0,0 0.21538286332470302,-0.8299580325895497 l 27.824131340229144 7.476847590608383" fill="#cdff1d" stroke="none" /><path d="M 79.81627453868168 94.20196356495316 l -8.461290568992073 -2.4306152548772317 a29.803483890492224,29.803483890492224 0 0,0 0.14588678045089723,-0.4918576994770252 l 8.418197891429468 2.575902341100796" fill="#ff0801" stroke="none" /><path d="M 79.91906864156998 93.8553929516997 l -8.488551961981372 -2.5974301333168865 a29.877057942174332,29.877057942174332 0 0,0 0.15471267677862338,-0.49048146443966534 l 8.442583801434546 2.7431617641829664" fill="#ff0901" stroke="none" /><path d="M 80.02781315780177 93.51064311812611 l -23.1551357671729 -7.523559679701518 a45.34675055629067,45.34675055629067 0 0,0 0.24759910178288924,-0.7402897993223139 l 23.02219937161824 7.921022581946154" fill="#fff417" stroke="none" /><path d="M 80.14247586403 93.16781622104843 l -23.266493094240175 -8.005074329664993 a45.605099388699635,45.605099388699635 0 0,0 0.26178829669857995,-0.7401107675580545 l 23.125251716731785 8.404382723649658" fill="#fff817" stroke="none" /><path d="M 80.38941819471856 92.48833698450439 l -11.150294937841283 -4.271023620211677 a32.94029815227639,32.94029815227639 0 0,0 0.20737713735957863,-0.5277521948744589 l 11.075124250600012 4.4623248199819" fill="#ff3b05" stroke="none" /><path d="M 80.52162464483688 92.15188598940014 l -58.13603437070389 -23.42383374106689 a83.6775436618316,83.6775436618316 0 0,0 0.5497945866650426,-1.331371200924823 l 57.724218097152644 24.421079512445026" fill="#4dd5ff" stroke="none" /><path d="M 80.95270993114464 91.15688171328213 l -16.196755751138742 -7.519695791402689 a38.85723163475473,38.85723163475473 0 0,0 0.28688073214103826,-0.6042439855972286 l 16.06491682515595 7.797382192640449" fill="#ff970d" stroke="none" /><path d="M 81.10775173730289 90.83032412892265 l -17.268275972626267 -8.38145313990755 a40.19484596977136,40.19484596977136 0 0,0 0.3074714064725543,-0.6198435932891245 l 17.1214445532003 8.677456321695635" fill="#ffaa0f" stroke="none" /><path d="M 81.43458229118936 90.18545643968196 l -23.890238760489733 -12.629491706505 a48.02309324999425,48.02309324999425 0 0,0 0.39262743626190894,-0.7274790096200542 l 23.66930322500935 13.038851699457528" fill="#e5ff1a" stroke="none" /><line stroke="#e1ed5e" stroke-width="0.3" x1="26.266209847984243" x2="21.928928074336255" y1="57.711370442889674" y2="55.22380399835377" /><path d="M 25.398753493254645 57.213857153982495 a86.0,86.0 0 0,1 29.58750427330803,-30.492523968695096" fill="none" id="id95" stroke="none" /><text fill="#e1ed5e" style="font-size:6.75px; font-family:Arial;" text-anchor="middle"><textPath startOffset="21.46611528233685" xlink:href="#id95">November</textPath></text><path d="M 81.96595687620814 89.24020034530311 l -16.19037568962277 -9.659797171317145 a39.8531150307347,39.8531150307347 0 0,0 0.3565605096836742,-0.5860917266464957 l 16.02169938165288 9.937056671170714" fill="#ffa50f" stroke="none" /><path d="M 82.15384107792192 88.93136811851018 l -7.474775076534407 -4.636041519093464 a29.79574575641761,29.79574575641761 0 0,0 0.2740817061624451,-0.43353143828488483 l 7.393865774126 4.764020605092564" fill="#ff0801" stroke="none" /><path d="M 82.34701348167596 88.62581576622439 l -23.250866094336335 -14.981013794879146 a48.65923983877934,48.65923983877934 0 0,0 0.4597217573780834,-0.7001877761836847 l 22.989547701600333 15.379019635040498" fill="#ddff1b" stroke="none" /><path d="M 82.7489923806493 88.02491185347247 l -9.088492890889144 -6.308936027910849 a32.06360595972281,32.06360595972281 0 0,0 0.31863190130358615,-0.4506822277673323 l 8.978548369781679 6.464444756009967" fill="#ff2d04" stroke="none" /><path d="M 82.95767976084542 87.72973835380427 l -24.0696751731813 -17.329871048622376 a50.65929354358158,50.65929354358158 0 0,0 0.5156088120909565,-0.7032898402392332 l 23.76780374857671 17.74162333253311" fill="#c2ff1e" stroke="none" /><path d="M 83.39014120810768 87.1503855733568 l -11.75527708240624 -9.094043476215887 a35.862306887944754,35.862306887944754 0 0,0 0.38192659980836047,-0.485007996503158 l 11.596996402003908 9.295043866672094" fill="#ff6909" stroke="none" /><path d="M 84.31358615837235 86.03803664274999 l -45.04927888065217 -40.096888132140386 a81.30918641092876,81.30918641092876 0 0,0 0.9395329123308248,-1.037455708008974 l 44.3524023277053 40.866396627418915" fill="#49eeff" stroke="none" /><path d="M 85.05521093208273 85.24692304244772 l -10.437210969280272 -10.303322178200522 a35.666077209842555,35.666077209842555 0 0,0 0.43506533950619736,-0.4331970306750482 l 10.258309829606763 10.48145505952568" fill="#ff6609" stroke="none" /><path d="M 85.31137513191541 84.99185889309783 l -6.159054075197947 -6.293029706712459 a29.80546250862372,29.80546250862372 0 0,0 0.36975344835133567,-0.3557025243587079 l 6.049817383234183 6.39811531783348" fill="#ff0801" stroke="none" /><path d="M 86.10567301691215 84.25364557470407 l -18.833583371747977 -21.343982996144867 a49.465232701671404,49.465232701671404 0 0,0 0.6432981810574702,-0.5578618434474942 l 18.463391392043732 21.665009833012043" fill="#d2ff1c" stroke="none" /><path d="M 86.37877921826538 84.01681056812374 l -11.159618490582842 -13.094736454285721 a38.204918124261965,38.204918124261965 0 0,0 0.5042002432968327,-0.4222532037383506 l 10.932560710326898 13.284890815417885" fill="#ff8d0d" stroke="none" /><path d="M 86.93701828274178 83.55741782278169 l -19.496823146141647 -24.540960380553287 a52.34301914608436,52.34301914608436 0 0,0 0.7102884010143296,-0.5543913633996108 l 19.071502189967894 24.87293013317612" fill="#adff20" stroke="none" /><path d="M 87.80319425747018 82.90503203632743 l -20.28717038336683 -28.434373318574224 a55.92968462760295,55.92968462760295 0 0,0 0.788525618625699,-0.5524125871998747 l 19.794713625157474 28.77937074853804" fill="#80ff25" stroke="none" /><path d="M 88.39885842347998 82.49532879139004 l -4.900501522177604 -7.394243690347529 a29.87072459955269,29.87072459955269 0 0,0 0.4310387865419481,-0.2803596168907656 l 4.772495709851369 7.47750223139783" fill="#ff0901" stroke="none" /><path d="M 88.70189139769569 82.29822771554957 l -15.942675294773249 -24.97883651210881 a50.632940607594676,50.632940607594676 0 0,0 0.7387125362495606,-0.46258172242985857 l 15.510343606151446 25.2495625758616" fill="#c3ff1e" stroke="none" /><line stroke="#e1ed5e" stroke-width="0.3" x1="56.762969772571076" x2="54.21961505331055" y1="26.818313649435495" y2="22.513508569990535" /><path d="M 56.25429882871897 25.957352633546506 a86.0,86.0 0 0,1 42.265352541879196,-11.944610805530505" fill="none" id="id96" stroke="none" /><text fill="#e1ed5e" style="font-size:6.75px; font-family:Arial;" text-anchor="middle"><textPath startOffset="22.20632615414155" xlink:href="#id96">December</textPath></text><path d="M 89.3179101791058 81.91981866633112 l -4.507149440785073 -7.628664479860816 a29.860638680583882,29.860638680583882 0 0,0 0.4447859690456709,-0.2576487422190355 l 4.375166739274083 7.705117379469899" fill="#ff0901" stroke="none" /><path d="M 89.63071344664047 81.73862282372117 l -15.438436444006305 -27.18867006570158 a52.266101448328975,52.266101448328975 0 0,0 0.7861715431258949,-0.4375036125796938 l 14.968140811808365 27.450389075841457" fill="#aeff20" stroke="none" /><path d="M 89.94658935756843 81.56283822128135 l -4.26406239563571 -7.819953945885115 a29.906958393842352,29.906958393842352 0 0,0 0.4540943727213577,-0.24256148762373445 l 4.128822976386047 7.892194160010599" fill="#ff0a01" stroke="none" /><path d="M 90.58718382345135 81.22770947309562 l -16.298965578094112 -32.50556596253272 a57.363004516410115,57.363004516410115 0 0,0 0.8864734845802755,-0.43498868897146536 l 15.73702082650341 32.78130981163901" fill="#6fff27" stroke="none" /><path d="M 90.91171255644093 81.06846463323043 l -5.426944420439223 -11.30470298910393 a33.53985787058178,33.53985787058178 0 0,0 0.5226177278651749,-0.24537603077135758 l 5.23154848127444 11.396444002515295" fill="#ff4506" stroke="none" /><path d="M 91.23893434514133 80.91482961587045 l -11.928200953511118 -25.984481402401787 a49.59152412410202,49.59152412410202 0 0,0 0.7788653061245324,-0.34945415947934283 l 11.47915352891981 26.18595589239766" fill="#d0ff1d" stroke="none" /><path d="M 92.23578459929587 80.48803036053334 l -13.019415126745864 -32.71862249643923 a56.213824391949224,56.213824391949224 0 0,0 0.9021431038018438,-0.35001750864107833 l 12.454288857944345 32.93788270897086" fill="#7dff26" stroke="none" /><path d="M 92.57280143429618 80.3572730644239 l -8.74759591114455 -23.134784441984543 a45.7333516815203,45.7333516815203 0 0,0 0.7387410091443078,-0.27208454815968464 l 8.348072576227672 23.281932257950547" fill="#fffa17" stroke="none" /><path d="M 93.25333710446033 80.11325718540243 l -12.13971781061244 -35.78353471625885 a58.78669217212593,58.78669217212593 0 0,0 0.9610705355351677,-0.31684984524198967 l 11.521964452834863 35.98719828576007" fill="#5eff29" stroke="none" /><path d="M 93.94186890950719 79.89281104454417 l -2.5669850943901067 -8.519930250393738 a29.898237125767963,29.898237125767963 0 0,0 0.4940467026412506,-0.1442257801535854 l 2.4199481740254347 8.562854359466023" fill="#ff0a01" stroke="none" /><path d="M 94.63758080256005 79.69619591428918 l -16.08725759231985 -60.91141225713247 a84.0,84.0 0 0,0 1.4011644452600023,-0.35718801532454725 l 15.036384258374849 61.17930326862588" fill="#4dd2ff" stroke="none" /></svg>