<?xml version="1.0" encoding="utf-8" ?>
<svg baseProfile="full" height="200mm" version="1.1" viewBox="0,0,200,200" width="200mm" xmlns="http://www.w3.org/2000/svg" xmlns:ev="http://www.w3.org/2001/xml-events" xmlns:xlink="http://www.w3.org/1999/xlink"><defs /><rect fill="#1a1a1a" height="200" width="200" x="0" y="0" /><text alignment-baseline="middle" fill="#e1ed5e" style="dominant-baseline: central; font-size:9.0px; font-family:Arial;" text-anchor="middle" x="100.0" y="100.0">2023</text><line stroke="#e1ed5e" stroke-width="0.3" x1="100.0" x2="100.0" y1="15.0" y2="10.0" /><path d="M 100.0 14.0 a86.0,86.0 0 0,1 42.46469731375804,11.215312516191453" fill="none" id="id97" stroke="none" /><text fill="#e1ed5e" style="font-size:6.75px; font-family:Arial;" text-anchor="middle"><textPath startOffset="22.20632615414155" xlink:href="#id97">January</textPath></text><path d="M 109.41281617654863 81.2277094730956 l 10.822034598165288 -21.582741419631127 a45.14396736310227,45.14396736310227 0 0,0 0.6916475260816027,0.35428872659465616 l -11.191942611835646 21.39326016772397" fill="#e3ff1b" stroke="none" /><line stroke="#e1ed5e" stroke-width="0.3" x1="143.23703022742887" x2="145.7803849466894" y1="26.81831364943548" y2="22.513508569990506" /><path d="M 143.74570117128098 25.957352633546492 a86.0,86.0 0 0,1 28.547481713284135,27.462654790039103" fill="none" id="id98" stroke="none" /><text fill="#e1ed5e" style="font-size:6.75px; font-family:Arial;" text-anchor="middle"><textPath startOffset="19.985693538727396" xlink:href="#id98">February</textPath></text><path d="M 110.68208982089419 81.91981866633111 l 5.871668882971227 -9.938208713404556 a32.54315762269765,32.54315762269765 0 0,0 0.4798379088117066,0.2890969711160466 l -6.041868858000571 9.835665132829895" fill="#ff740a" stroke="none" /><path d="M 111.2981086023043 82.29822771554956 l 9.653459314636901 -15.124950959495745 a38.943060448722264,38.943060448722264 0 0,0 0.561953877754232,0.3655104338554139 l -9.912380218175413 14.956541601480803" fill="#ffcb13" stroke="none" /><path d="M 112.48926042617603 83.11751280151076 l 12.404092621871284 -16.76736073648636 a41.85679505195911,41.85679505195911 0 0,0 0.5755385982190608,0.4334837400121353 l -12.690877373848728 16.551360406968378" fill="#fff116" stroke="none" /><path d="M 113.06298171725822 83.55741782278167 l 12.964035494149565 -16.318036997579895 a41.840934425978986,41.840934425978986 0 0,0 0.5600640222870799,0.4528661561807808 l -13.243002915001137 16.092464744134983" fill="#fff116" stroke="none" /><path d="M 113.89432698308785 84.25364557470407 l 10.887685104278063 -12.338945868458094 a37.45573675271507,37.45573675271507 0 0,0 0.4797705541894003,0.4307427406217593 l -11.098466646063454 12.149704119067037" fill="#ffb811" stroke="none" /><path d="M 114.16331599549186 84.49514656593476 l 13.935689149701956 -15.255665963930818 a41.66249685009433,41.66249685009433 0 0,0 0.5253286051108098,0.48823568607085477 l -14.196225638607611 15.013525691785324" fill="#ffef16" stroke="none" /><path d="M 114.68862486808459 84.99185889309783 l 14.475415166490944 -14.790293533312726 a41.69517883575371,41.69517883575371 0 0,0 0.5086101011114875,0.5064259677015569 l -14.727861067769753 14.538931714961048" fill="#ffef16" stroke="none" /><path d="M 115.19652480421416 85.50635884689758 l 22.44904161771443 -21.41070788421222 a52.02221593724313,52.02221593724313 0 0,0 0.6124567506283564,0.6533261592583277 l -22.81426569031325 21.021112308075836" fill="#91ff23" stroke="none" /><path d="M 115.9244219780498 86.31012108654704 l 24.83193852899512 -21.347476983267065 a53.74660203225534,53.74660203225534 0 0,0 0.5970719912027098,0.7067449113834945 l -25.19572113368495 20.916873122254465" fill="#7eff26" stroke="none" /><path d="M 116.38621287248628 86.86637796730983 l 25.68546346147518 -20.587012475830456 a53.917595840382624,53.917595840382624 0 0,0 0.5742119187564492,0.729190824687366 l -26.036029460825592 20.141829257190054" fill="#7cff26" stroke="none" /><path d="M 116.82858285166822 87.43820079747576 l 26.987808091060497 -20.14521538410792 a54.67746261867139,54.67746261867139 0 0,0 0.5565056197380321,0.7590730399090814 l -27.330576323312158 19.677679900527345" fill="#74ff27" stroke="none" /><path d="M 117.2510076193507 88.02491185347247 l 51.75302285805209 -35.92526443958259 a84.0,84.0 0 0,0 0.8143021373250665,1.1948879069183742 l -52.36374946104589 35.02909850939381" fill="#4dd2ff" stroke="none" /><line stroke="#e1ed5e" stroke-width="0.3" x1="172.23445277983987" x2="176.4835382374775" y1="55.19839476539836" y2="52.563006222186495" /><path d="M 173.08426987136738 54.67131705675599 a86.0,86.0 0 0,1 12.851231095245387,41.99856678651699" fill="none" id="id99" stroke="none" /><text fill="#e1ed5e" style="font-size:6.75px; font-family:Arial;" text-anchor="middle"><textPath startOffset="22.20632615414155" xlink:href="#id99">March</textPath></text><path d="M 117.84615892207809 88.93136811851018 l 28.897127642732674 -17.922717695522273 a55.00393794244678,55.00393794244678 0 0,0 0.4921129034014615,0.8089042208164449 l -29.201356344420358 17.422645701498745" fill="#70ff27" stroke="none" /><path d="M 118.03404312379186 89.2402003453031 l 14.564503162750956 -8.689739456963732 a37.95984446295705,37.95984446295705 0 0,0 0.3299620173963773,0.5640120464898377 l -14.71192485461766 8.437747998119999" fill="#ffbe11" stroke="none" /><path d="M 118.56541770881063 90.18545643968196 l 28.900319546606926 -15.278053504967756 a53.69017266391611,53.69017266391611 0 0,0 0.42489524898797354,0.8207623796032876 l -29.159024228755015 14.778318403104123" fill="#7fff26" stroke="none" /><path d="M 118.73160827565052 90.50648371742162 l 29.36016016159563 -14.880257714739 a53.9156660933908,53.9156660933908 0 0,0 0.4124291382309843,0.8314319759065186 l -29.611949312780023 14.372666150333531" fill="#7cff26" stroke="none" /><path d="M 118.89224826269711 90.83032412892265 l 8.326811245694119 -4.041560279165857 a30.255808717316345,30.255808717316345 0 0,0 0.2233769157290983,0.470488752741367 l -8.395146355264973 3.89762911078395" fill="#ff5307" stroke="none" /><path d="M 119.04729006885535 91.15688171328212 l 38.75772443071214 -17.99411572070419 a63.73112921064823,63.73112921064823 0 0,0 0.4533944305419239,0.9989945279899103 l -39.06172117821741 17.324299183872217" fill="#33ff50" stroke="none" /><path d="M 119.34039704204932 91.81776055985345 l 30.32094617002909 -12.827722258006148 a53.92279202884148,53.92279202884148 0 0,0 0.35429408964409276,0.8579512404282791 l -30.53726194655938 12.303896447124565" fill="#7cff26" stroke="none" /><path d="M 119.61058180528143 92.48833698450437 l 3.434821540224613 -1.3156785548088286 a24.678180130550274,24.678180130550274 0 0,0 0.14853374917294843,0.39799660144951454 l -3.4569598778991866 1.2563588163299806" fill="#ff0000" stroke="none" /><path d="M 119.85752413597 93.16781622104841 l 11.504560853334524 -3.9582615389465836 a33.166460242764984,33.166460242764984 0 0,0 0.18109314702125853,0.5414454596227407 l -11.570991294127554 3.759642976401529" fill="#ff7d0b" stroke="none" /><path d="M 120.28053869075195 94.5502522615342 l 15.06939640927 -4.049419507723087 a36.60399008232343,36.60399008232343 0 0,0 0.1582750746503823,0.609898427094257 l -15.136867815790685 3.78942465507998" fill="#ffac0f" stroke="none" /><path d="M 120.37134235888165 94.90015583598534 l 20.566826300200926 -5.148782403809192 a42.20151655670914,42.20151655670914 0 0,0 0.1703478277742333,0.7062017221141752 l -20.65240692823598 4.79399545003561" fill="#fff617" stroke="none" /><path d="M 120.53481517161879 95.60439243477599 l 7.205207371518717 -1.5423203845062334 a28.368430323688425,28.368430323688425 0 0,0 0.09810168494726694,0.4783786559071493 l -7.23068835238098 1.4180660724356724" fill="#ff3705" stroke="none" /><path d="M 120.6074358757038 95.95851677861258 l 15.72298401558326 -3.0835556870052523 a37.022501116528254,37.022501116528254 0 0,0 0.11726308861010967,0.6264241082794874 l -15.77373282810323 2.812453501263202" fill="#ffb210" stroke="none" /><path d="M 120.78858239683441 97.02765380044208 l 19.072070387426926 -2.7269197510264926 a40.26603125170063,40.26603125170063 0 0,0 0.09219770879257003,0.6869800207302543 l -19.116184095277333 2.398221388231574" fill="#ffdd14" stroke="none" /><path d="M 120.83666639777658 97.38593545837742 l 62.38838123783521 -7.826936041000247 a83.87742871068582,83.87742871068582 0 0,0 0.16739397277292759,1.4341293329420246 l -62.51386556361173 6.751862969733369" fill="#4dd3ff" stroke="none" /><path d="M 120.91429891909075 98.10471618934814 l 30.94050954228056 -2.8038734195998223 a52.067295294072395,52.067295294072395 0 0,0 0.07320541760382283,0.8932915172898913 l -30.984189443703876 2.270867985102162" fill="#91ff24" stroke="none" /><path d="M 120.94382443527127 98.46500227214037 l 32.83195255879064 -2.40629273486775 a53.92001448281207,53.92001448281207 0 0,0 0.05987537479869209,0.9262455466675961 l -32.86850852459374 1.8407881239471187" fill="#7cff26" stroke="none" /><path d="M 120.98425023603335 99.18683210126433 l 19.668149238154612 -0.7621672162747222 a40.682911200325165,40.682911200325165 0 0,0 0.021093712742047622,0.6999976336350164 l -19.678354645352307 0.42349943521470657" fill="#ffe215" stroke="none" /><line stroke="#e1ed5e" stroke-width="0.3" x1="184.98032266829074" x2="189.97916517819016" y1="98.17113171792111" y2="98.06355123074" /><path d="M 185.9800911702706 98.14961562048488 a86.0,86.0 0 0,1 -9.607161424134198,41.387399972396054" fill="none" id="id100" stroke="none" /><text fill="#e1ed5e" style="font-size:6.75px; font-family:Arial;" text-anchor="middle"><textPath startOffset="21.466115282336823" xlink:href="#id100">April</textPath></text><path d="M 120.99513854157772 99.54816195383933 l 34.88898706846717 -0.7508486651956323 a55.89706567007742,55.89706567007742 0 0,0 0.012422438458230368,0.9621315485974397 l -34.89674251404312 0.15018085853773003" fill="#66ff29" stroke="none" /><path d="M 120.99980553446 99.90962569577887 l 33.741296851380746 -0.14520830783210179 a54.741609307584305,54.741609307584305 0 0,0 -0.0040553176179417135,0.9423129958366038 l -33.7387972364733 -0.4356141662081867" fill="#73ff27" stroke="none" /><path d="M 120.9904718944345 100.63252640178507 l 32.554310263531725 0.980990843709722 a53.569087487519965,53.569087487519965 0 0,0 -0.0357072842825037,0.9214463455804531 l -32.53260084639802 -1.5412144363041813" fill="#80ff26" stroke="none" /><path d="M 120.92983693683757 101.71520430193887 l 62.29142332755774 5.1047945374707675 a83.50024277907083,83.50024277907083 0 0,0 -0.12972519674425764,1.4315067362465872 l -62.19432353453641 -6.176282662265925" fill="#4cd7ff" stroke="none" /><path d="M 120.8583938346157 102.4346265915055 l 19.613526188691257 2.289323559176972 a40.74668103538112,40.74668103538112 0 0,0 -0.08731138808534411,0.6959576694812246 l -19.571213291359065 -2.6265989829455916" fill="#ffe315" stroke="none" /><path d="M 120.81339534386255 102.79330883721812 l 34.20711102360491 4.590842769251141 a55.51379842777694,55.51379842777694 0 0,0 -0.13525791324906244,0.9459935302355624 l -34.12301905933925 -5.178981771467113" fill="#6aff28" stroke="none" /><path d="M 120.76222939487914 103.15116336523771 l 35.023354055243395 5.315629074681783 a56.424444127445895,56.424444127445895 0 0,0 -0.15400714992974765,0.9590026696238432 l -34.92666515095236 -5.917710973998831" fill="#61ff29" stroke="none" /><path d="M 120.64145759157962 103.86396538481128 l 35.01421957739692 6.554466021742294 a56.6224170634776,56.6224170634776 0 0,0 -0.18758215953266838,0.9564773901667829 l -34.896207484888585 -7.156207138977021" fill="#5fff29" stroke="none" /><path d="M 120.5718875245553 104.21870165774334 l 9.161995664820429 1.8788614439622622 a30.35266191454584,30.35266191454584 0 0,0 -0.10936492100171889,0.510916501463101 l -9.128296705094266 -2.036291764841532" fill="#ff5407" stroke="none" /><path d="M 120.49622156327973 104.57218783832717 l 38.45644480932966 8.578658691781886 a60.40166915656116,60.40166915656116 0 0,0 -0.23510467874796628,1.0128248027851265 l -38.30307956465114 -9.239352151915577" fill="#37ff2e" stroke="none" /><path d="M 120.32669344350535 105.2749913415812 l 31.836058508205713 8.261792969309296 a53.89060419642099,53.89060419642099 0 0,0 -0.24074196413191168,0.895890406743734 l -31.689128467732026 -8.808574309228577" fill="#7cff26" stroke="none" /><path d="M 120.02730092923936 106.31721596034902 l 59.79904124571928 18.862424802310827 a83.70340025333607,83.70340025333607 0 0,0 -0.4452532583136321,1.370348622985516 l -59.4654957363894 -19.888972325274135" fill="#4dd5ff" stroke="none" /><path d="M 119.79798401119884 107.00284435728193 l 8.99485331177822 3.181614740335902 a30.540967375289064,30.540967375289064 0 0,0 -0.17957469125138467,0.49411242606277794 l -8.938754359521608 -3.3359749634048113" fill="#ff5708" stroke="none" /><path d="M 119.26925614724726 108.34839909993367 l 18.190829019655684 7.881170889745817 a40.824709708233414,40.824709708233414 0 0,0 -0.28491548433330294,0.6424092016804216 l -18.052472450591107 -8.193128427918927" fill="#ffe415" stroke="none" /><line stroke="#e1ed5e" stroke-width="0.3" x1="174.80103733775053" x2="179.2010983576182" y1="140.37084112569926" y2="142.7455964860345" /><path d="M 175.68104954172406 140.8457921977663 a86.0,86.0 0 0,1 -30.038265399797805,32.042727171017184" fill="none" id="id101" stroke="none" /><text fill="#e1ed5e" style="font-size:6.75px; font-family:Arial;" text-anchor="middle"><textPath startOffset="22.206326154141568" xlink:href="#id101">May</textPath></text><path d="M 117.75023020441432 111.22182372390056 l 12.562029607074162 7.9418058380982695 a35.86192678689609,35.86192678689609 0 0,0 -0.3343614692763114,0.5189364255112369 l -12.4234632744208 -8.156863863530958" fill="#ffa20f" stroke="none" /><path d="M 116.71984013943494 112.70617746262583 l 9.408949731922965 7.1502947416804234 a32.81757377598109,32.81757377598109 0 0,0 -0.34566779022333854,0.44682221535070615 l -9.284475124481556 -7.311194951144382" fill="#ff780b" stroke="none" /><path d="M 116.498646956653 112.99209946851258 l 7.554233696175856 5.948691177341028 a30.61526772689215,30.61526772689215 0 0,0 -0.3295982690807344,0.41122451872887356 l -7.450717515040267 -6.077843529648152" fill="#ff5808" stroke="none" /><path d="M 116.0416608686014 113.55231037782055 l 11.75453773935248 9.930464500924131 a36.38776405687246,36.38776405687246 0 0,0 -0.4083356742844373,0.47498663991884604 l -11.581859555497264 -10.131328240004505" fill="#ffa90f" stroke="none" /><path d="M 115.56566222782051 114.09645910891815 l 11.987450392118113 10.855985553294277 a37.17255048645163,37.17255048645163 0 0,0 -0.4335976078865094,0.4705845667931998 l -11.798806376235882 -11.06072137488881" fill="#ffb410" stroke="none" /><path d="M 115.07121518719521 114.62390073753431 l 17.009278044796535 16.504441788845426 a44.700467049545345,44.700467049545345 0 0,0 -0.5405763176965792,0.5476009558095053 l -16.72266110204442 -16.794783238635596" fill="#e9ff1a" stroke="none" /><path d="M 113.75828350139079 115.86535959552629 l 13.865035399296133 15.988460507613317 a42.16294110059482,42.16294110059482 0 0,0 -0.5524038431343896,0.47077053926456897 l -13.587766079584696 -16.224755437100832" fill="#fff517" stroke="none" /><path d="M 112.92097659922987 116.55440617244103 l 16.64925012244409 21.33108491272483 a48.05942928432862,48.05942928432862 0 0,0 -0.6565175993653511,0.5033896998467534 l -16.279603794585245 -21.614513954398955" fill="#c0ff1e" stroke="none" /><path d="M 112.34349029814194 116.9893568818739 l 17.42975297765401 23.989996876721577 a50.65326691963551,50.65326691963551 0 0,0 -0.7098034385535639,0.506425906957803 l -17.014222211251564 -24.286467045523597" fill="#a1ff22" stroke="none" /><line stroke="#e1ed5e" stroke-width="0.3" x1="143.8653032363475" x2="146.44561519142675" y1="172.8068346515853" y2="177.08958963109032" /><path d="M 144.38136562736335 173.6633856474863 a86.0,86.0 0 0,1 -40.68145358897372,12.25698825130547" fill="none" id="id102" stroke="none" /><text fill="#e1ed5e" style="font-size:6.75px; font-family:Arial;" text-anchor="middle"><textPath startOffset="21.466115282336833" xlink:href="#id102">June</textPath></text><path d="M 110.8373102113329 117.98757091392108 l 16.24718610845184 26.966784799777965 a52.48298808690507,52.48298808690507 0 0,0 -0.7778281960514059,0.4595546085576305 l -15.78059004137205 -27.242457980629347" fill="#8cff24" stroke="none" /><path d="M 110.21172684928248 118.3499491758327 l 15.138198060961898 27.20256516182256 a52.13108722669533,52.13108722669533 0 0,0 -0.7878675180113699,0.42960818945268797 l -14.66770773108188 -27.45911400303502" fill="#90ff24" stroke="none" /><path d="M 109.57404056367764 118.69057910512821 l 14.846219677690069 28.983002678170017 a53.5641625558073,53.5641625558073 0 0,0 -0.8242404675311681,0.413291281371551 l -14.345125302476141 -29.23426180045087" fill="#80ff25" stroke="none" /><path d="M 108.59647513512805 119.15986991738527 l 13.456960206245583 29.992945129510332 a53.87349290133762,53.87349290133762 0 0,0 -0.8493523658859595,0.3723311170392223 l -12.93868716570187 -30.22014079984401" fill="#7dff26" stroke="none" /><path d="M 107.2578585660854 119.70592522655815 l 10.239055340171744 27.800219181295223 a50.62584076084853,50.62584076084853 0 0,0 -0.8203325398852676,0.29414206276907356 l -9.759003239656742 -27.972348785104256" fill="#a1ff22" stroke="none" /><path d="M 106.57524785965236 119.94407469862006 l 9.277104124777416 28.139358637230035 a50.62917760344716,50.62917760344716 0 0,0 -0.8300259602126988,0.26574810110419617 l -8.791356819473776 -28.29487958499394" fill="#a1ff22" stroke="none" /><path d="M 105.53697534728816 120.25689768951611 l 8.954379311790296 32.75939194507955 a54.961134690565935,54.961134690565935 0 0,0 -0.9147353261084451,0.241589913525244 l -8.389153542870353 -32.90867320790838" fill="#71ff27" stroke="none" /><path d="M 104.48393922423573 120.51570834832081 l 6.664196289475857 30.491204410593234 a52.210976572245286,52.210976572245286 0 0,0 -0.879651872303385,0.18433960253612672 l -6.138352955743095 -30.601399993855903" fill="#8fff24" stroke="none" /><path d="M 103.41894727170886 120.7198165907248 l 5.581928840300709 33.82811508985347 a55.28555526910061,55.28555526910061 0 0,0 -0.9402865525053293,0.1468534215316937 l -4.998806424186862 -33.91918681873227" fill="#6dff28" stroke="none" /><path d="M 102.34483914955558 120.86867818915974 l 3.7664891639120266 33.521126717597916 a54.73206748835778,54.73206748835778 0 0,0 -0.9371365423426534,0.09713803433395939 l -3.1889200249637706 -33.580994120387636" fill="#73ff27" stroke="none" /><path d="M 101.62511606390274 120.93702456842531 l 2.547766223450508 32.82389805863132 a53.92262742389763,53.92262742389763 0 0,0 -0.9260241659857514,0.06386404819351883 l -1.9823792966858265 -32.86289045134113" fill="#7cff26" stroke="none" /><line stroke="#e1ed5e" stroke-width="0.3" x1="102.19456741930631" x2="102.32365962044197" y1="184.97166512339345" y2="189.96999836594603" /><path d="M 102.22038585953345 185.97133177190398 a86.0,86.0 0 0,1 -42.740103519485714,-10.115201625700543" fill="none" id="id103" stroke="none" /><text fill="#e1ed5e" style="font-size:6.75px; font-family:Arial;" text-anchor="middle"><textPath startOffset="22.20632615414155" xlink:href="#id103">July</textPath></text><path d="M 100.54218724476979 120.99299961872073 l 0.7652925346014363 29.63143460506728 a50.64131558176687,50.64131558176687 0 0,0 -0.8716101337198611,0.015005558896228108 l -0.25512271098890726 -29.640217641242668" fill="#a1ff22" stroke="none" /><path d="M 99.81925306533755 120.99922214144158 l -0.29454461199490056 34.220263538060806 a55.22153113381675,55.22153113381675 0 0,0 -0.9504422541718294,-0.016362725340941284 l 0.8835465560593978 -34.210123335440706" fill="#6eff28" stroke="none" /><path d="M 98.73552117531835 120.96189622390904 l -1.7845839876707041 29.58393894956774 a50.63771556278928,50.63771556278928 0 0,0 -0.869611711477435,-0.0599735150457162 l 2.2935584599270693 -29.54883709000574" fill="#a1ff22" stroke="none" /><path d="M 98.01472825383883 120.90594882070398 l -2.8093710758625052 29.58414536645471 a50.71723780746482,50.71723780746482 0 0,0 -0.8683935955127027,-0.09001254682207535 l 3.3181972679808016 -29.53140345117687" fill="#a0ff22" stroke="none" /><path d="M 97.65516085044442 120.86867818915974 l -3.325406765084876 29.59556677555634 a50.78180489694482,50.78180489694482 0 0,0 -0.8678189135937221,-0.10508078486520195 l 3.8343531017299872 -29.533940461965788" fill="#a0ff22" stroke="none" /><path d="M 96.93821686468263 120.77559828337769 l -5.237985138074318 35.54212373426471 a56.926021876189836,56.926021876189836 0 0,0 -0.9681873067434288,-0.1512109455356931 l 5.849008308426264 -35.44669448138192" fill="#5bff2a" stroke="none" /><path d="M 96.58105272829116 120.7198165907248 l -4.836595645343079 29.311178772557838 a50.70753874815948,50.70753874815948 0 0,0 -0.8599781942513276,-0.14951823233272352 l 5.340422811066457 -29.22358196170411" fill="#a0ff22" stroke="none" /><path d="M 95.86986931433489 120.58985236759428 l -6.708198428910939 33.442238470369766 a55.10840424397956,55.10840424397956 0 0,0 -0.9284678080248089,-0.19456945649500856 l 7.2828576983651345 -33.32181303314822" fill="#6fff27" stroke="none" /><path d="M 95.16358092515715 120.4354850818985 l -14.389146152231557 60.7989458698303 a83.47847105902028,83.47847105902028 0 0,0 -1.39546871713943,-0.3429722590876637 l 15.433568154114198 -60.542252352428605" fill="#4cd7ff" stroke="none" /><path d="M 94.11515582081647 120.15858648285463 l -8.321614736281585 28.505765867466653 a50.69558821626414,50.69558821626414 0 0,0 -0.8355719889105332,-0.25175098595720163 l 8.811061699632363 -28.358299512403725" fill="#a1ff22" stroke="none" /><path d="M 93.08242187328487 119.8279376855182 l -9.791129497793843 28.064432666593312 a50.72336787344796,50.72336787344796 0 0,0 -0.8219128526817562,-0.29470870671305677 l 10.272761911105325 -27.891736418840296" fill="#a0ff22" stroke="none" /><path d="M 92.40401165467489 119.57807347666478 l -11.900564006136042 30.672784887732924 a53.90050389330349,53.90050389330349 0 0,0 -0.8620972975468768,-0.34304630635443356 l 12.426782379724777 -30.463391736972422" fill="#7cff26" stroke="none" /><path d="M 90.42595943632237 118.69057910512821 l -16.437832006856045 32.09017106179207 a57.05525481619424,57.05525481619424 0 0,0 -0.8702531988712378,-0.45527534294318645 l 16.987776108253776 -31.802466299904165" fill="#5aff2a" stroke="none" /><line stroke="#e1ed5e" stroke-width="0.3" x1="58.666819895761336" x2="56.23545636021788" y1="174.27360380694188" y2="178.64263932499728" /><path d="M 58.180547188652646 175.14741091055294 a86.0,86.0 0 0,1 -31.652253787137756,-30.449443065178592" fill="none" id="id104" stroke="none" /><text fill="#e1ed5e" style="font-size:6.75px; font-family:Arial;" text-anchor="middle"><textPath startOffset="22.20632615414155" xlink:href="#id104">August</textPath></text><path d="M 89.4739219176387 118.17145234162733 l -15.051268370852101 25.983410320724836 a51.027958496483954,51.027958496483954 0 0,0 -0.7562638171398124,-0.4468139933937507 l 15.496300059020296 -25.720477755037336" fill="#9dff22" stroke="none" /><path d="M 89.1626897886671 117.98757091392108 l -15.85252710314774 26.31173694138029 a51.718237521518546,51.718237521518546 0 0,0 -0.7585853761651921,-0.4659850959228869 l 16.303091679245238 -26.034963378629026" fill="#95ff23" stroke="none" /><path d="M 88.24862548938628 117.40417183066458 l -16.772753046223762 24.840998457340113 a50.973328962715875,50.973328962715875 0 0,0 -0.7229550047332168,-0.4972550445111906 l 17.197864935579872 -24.54860262346382" fill="#9dff22" stroke="none" /><path d="M 87.65650970185807 116.9893568818739 l -17.602821501557504 24.22820526402499 a50.94770867915312,50.94770867915312 0 0,0 -0.7050557078523073,-0.5215833571677411 l 18.017262179828375 -23.921611958117484" fill="#9eff22" stroke="none" /><path d="M 86.79598089348748 116.32954008644616 l -28.47937309624297 35.22072036252811 a66.2943024541764,66.2943024541764 0 0,0 -0.8811771486787515,-0.7251488031277478 l 29.08142037346641 -34.72527644054318" fill="#36ff6f" stroke="none" /><path d="M 85.97065885151581 115.62618273729859 l -19.990268654824817 22.265592351194265 a50.922691116302225,50.922691116302225 0 0,0 -0.6472042476810126,-0.5912057351919996 l 20.370572451972684 -21.918193849415687" fill="#9eff22" stroke="none" /><path d="M 85.44109423537348 115.13401014063109 l -20.84976553369413 21.673370795720796 a51.074037382081286,51.074037382081286 0 0,0 -0.6283323804771984,-0.6149554807327658 l 21.21974786654712 -21.31126521206546" fill="#9cff22" stroke="none" /><path d="M 84.43433777217949 114.09645910891817 l -21.869025731791 19.80486422409255 a50.504015546912896,50.504015546912896 0 0,0 -0.578009199710631,-0.6493994633083552 l 22.20669378114997 -19.42549059104333" fill="#a3ff22" stroke="none" /><path d="M 83.72743513129214 113.27417163493432 l -32.605950060899964 26.59795680156056 a63.078489580682245,63.078489580682245 0 0,0 -0.6790912680393496,-0.8472707719349628 l 33.05895924099418 -26.03275819604734" fill="#32ff48" stroke="none" /><path d="M 83.28015986056508 112.70617746262583 l -25.1290392212186 19.09671558743023 a52.56189408778794,52.56189408778794 0 0,0 -0.5412341617928744,-0.7250716069441913 l 25.45403464970656 -18.661331100976728" fill="#8bff24" stroke="none" /><path d="M 82.85270091963577 112.12312394758628 l -26.926818038831787 19.03723443960167 a53.976807377378314,53.976807377378314 0 0,0 -0.5298442908122384,-0.7632802185695721 l 27.25052323680616 -18.570912958845085" fill="#7bff26" stroke="none" /><path d="M 82.24976979558568 111.22182372390057 l -29.001825309184547 18.33516340594218 a55.311573679839555,55.311573679839555 0 0,0 -0.5018481248390779,-0.8091389691622478 l 29.31313807369158 -17.833228105414666" fill="#6dff28" stroke="none" /><line stroke="#e1ed5e" stroke-width="0.3" x1="26.63291911575756" x2="22.317208475507996" y1="142.92168965132927" y2="145.44649492493687" /><path d="M 25.769776987707644 143.4266507060508 a86.0,86.0 0 0,1 -11.730757126820373,-40.83630448921669" fill="none" id="id105" stroke="none" /><text fill="#e1ed5e" style="font-size:6.75px; font-family:Arial;" text-anchor="middle"><textPath startOffset="21.46611528233685" xlink:href="#id105">September</textPath></text><path d="M 81.51974371655577 109.97397251340807 l -29.030450664506482 15.668014151894234 a53.98869099022122,53.98869099022122 0 0,0 -0.43434542509616986,-0.821617856934745 l 29.295848597827536 -15.165981279873362" fill="#7bff26" stroke="none" /><path d="M 81.18737489456691 109.33194174019688 l -29.537952911045544 14.652205853554653 a53.97237932800854,53.97237932800854 0 0,0 -0.4056840147467244,-0.8358292300142544 l 29.785790182406988 -14.141587667575115" fill="#7bff26" stroke="none" /><path d="M 80.87730276802145 108.67885076344099 l -28.04938144642642 12.73023322114159 a51.80302967877977,51.80302967877977 0 0,0 -0.36153313511215607,-0.8151617777176677 l 28.264355666269854 -12.245523106931227" fill="#94ff23" stroke="none" /><path d="M 80.73074385275274 108.34839909993369 l -27.578604880285045 11.948421796909344 a51.05568549508962,51.05568549508962 0 0,0 -0.34243539078750274,-0.8094161100424822 l 27.780191252264856 -11.471931161200702" fill="#9cff22" stroke="none" /><path d="M 80.45479744820244 107.68017299344265 l -32.24931728819534 12.672180553635759 a55.64971321004893,55.64971321004893 0 0,0 -0.3426583931923805,-0.894572937724096 l 32.46266996098123 -12.115184049078504" fill="#69ff28" stroke="none" /><path d="M 80.32549172779594 107.34259656027581 l -36.49965184571389 13.621800066649403 a59.958670689771935,59.958670689771935 0 0,0 -0.35254481774114194,-0.9700519264492747 l 36.728720924460255 -12.99150034319401" fill="#3bff2e" stroke="none" /><path d="M 80.0844068197444 106.66101706037122 l -28.409994666634123 9.502074954368828 a50.95692282923302,50.95692282923302 0 0,0 -0.27106110211391987,-0.834240291544595 l 28.569348019764295 -9.01163576284643" fill="#9eff22" stroke="none" /><path d="M 79.86692584326677 105.97154293290107 l -32.20911422070813 9.55334028486397 a54.59603175199457,54.59603175199457 0 0,0 -0.25948028407852924,-0.9032849094925824 l 32.36878714167277 -8.99749789986679" fill="#75ff27" stroke="none" /><path d="M 79.76711848015287 105.62410040840567 l -29.041780764637 8.072695473405663 a51.14288377358052,51.14288377358052 0 0,0 -0.2284672527727912,-0.8502116394717414 l 29.176436093751565 -7.571592900758382" fill="#9bff22" stroke="none" /><path d="M 79.58551787078972 104.9243191809786 l -29.2884161777985 7.064862515343973 a51.12845174522981,51.12845174522981 0 0,0 -0.19901003383342877,-0.8573300171779241 l 29.405686777562483 -6.559663840817474" fill="#9cff22" stroke="none" /><path d="M 79.50377843672027 104.57218783832718 l -30.84287430672414 6.880263972990174 a52.60096403337105,52.60096403337105 0 0,0 -0.18952869083838755,-0.8854149462468606 l 30.95673703628697 -6.34833520732715" fill="#8bff24" stroke="none" /><path d="M 79.29508885075956 103.50808413554451 l -29.689099164832303 5.030297257883996 a51.112231729347485,51.112231729347485 0 0,0 -0.1395077834954937,-0.8687151009970319 l 29.771288702689088 -4.518502927193751" fill="#9cff22" stroke="none" /><path d="M 79.23777060512086 103.15116336523772 l -29.52338354729511 4.4808774088125825 a50.861487545557786,50.861487545557786 0 0,0 -0.12392267985599498,-0.8667149342852531 l 29.596140278167706 -3.9720170025469286" fill="#9fff22" stroke="none" /><path d="M 79.18660465613746 102.79330883721812 l -9.247798577126169 1.2411217422013292 a30.330710675080525,30.330710675080525 0 0,0 -0.06499220018329219,-0.5180517818569882 l 9.26779228655631 -1.0817522060569325" fill="#ff5407" stroke="none" /><path d="M 79.1416061653843 102.43462659150553 l -29.72448530981303 3.469491607450018 a50.9262827452301,50.9262827452301 0 0,0 -0.09413528996554885,-0.8715758729224407 l 29.77980290127963 -2.957319412642795" fill="#9eff22" stroke="none" /><line stroke="#e1ed5e" stroke-width="0.3" x1="15.007084014347285" x2="10.007500721073583" y1="101.09737516637583" y2="101.16192664675087" /><path d="M 14.007167355692545 101.11028546245083 a86.0,86.0 0 0,1 10.666146001902534,-42.60595125391555" fill="none" id="id106" stroke="none" /><text fill="#e1ed5e" style="font-size:6.75px; font-family:Arial;" text-anchor="middle"><textPath startOffset="22.20632615414155" xlink:href="#id106">October</textPath></text><line stroke="#e1ed5e" stroke-width="0.3" x1="26.266209847984243" x2="21.928928074336255" y1="57.711370442889674" y2="55.22380399835377" /><path d="M 25.398753493254645 57.213857153982495 a86.0,86.0 0 0,1 29.58750427330803,-30.492523968695096" fill="none" id="id107" stroke="none" /><text fill="#e1ed5e" style="font-size:6.75px; font-family:Arial;" text-anchor="middle"><textPath startOffset="21.46611528233685" xlink:href="#id107">November</textPath></text><line stroke="#e1ed5e" stroke-width="0.3" x1="56.762969772571076" x2="54.21961505331055" y1="26.818313649435495" y2="22.513508569990535" /><path d="M 56.25429882871897 25.957352633546506 a86.0,86.0 0 0,1 42.265352541879196,-11.944610805530505" fill="none" id="id108" stroke="none" /><text fill="#e1ed5e" style="font-size:6.75px; font-family:Arial;" text-anchor="middle"><textPath startOffset="22.20632615414155" xlink:href="#id108">December</textPath></text></svg>