<?xml version="1.0" encoding="utf-8" ?>
<svg baseProfile="full" height="200mm" version="1.1" viewBox="0,0,200,200" width="200mm" xmlns="http://www.w3.org/2000/svg" xmlns:ev="http://www.w3.org/2001/xml-events" xmlns:xlink="http://www.w3.org/1999/xlink"><defs /><rect fill="#1a1a1a" height="200" width="200" x="0" y="0" /><text alignment-baseline="middle" fill="#e1ed5e" style="dominant-baseline: central; font-size:9.0px; font-family:Arial;" text-anchor="middle" x="100.0" y="100.0">2024</text><line stroke="#e1ed5e" stroke-width="0.3" x1="100.0" x2="100.0" y1="15.0" y2="10.0" /><path d="M 100.0 14.0 a86.0,86.0 0 0,1 42.35913384403234,11.155469271406648" fill="none" id="id109" stroke="none" /><text fill="#e1ed5e" style="font-size:6.75px; font-family:Arial;" text-anchor="middle"><textPath startOffset="22.145653131862478" xlink:href="#id109">January</textPath></text><path d="M 100.0 79.0 l 0.0 -38.111274295790636 a59.111274295790636,59.111274295790636 0 0,0 1.0147236267824997,0.008710181926268634 l -0.654230701933645 38.1056585120588" fill="#4cff2c" stroke="none" /><path d="M 100.72087961077811 79.0123766808444 l 1.300595654155945 -37.8654233964145 a58.88775314063034,58.88775314063034 0 0,0 1.0099929379691546,0.04337344248853619 l -1.9504143527259357 37.837517385500135" fill="#4fff2b" stroke="none" /><path d="M 101.44090949804482 79.04949213459386 l 4.123305255287482 -59.951953470768295 a81.09358011626074,81.09358011626074 0 0,0 1.3879784294506063,0.10743830862856622 l -5.151852679513322 59.872337395144676" fill="#49efff" stroke="none" /><path d="M 102.15924093988457 79.11130261209362 l 2.924829938542364 -28.29507646356797 a49.44584296955448,49.44584296955448 0 0,0 0.8435557310036201,0.09452217914783363 l -3.410121571146781 28.240698523913167" fill="#bcff1f" stroke="none" /><path d="M 102.87502721639298 79.19773525538626 l 5.024309091537672 -36.35339772959222 a57.69895377709327,57.69895377709327 0 0,0 0.9799889640472372,0.14402462994155352 l -5.647623161192591 36.261792026351785" fill="#5cff2a" stroke="none" /><path d="M 103.58742460773223 79.30868818359171 l 4.262820733813485 -24.58681719210889 a45.953621385418415,45.953621385418415 0 0,0 0.7761025415692105,0.14143173640982024 l -4.684258008933749 24.510017281767702" fill="#e7ff1a" stroke="none" /><path d="M 104.29559338865022 79.4440306129975 l 12.88678016595065 -61.66790816100754 a84.0,84.0 0 0,0 1.4089503335234634,0.30707416746512495 l -13.943492916093248 61.4376025354087" fill="#4dd2ff" stroke="none" /><path d="M 105.3480935250658 79.69241777938227 l 6.416195133161376 -24.363338000638045 a46.19404291732745,46.19404291732745 0 0,0 0.7651022520317863,0.20853202104985413 l -6.833478786127856 24.249605485444047" fill="#e4ff1a" stroke="none" /><path d="M 105.69591212413111 79.78721728523813 l 7.05479404665309 -25.034975269065818 a47.01000011079256,47.01000011079256 0 0,0 0.7748590883947862,0.22555018771437024 l -7.48351314742948 24.910181387048933" fill="#daff1c" stroke="none" /><path d="M 106.38641147887787 79.99465700312896 l 9.609830329443096 -30.102656635588755 a52.59934770657205,52.59934770657205 0 0,0 0.857813362098157,0.2819802904600272 l -10.125166429188996 29.933255423726706" fill="#96ff23" stroke="none" /><path d="M 107.06938296918511 80.22567764915836 l 20.17423314685463 -56.43092065684518 a80.92869504037948,80.92869504037948 0 0,0 1.3041499211494978,0.47890191540476273 l -21.13997221965825 56.076287892431694" fill="#49f1ff" stroke="none" /><path d="M 108.07796709384702 80.6158196554323 l 2.0852605389927836 -5.003866181137978 a26.420976690063963,26.420976690063963 0 0,0 0.4171556738173752,0.17805895154295653 l -2.1708512879805886 4.967332579935619" fill="#ff0000" stroke="none" /><path d="M 108.4095320186766 80.7573450057729 l 12.669413931575862 -28.990098464805456 a52.637633577256125,52.637633577256125 0 0,0 0.8248733197938746,0.3689553439787476 l -13.16520065422537 28.768339369916855" fill="#95ff23" stroke="none" /><path d="M 108.73861861582097 80.90454125486305 l 9.721621145375156 -21.243496675924245 a44.362278756880926,44.362278756880926 0 0,0 0.6897516520238096,0.32283860074976234 l -10.084861511270471 21.073481843603947" fill="#fcff18" stroke="none" /><path d="M 109.3889696526874 81.21577127319529 l 3.4349989292001446 -6.8722988729605925 a28.682949267234658,28.682949267234658 0 0,0 0.43853877193711904,0.22392102166355415 l -3.5524649228508425 6.812319899624204" fill="#ff2303" stroke="none" /><path d="M 110.02825361518725 81.54914285379988 l 14.165264231572275 -26.062490719131848 a50.663245493962634,50.663245493962634 0 0,0 0.7605658375640945,0.4218730492487641 l -14.61057425729247 25.815484754449937" fill="#adff20" stroke="none" /><line stroke="#e1ed5e" stroke-width="0.3" x1="143.13028292997686" x2="145.6673583964461" y1="26.7553504044142" y2="22.446841604673864" /><path d="M 143.63769802327073 25.89364864446614 a86.0,86.0 0 0,1 29.32050498858742,28.57503671076993" fill="none" id="id110" stroke="none" /><text fill="#e1ed5e" style="font-size:6.75px; font-family:Arial;" text-anchor="middle"><textPath startOffset="20.669276256404974" xlink:href="#id110">February</textPath></text><path d="M 110.96478420261332 82.08984904055464 l 19.415956238428357 -31.71450534971372 a58.18587374567909,58.18587374567909 0 0,0 0.847396542340074,0.5288381155974994 l -19.957516909558144 31.376531437274675" fill="#56ff2a" stroke="none" /><path d="M 115.6541949942343 86.00192230759917 l 16.882043512386485 -15.096027408622193 a43.64715074078819,43.64715074078819 0 0,0 0.494644712668534,0.5628148823392838 l -17.13869928901361 14.804000248471612" fill="#fff917" stroke="none" /><path d="M 116.1254893667686 86.54754324733833 l 22.09169234733662 -18.429675474413614 a49.7697029679066,49.7697029679066 0 0,0 0.5416678056601796,0.6607466489521902 l -22.404806972235424 18.047726543762927" fill="#b8ff1f" stroke="none" /><path d="M 117.01052211995028 87.68569379921539 l 16.66731787968648 -12.065852797989912 a41.57630406669958,41.57630406669958 0 0,0 0.41355534183147324,0.5817173792403141 l -16.871988320047915 11.777958192040094" fill="#ffdd14" stroke="none" /><line stroke="#e1ed5e" stroke-width="0.3" x1="172.87174338648825" x2="177.1583165268699" y1="56.24261187166439" y2="53.66864786411523" /><path d="M 173.72905801456457 55.72781907015455 a86.0,86.0 0 0,1 12.242430191666344,42.057860355516425" fill="none" id="id111" stroke="none" /><text fill="#e1ed5e" style="font-size:6.75px; font-family:Arial;" text-anchor="middle"><textPath startOffset="22.145653131862474" xlink:href="#id111">March</textPath></text><path d="M 118.18653347947321 89.5 l 22.845819133985582 -13.190039826864083 a47.38007965372816,47.38007965372816 0 0,0 0.40062482424436563,0.7078656773105587 l -23.068877323251325 12.795917379454407" fill="#d5ff1c" stroke="none" /><path d="M 118.53625476483649 90.13048839642627 l 19.639401195062362 -10.456874942699214 a43.249771074504736,43.249771074504736 0 0,0 0.34330418365718,0.6583310385159925 l -19.816013447694488 10.118197661078723" fill="#fff417" stroke="none" /><path d="M 119.0197475246899 91.09779779509293 l 26.46904624646961 -12.388850143842848 a50.224886947332095,50.224886947332095 0 0,0 0.35878634728564607,0.7840129194455884 l -26.677817058610305 11.932648242182575" fill="#b2ff20" stroke="none" /><path d="M 119.31412917781788 91.75594674310238 l 27.93780802800188 -11.924988962399125 a51.37641320437334,51.37641320437334 0 0,0 0.3392657481838641,0.8141142902822531 l -28.138399620722225 11.443642162675593" fill="#a4ff21" stroke="none" /><path d="M 119.71291397450082 92.76114493625339 l 27.314926145621172 -10.030419231822442 a50.09835906553585,50.09835906553585 0 0,0 0.2895203970129003,0.8098400783536486 l -27.483086712678016 9.560044197087876" fill="#b4ff20" stroke="none" /><path d="M 120.05942366710727 93.78553927170692 l 18.228843843773273 -5.64734241966645 a40.08358520523947,40.08358520523947 0 0,0 0.19798176023502842,0.6590168897445906 l -18.32310192401193 5.333587926331137" fill="#ffc912" stroke="none" /><path d="M 120.16314734710363 94.1308016681162 l 17.37239999890417 -5.056852451610585 a39.09342528210968,39.09342528210968 0 0,0 0.18202924162163533,0.6459575619229367 l -17.45664773260039 4.7578869657846345" fill="#ffbb11" stroke="none" /><path d="M 120.26092885502905 94.47779374421319 l 19.182612441359037 -5.2283063221809485 a40.88234913368991,40.88234913368991 0 0,0 0.178734747613636,0.6786849492877205 l -19.269536669777402 4.898240868520429" fill="#ffd413" stroke="none" /><path d="M 120.43855184770803 95.1765574152323 l 29.30281061866049 -6.915383518587212 a51.10776045079125,51.10776045079125 0 0,0 0.19418305590884782,0.8556063735127197 l -29.417204536127006 6.411342811135466" fill="#a7ff21" stroke="none" /><path d="M 120.51834098615036 95.52812308129327 l 14.048756302591409 -3.061861048537009 a35.378544666625686,35.378544666625686 0 0,0 0.12423308911520793,0.5945003043007953 l -14.099247102530983 2.8202442929508096" fill="#ff870c" stroke="none" /><path d="M 120.65975698304385 96.23510406497455 l 28.217729262174185 -5.142210253586256 a49.68244360241032,49.68244360241032 0 0,0 0.1457001122231531,0.8403595290050416 l -28.301844191889572 4.657057691660622" fill="#b9ff1f" stroke="none" /><path d="M 120.82617615685814 97.30363454192243 l 29.916403537875617 -3.8732773852426097 a51.16609816240822,51.16609816240822 0 0,0 0.1052996198482162,0.8720319075944402 l -29.978485243983496 3.3591518007247565" fill="#a7ff21" stroke="none" /><path d="M 120.86939407059847 97.66154086499901 l 29.545280450782716 -3.31061030006788 a50.73018226439789,50.73018226439789 0 0,0 0.08954507073858314,0.8662673306559867 l -29.597757914002965 2.8029384471289616" fill="#acff21" stroke="none" /><path d="M 120.93736805541906 98.37931529534042 l 21.117003803337298 -1.6345896476443196 a42.180173109451864,42.180173109451864 0 0,0 0.04968430476664936,0.72239888710109 l -21.141952069269013 1.2718473363888954" fill="#ffe515" stroke="none" /><path d="M 120.98066250479742 99.09900007780936 l 60.17524276926111 -2.5841838426460475 a81.23070519653663,81.23070519653663 0 0,0 0.04786930487018551,1.3936625813024255 l -60.210736761128146 1.550814996779502" fill="#49edff" stroke="none" /><line stroke="#e1ed5e" stroke-width="0.3" x1="184.99686870605535" x2="189.99668451229388" y1="99.2704041080226" y2="99.22748670261217" /><path d="M 185.99683186730306 99.26182062694052 a86.0,86.0 0 0,1 -10.086455211305974,41.156179273409016" fill="none" id="id112" stroke="none" /><text fill="#e1ed5e" style="font-size:6.75px; font-family:Arial;" text-anchor="middle"><textPath startOffset="21.40746469413373" xlink:href="#id112">April</textPath></text><path d="M 120.99922638620191 100.18025310272382 l 15.039662466994494 0.12909741405407776 a36.040216529805626,36.040216529805626 0 0,0 -0.010620825961595493,0.6186098665386144 l -15.035230209434232 -0.38725419656176324" fill="#ff900d" stroke="none" /><path d="M 120.98066250479742 100.90099992219065 l 28.07883351195708 1.2058259267881801 a49.104713262332325,49.104713262332325 0 0,0 -0.0433954965876021,0.8418610405993989 l -28.053996425912903 -1.6876587607643097" fill="#c0ff1e" stroke="none" /><path d="M 120.86939407059847 102.33845913500097 l 28.309963386460147 3.17219044638571 a49.48713427445546,49.48713427445546 0 0,0 -0.10184431906332658,0.8434170603699007 l -28.251336981137158 -3.657701183679019" fill="#bbff1f" stroke="none" /><path d="M 120.82617615685814 102.69636545807757 l 19.9226597594717 2.579387171407448 a41.08894248266181,41.08894248266181 0 0,0 -0.0965697438317588,0.6987305602025121 l -19.87544549908473 -2.9210060398100453" fill="#ffd714" stroke="none" /><path d="M 120.7213421655516 103.40968896794604 l 30.22967106534218 4.974280870063076 a51.63619563348331,51.63619563348331 0 0,0 -0.15142973962356013,0.8734064972613707 l -30.13982650822639 -5.492480400245034" fill="#a1ff22" stroke="none" /><path d="M 120.51834098615036 104.47187691870673 l 59.23604850861074 12.91022106806053 a81.62658864673716,81.62658864673716 0 0,0 -0.31013881819571987,1.366528857422668 l -59.00569882885736 -13.925184259422213" fill="#4ae9ff" stroke="none" /><path d="M 120.26092885502905 105.52220625578681 l 18.870303508352027 5.143185133713743 a40.55864790359949,40.55864790359949 0 0,0 -0.1888517024490545,0.6701680685598514 l -18.779233313828392 -5.466361126176603" fill="#ffcf13" stroke="none" /><path d="M 120.05942366710727 106.21446072829308 l 32.58891592653241 10.096129458353763 a55.11699387851216,55.11699387851216 0 0,0 -0.28775082330352314,0.9013753556058824 l -32.41080038745163 -10.654073847651029" fill="#78ff26" stroke="none" /><path d="M 119.4528033332814 107.91128576633889 l 37.18061110557287 15.121030855231602 a61.13780532501391,61.13780532501391 0 0,0 -0.4037254057304315,0.9687940026796457 l -36.91555985530595 -15.757057367352525" fill="#37ff2e" stroke="none" /><path d="M 119.0197475246899 108.90220220490707 l 45.851016293581175 21.460590778930616 a71.62482248596007,71.62482248596007 0 0,0 -0.5307765725597471,1.1091188959162126 l -45.475860463061515 -22.244522176911932" fill="#3cffa8" stroke="none" /><line stroke="#e1ed5e" stroke-width="0.3" x1="174.33088141563837" x2="178.70328620479359" y1="141.23008692659167" y2="143.65538615756765" /><path d="M 175.20536237346943 141.71514677278685 a86.0,86.0 0 0,1 -30.301960400862466,31.631185727798858" fill="none" id="id113" stroke="none" /><text fill="#e1ed5e" style="font-size:6.75px; font-family:Arial;" text-anchor="middle"><textPath startOffset="22.145653131862474" xlink:href="#id113">May</textPath></text><path d="M 118.18653347947321 110.5 l 30.138414549717286 17.4004217532278 a55.800843506455614,55.800843506455614 0 0,0 -0.4860686321078809,0.8254508020721387 l -29.835272207479637 -17.91522372359349" fill="#71ff27" stroke="none" /><path d="M 117.81537515405839 111.11811171558189 l 23.711772449897722 14.797899723844107 a48.950420192774814,48.950420192774814 0 0,0 -0.45100191879908197,0.7090499257797669 l -23.454252839472748 -15.202763324302547" fill="#c2ff1e" stroke="none" /><path d="M 117.62189284568427 111.42229804090321 l 18.71434629347437 12.130413167112648 a43.30187617212816,43.30187617212816 0 0,0 -0.40966783544203705,0.6202893170593575 l -18.503354019111608 -12.449882362511067" fill="#fff417" stroke="none" /><path d="M 116.79662413953412 112.60449989151573 l 28.554717882733318 21.427992640975862 a56.70057117168023,56.70057117168023 0 0,0 -0.5908956135144643,0.7735013260944568 l -28.18267029186455 -21.915014880311194" fill="#67ff28" stroke="none" /><path d="M 116.35404254752997 113.17365903436017 l 21.411296907822834 17.247425162759516 a48.49395042586521,48.49395042586521 0 0,0 -0.5277831722626574,0.6438096538170295 l -21.11206691632155 -17.612437098275038" fill="#c7ff1e" stroke="none" /><path d="M 116.1254893667686 113.45245675266167 l 21.0480174440432 17.559004750502023 a48.41053969101848,48.41053969101848 0 0,0 -0.5378305758794868,0.6335630660302882 l -20.7434923046566 -17.917734598981866" fill="#c8ff1d" stroke="none" /><path d="M 115.6541949942343 113.99807769240083 l 24.838075258757755 22.210360055553675 a54.320115191233185,54.320115191233185 0 0,0 -0.6275326112346238,0.6897682672800374 l -24.453144946681252 -22.633465898391385" fill="#82ff25" stroke="none" /><path d="M 115.16444852881244 114.52719865689866 l 28.44699352582392 27.25157630071213 a60.3939062740902,60.3939062740902 0 0,0 -0.7236144737439131,0.7424921970170475 l -27.9749922509292 -27.735891189796916" fill="#3eff2d" stroke="none" /><path d="M 114.65682725009322 115.03919595460226 l 18.851271270620888 19.343065030013804 a48.009712943196554,48.009712943196554 0 0,0 -0.5951547249915385,0.5701447635973526 l -18.516444059764037 -19.66382192391674" fill="#cdff1d" stroke="none" /><path d="M 112.7482090630111 116.68781488649013 l 24.850998299344194 32.53075450160396 a61.936806237390265,61.936806237390265 0 0,0 -0.8504425216649756,0.6381879229431778 l -24.288902788768453 -32.95256145181116" fill="#2fff31" stroke="none" /><path d="M 111.8722381534696 117.32195027204791 l 21.807546759536674 31.817862448594727 a59.57389617950296,59.57389617950296 0 0,0 -0.8485130228482423,0.5709174297053426 l -21.25813744859143 -32.18752955235719" fill="#47ff2c" stroke="none" /><line stroke="#e1ed5e" stroke-width="0.3" x1="143.1302829299769" x2="145.66735839644613" y1="173.24464959558577" y2="177.55315839532614" /><path d="M 143.63769802327073 174.10635135553383 a86.0,86.0 0 0,1 -40.68552437913181,11.842963189579606" fill="none" id="id114" stroke="none" /><text fill="#e1ed5e" style="font-size:6.75px; font-family:Arial;" text-anchor="middle"><textPath startOffset="21.407464694133747" xlink:href="#id114">June</textPath></text><path d="M 110.34350942703117 118.27599006163325 l 16.627065239989737 29.378431104441894 a54.75724385451682,54.75724385451682 0 0,0 -0.8220256840804957,0.4559637900836079 l -16.120295367753148 -29.659527809958643" fill="#7dff26" stroke="none" /><line stroke="#e1ed5e" stroke-width="0.3" x1="101.45913802915013" x2="101.54496967792366" y1="184.9874750549273" y2="189.98673829345242" /><path d="M 101.47630435890484 185.9873277026323 a86.0,86.0 0 0,1 -42.54439059252881,-10.42667462771756" fill="none" id="id115" stroke="none" /><text fill="#e1ed5e" style="font-size:6.75px; font-family:Arial;" text-anchor="middle"><textPath startOffset="22.145653131862474" xlink:href="#id115">July</textPath></text><line stroke="#e1ed5e" stroke-width="0.3" x1="58.13341422392154" x2="55.67067388415222" y1="173.97424548756322" y2="178.32567169271397" /><path d="M 57.64086615596768 174.84453072859336 a86.0,86.0 0 0,1 -31.369924170532247,-30.572349798747897" fill="none" id="id116" stroke="none" /><text fill="#e1ed5e" style="font-size:6.75px; font-family:Arial;" text-anchor="middle"><textPath startOffset="22.145653131862474" xlink:href="#id116">August</textPath></text><line stroke="#e1ed5e" stroke-width="0.3" x1="26.387840678322732" x2="22.057713659400548" y1="142.50000000000003" y2="145.00000000000006" /><path d="M 25.521815274538298 143.00000000000003 a86.0,86.0 0 0,1 -11.493303480769221,-40.785679425670985" fill="none" id="id117" stroke="none" /><text fill="#e1ed5e" style="font-size:6.75px; font-family:Arial;" text-anchor="middle"><textPath startOffset="21.40746469413373" xlink:href="#id117">September</textPath></text><line stroke="#e1ed5e" stroke-width="0.3" x1="15.003131293944662" x2="10.003315487706104" y1="100.72959589197737" y2="100.7725132973878" /><path d="M 14.003168132696942 100.73817937305945 a86.0,86.0 0 0,1 10.791469493833604,-42.45332614584628" fill="none" id="id118" stroke="none" /><text fill="#e1ed5e" style="font-size:6.75px; font-family:Arial;" text-anchor="middle"><textPath startOffset="22.145653131862435" xlink:href="#id118">October</textPath></text><line stroke="#e1ed5e" stroke-width="0.3" x1="26.387840678322718" x2="22.05771365940052" y1="57.49999999999999" y2="54.99999999999999" /><path d="M 25.521815274538284 56.99999999999999 a86.0,86.0 0 0,1 29.574782752854787,-30.34633250058573" fill="none" id="id119" stroke="none" /><text fill="#e1ed5e" style="font-size:6.75px; font-family:Arial;" text-anchor="middle"><textPath startOffset="21.40746469413373" xlink:href="#id119">November</textPath></text><line stroke="#e1ed5e" stroke-width="0.3" x1="56.869717070023135" x2="54.33264160355391" y1="26.7553504044142" y2="22.446841604673864" /><path d="M 56.362301976729285 25.89364864446614 a86.0,86.0 0 0,1 42.16139366436587,-11.88097634709845" fill="none" id="id120" stroke="none" /><text fill="#e1ed5e" style="font-size:6.75px; font-family:Arial;" text-anchor="middle"><textPath startOffset="22.145653131862474" xlink:href="#id120">December</textPath></text></svg>