<?xml version="1.0" encoding="utf-8" ?>
<svg baseProfile="full" height="200mm" version="1.1" viewBox="0,0,200,200" width="200mm" xmlns="http://www.w3.org/2000/svg" xmlns:ev="http://www.w3.org/2001/xml-events" xmlns:xlink="http://www.w3.org/1999/xlink"><defs /><rect fill="#1a1a1a" height="200" width="200" x="0" y="0" /><text alignment-baseline="middle" fill="#e1ed5e" style="dominant-baseline: central; font-size:9.0px; font-family:Arial;" text-anchor="middle" x="100.0" y="100.0">2015</text><line stroke="#e1ed5e" stroke-width="0.3" x1="100.0" x2="100.0" y1="15.0" y2="10.0" /><path d="M 100.0 14.0 a86.0,86.0 0 0,1 42.46469731375804,11.215312516191453" fill="none" id="id1" stroke="none" /><text fill="#e1ed5e" style="font-size:6.75px; font-family:Arial;" text-anchor="middle"><textPath startOffset="22.20632615414155" xlink:href="#id1">January</textPath></text><path d="M 102.16513564639614 79.11191278185805 l 0.6979086735723948 -6.733054932674995 a27.76912883930175,27.76912883930175 0 0,0 0.47502836636216783,0.05337497183573602 l -0.813703743444288 6.720044007368658" fill="#ff1e03" stroke="none" /><path d="M 102.52436894288641 79.15227682838746 l 1.3843332086325337 -11.432637686408063 a32.516144446002784,32.516144446002784 0 0,0 0.5550742318858762,0.07206456603591013 l -1.580922169026256 11.407114797208017" fill="#ff6509" stroke="none" /><path d="M 102.88285421437855 79.19881850522331 l 0.9089036679898761 -6.558177678506428 a27.620860996920673,27.620860996920673 0 0,0 0.47038460379843405,0.0693224631790894 l -1.021657252216966 6.541560731166369" fill="#ff1c02" stroke="none" /><path d="M 103.2404852339499 79.25152402106235 l 1.0427242303124844 -6.6764503101665085 a27.757385778879524,27.757385778879524 0 0,0 0.471440420060117,0.07779170876731319 l -1.1574938565114765 6.65751233845957" fill="#ff1e03" stroke="none" /><path d="M 103.95276090670814 79.375362276772 l 1.6640508234546207 -8.682651492668445 a29.8406731692885,29.8406731692885 0 0,0 0.5036446159670923,0.10102637192044792 l -1.8132618488888386 8.652721164670789" fill="#ff3d05" stroke="none" /><path d="M 105.01212808612495 79.60689891045804 l 2.1447962637735323 -8.726641911783565 a29.986346870091005,29.986346870091005 0 0,0 0.5001881318762142,0.1275090919685797 l -2.2946932843347714 8.688429823646116" fill="#ff3f05" stroke="none" /><path d="M 105.71112130821622 79.79150937346287 l 2.4111859390238775 -8.531849669784219 a29.86601807015661,29.86601807015661 0 0,0 0.493514306094916,0.14407035900243156 l -2.5576904628422206 8.489080981863083" fill="#ff3e05" stroke="none" /><path d="M 106.40334571778207 80.00007090966166 l 2.729619502709617 -8.52557380217573 a29.951884231038616,29.951884231038616 0 0,0 0.4896664934629532,0.16143534416808436 l -2.875968818414988 8.477324733748409" fill="#ff3f05" stroke="none" /><path d="M 107.08798089147638 80.2323363322302 l 3.0092068047414835 -8.392374208348565 a29.915563383581357,29.915563383581357 0 0,0 0.48323275400864485,0.17797870147035347 l -3.1532218845227047 8.339332239071888" fill="#ff3e05" stroke="none" /><line stroke="#e1ed5e" stroke-width="0.3" x1="143.23703022742887" x2="145.7803849466894" y1="26.81831364943548" y2="22.513508569990506" /><path d="M 143.74570117128098 25.957352633546492 a86.0,86.0 0 0,1 28.547481713284135,27.462654790039103" fill="none" id="id2" stroke="none" /><text fill="#e1ed5e" style="font-size:6.75px; font-family:Arial;" text-anchor="middle"><textPath startOffset="19.985693538727396" xlink:href="#id2">February</textPath></text><line stroke="#e1ed5e" stroke-width="0.3" x1="172.23445277983987" x2="176.4835382374775" y1="55.19839476539836" y2="52.563006222186495" /><path d="M 173.08426987136738 54.67131705675599 a86.0,86.0 0 0,1 12.851231095245387,41.99856678651699" fill="none" id="id3" stroke="none" /><text fill="#e1ed5e" style="font-size:6.75px; font-family:Arial;" text-anchor="middle"><textPath startOffset="22.20632615414155" xlink:href="#id3">March</textPath></text><path d="M 120.94382443527127 98.46500227214037 l 11.175059094772276 -0.8190333323404027 a32.20503285899409,32.20503285899409 0 0,0 0.035762015855005755,0.5532225566340607 l -11.187501701631698 0.6265517114533067" fill="#ff6008" stroke="none" /><line stroke="#e1ed5e" stroke-width="0.3" x1="184.98032266829074" x2="189.97916517819016" y1="98.17113171792111" y2="98.06355123074" /><path d="M 185.9800911702706 98.14961562048488 a86.0,86.0 0 0,1 -9.607161424134198,41.387399972396054" fill="none" id="id4" stroke="none" /><text fill="#e1ed5e" style="font-size:6.75px; font-family:Arial;" text-anchor="middle"><textPath startOffset="21.466115282336823" xlink:href="#id4">April</textPath></text><path d="M 120.5718875245553 104.21870165774334 l 8.77821938601041 1.8001599819945229 a29.960899036910497,29.960899036910497 0 0,0 -0.1079533441098924,0.504322084162632 l -8.745932003176073 -1.9509958855733238" fill="#ff3f05" stroke="none" /><path d="M 119.12269723197855 108.67885076344098 l 8.73675819207267 3.9651843871934735 a30.594458344856776,30.594458344856776 0 0,0 -0.22177395924398294,0.4776813782739171 l -8.667209615988856 -4.114985832746221" fill="#ff4906" stroke="none" /><line stroke="#e1ed5e" stroke-width="0.3" x1="174.80103733775053" x2="179.2010983576182" y1="140.37084112569926" y2="142.7455964860345" /><path d="M 175.68104954172406 140.8457921977663 a86.0,86.0 0 0,1 -30.038265399797805,32.042727171017184" fill="none" id="id5" stroke="none" /><text fill="#e1ed5e" style="font-size:6.75px; font-family:Arial;" text-anchor="middle"><textPath startOffset="22.206326154141568" xlink:href="#id5">May</textPath></text><path d="M 116.498646956653 112.99209946851258 l 8.819406761945569 6.944970106064626 a32.22562004553791,32.22562004553791 0 0,0 -0.34693502215343636,0.4328547838347163 l -8.698553827737278 -7.095752723477593" fill="#ff6108" stroke="none" /><path d="M 116.27256486870786 113.27417163493432 l 4.907498375719148 4.003239579196721 a27.333203568189894,27.333203568189894 0 0,0 -0.30054028760091045,0.3620201371195115 l -4.837862088224694 -4.087120973430003" fill="#ff1702" stroke="none" /><path d="M 116.0416608686014 113.55231037782055 l 4.2848658838756695 3.619938911642153 a26.609281002661803,26.609281002661803 0 0,0 -0.2986036372958682,0.34734349036550943 l -4.2219197370090225 -3.6931595011691907" fill="#ff0c01" stroke="none" /><path d="M 115.80600337817218 113.82643327865902 l 6.803327501478023 5.951267472329856 a30.038962861942657,30.038962861942657 0 0,0 -0.34379042331476867,0.3862521850913973 l -6.699878228514916 -6.06749382716212" fill="#ff4006" stroke="none" /><path d="M 115.32070863581623 114.36230785411682 l 8.163576402387697 7.652896499029922 a32.18976338009369,32.18976338009369 0 0,0 -0.38243500361879496,0.4009815723393109 l -8.030634847389937 -7.792285187951741" fill="#ff6008" stroke="none" /><path d="M 115.07121518719521 114.62390073753431 l 8.063815591916105 7.82448112625673 a32.235996920415076,32.235996920415076 0 0,0 -0.3898396966009663,0.394905554466038 l -7.927935270259603 -7.962127174703433" fill="#ff6108" stroke="none" /><path d="M 114.81725581225074 114.88116024355365 l 7.951420357444234 7.985713549276204 a32.26928154728029,32.26928154728029 0 0,0 -0.39698906783517945,0.3885373579996366 l -7.81278133723326 -8.121401010198412" fill="#ff6109" stroke="none" /><path d="M 114.29624159901734 115.38237550388516 l 7.641780710452594 8.22235267866541 a32.22514570056895,32.22514570056895 0 0,0 -0.409566947903705,0.37412969617142794 l -7.499114213082025 -8.352675141423422" fill="#ff6108" stroke="none" /><path d="M 114.0293411484842 115.62618273729858 l 7.498749787112041 8.352269235918602 a32.22460020486187,32.22460020486187 0 0,0 -0.41593925285979766,0.3670180302210915 l -7.353868181345656 -8.480110407911981" fill="#ff6108" stroke="none" /><path d="M 113.75828350139079 115.86535959552629 l 14.559309424879084 16.78906234668675 a43.222648478754905,43.222648478754905 0 0,0 -0.5662877519180973,0.48260270753501316 l -14.26815619638394 -17.03718944444471" fill="#fff917" stroke="none" /><path d="M 112.92097659922987 116.55440617244103 l 8.27813401857957 10.60597794919276 a34.454154417440265,34.454154417440265 0 0,0 -0.4706622422101237,0.3608837372591209 l -8.094343047875952 -10.74690102827925" fill="#ff810b" stroke="none" /><path d="M 112.63410532772338 116.77436683061366 l 8.09560849878942 10.748581173986288 a34.45625780889486,34.45625780889486 0 0,0 -0.47683363725702643,0.35275012536047806 l -7.909389891113829 -10.886341248086536" fill="#ff810b" stroke="none" /><path d="M 112.34349029814194 116.9893568818739 l 7.956619668108221 10.9513474592495 a34.53660990485199,34.53660990485199 0 0,0 -0.48396097541626076,0.3452933059986404 l -7.766931364843075 -11.086685027092361" fill="#ff820c" stroke="none" /><path d="M 112.04921762599082 117.19931262002967 l 7.725327542666808 11.027298835722206 a34.46410061065375,34.46410061065375 0 0,0 -0.4888045283117859,0.33620421173050025 l -7.53436612973214 -11.1586438368178" fill="#ff810b" stroke="none" /><path d="M 111.7513745106137 117.40417183066458 l 7.548599057193252 11.179723270118378 a34.48953520780776,34.48953520780776 0 0,0 -0.4948842660386328,0.32798230631618364 l -7.355040092414655 -11.30800359752588" fill="#ff810b" stroke="none" /><path d="M 111.1453310114006 117.79835938074945 l 7.001662511480677 11.18119376755895 a34.192511966732226,34.192511966732226 0 0,0 -0.5015240424912842,0.3080770291530682 l -6.808159269057084 -11.300059263540396" fill="#ff7d0b" stroke="none" /><line stroke="#e1ed5e" stroke-width="0.3" x1="143.8653032363475" x2="146.44561519142675" y1="172.8068346515853" y2="177.08958963109032" /><path d="M 144.38136562736335 173.6633856474863 a86.0,86.0 0 0,1 -40.68145358897372,12.25698825130547" fill="none" id="id6" stroke="none" /><text fill="#e1ed5e" style="font-size:6.75px; font-family:Arial;" text-anchor="middle"><textPath startOffset="21.466115282336833" xlink:href="#id6">June</textPath></text><path d="M 110.8373102113329 117.98757091392108 l 7.299538967583003 12.11564237415886 a35.144683074490445,35.144683074490445 0 0,0 -0.5208645016812593,0.30773592857242854 l -7.089906594873361 -12.239496875025038" fill="#ff8b0c" stroke="none" /><line stroke="#e1ed5e" stroke-width="0.3" x1="102.19456741930631" x2="102.32365962044197" y1="184.97166512339345" y2="189.96999836594603" /><path d="M 102.22038585953345 185.97133177190398 a86.0,86.0 0 0,1 -42.740103519485714,-10.115201625700543" fill="none" id="id7" stroke="none" /><text fill="#e1ed5e" style="font-size:6.75px; font-family:Arial;" text-anchor="middle"><textPath startOffset="22.20632615414155" xlink:href="#id7">July</textPath></text><path d="M 90.10565033884886 118.52300852407294 l -10.592121151506182 19.829292181547583 a43.48096659197217,43.48096659197217 0 0,0 -0.6571365197235098,-0.3583232256791476 l 10.931880483098332 -19.64402830410867" fill="#fffc17" stroke="none" /><line stroke="#e1ed5e" stroke-width="0.3" x1="58.666819895761336" x2="56.23545636021788" y1="174.27360380694188" y2="178.64263932499728" /><path d="M 58.180547188652646 175.14741091055294 a86.0,86.0 0 0,1 -31.652253787137756,-30.449443065178592" fill="none" id="id8" stroke="none" /><text fill="#e1ed5e" style="font-size:6.75px; font-family:Arial;" text-anchor="middle"><textPath startOffset="22.20632615414155" xlink:href="#id8">August</textPath></text><path d="M 89.1626897886671 117.98757091392108 l -11.538023788893506 19.150602599914354 a43.35780787315516,43.35780787315516 0 0,0 -0.6359574604890713,-0.3906570144114431 l 11.865960449314887 -18.94915711867453" fill="#fffa17" stroke="none" /><path d="M 88.54995079064634 117.60387380957326 l -12.15248580942098 18.68383469364605 a43.28830613141497,43.28830613141497 0 0,0 -0.6211362802897797,-0.411655257049923 l 12.472296788450722 -18.47188141550481" fill="#fff917" stroke="none" /><path d="M 88.24862548938628 117.40417183066458 l -12.576877676123337 18.626769146945392 a43.47519479189816,43.47519479189816 0 0,0 -0.6166089265926497,-0.4241092422507964 l 12.895643487338877 -18.407519115329492" fill="#fffc17" stroke="none" /><path d="M 87.95078237400918 117.19931262002967 l -12.879085173970308 18.383883422380258 a43.44633610650187,43.44633610650187 0 0,0 -0.6088128295826519,-0.4343717889240356 l 13.193625331401847 -18.159467371612003" fill="#fffc17" stroke="none" /><path d="M 86.24171649860922 115.8653595955263 l -14.652696668662957 16.896751812753994 a43.365190396812004,43.365190396812004 0 0,0 -0.5597364987960809,-0.4939023807407622 l 14.941375520365625 -16.642026290240942" fill="#fffa17" stroke="none" /><path d="M 85.97065885151581 115.62618273729859 l -15.067664611281458 16.78268980333766 a43.55422784918866,43.55422784918866 0 0,0 -0.55355443026532,-0.5056588473985044 l 15.354318591013632 -16.52083818935258" fill="#fffd17" stroke="none" /><path d="M 85.44109423537348 115.13401014063109 l -15.439288922304643 16.049170101918424 a43.269878836372484,43.269878836372484 0 0,0 -0.5323226313366879,-0.5209897338252221 l 15.713261506017124 -15.781030265170632" fill="#fff917" stroke="none" /><path d="M 85.18274418774928 114.88116024355367 l -16.430866689733108 16.501730364149367 a44.2869166096946,44.2869166096946 0 0,0 -0.5355751266864649,-0.5425347757204538 l 16.712482441475107 -16.216455094448246" fill="#f8ff18" stroke="none" /><path d="M 84.9287848128048 114.62390073753433 l -15.936863711366787 15.463856768540634 a43.20618137169512,43.20618137169512 0 0,0 -0.5133171043890695,-0.5382109317371998 l 16.20068736713481 -15.187238720220934" fill="#fff817" stroke="none" /><path d="M 84.67929136418377 114.36230785411682 l -16.67301486920504 15.630019348320593 a43.85359773990976,43.85359773990976 0 0,0 -0.5115283947000608,-0.5551630443619819 l 16.93958967190083 -15.340705049157267" fill="#fdff18" stroke="none" /><path d="M 84.43433777217949 114.09645910891817 l -20.077955141645784 18.18284821438866 a48.08764020466599,48.08764020466599 0 0,0 -0.5503542268802971,-0.6183288081651207 l 20.38796821817442 -17.834545236482676" fill="#c8ff1d" stroke="none" /><path d="M 84.19399662182784 113.82643327865904 l -16.84370745271208 14.734173572415566 a43.37870308160457,43.37870308160457 0 0,0 -0.4867864907754885,-0.5662426630161956 l 17.09483645305835 -14.44205381023784" fill="#fffb17" stroke="none" /><path d="M 83.95833913139862 113.55231037782056 l -16.98715332365705 14.351080986160888 a43.237736024892044,43.237736024892044 0 0,0 -0.4754174382711866,-0.5726709306290722 l 17.231666761821774 -14.056548798418055" fill="#fff917" stroke="none" /><path d="M 83.50135304334701 112.99209946851258 l -17.570036389157014 13.835780657229243 a43.36369837730916,43.36369837730916 0 0,0 -0.4567502124415569,-0.5904112201289584 l 17.80559341881664 -13.531291442987033" fill="#fffa17" stroke="none" /><path d="M 83.28015986056508 112.70617746262583 l -26.412104410537147 20.071775986072897 a54.17341481711234,54.17341481711234 0 0,0 -0.5578281237549563,-0.7473019307389077 l 26.75369380098719 -19.61416117582468" fill="#80ff26" stroke="none" /><path d="M 83.06392112726016 112.41649034213515 l -18.08155203590159 13.256280743115488 a43.42033682100497,43.42033682100497 0 0,0 -0.4367263123073203,-0.6065746506321628 l 18.307058140584516 -12.943072487032186" fill="#fffb17" stroke="none" /><path d="M 82.6465618267979 111.8261652097733 l -18.454456405816003 12.576496261632055 a43.332380514692304,43.332380514692304 0 0,0 -0.41474637707684425,-0.6199895602024766 l 18.66820588830358 -12.256969787223758" fill="#fffa17" stroke="none" /><path d="M 82.44556493220864 111.52570212397912 l -19.76359817326757 12.976170669316756 a44.6427751753812,44.6427751753812 0 0,0 -0.4162303935567427,-0.6459988140648251 l 19.984033430201357 -12.634050255330482" fill="#f3ff19" stroke="none" /><line stroke="#e1ed5e" stroke-width="0.3" x1="26.63291911575756" x2="22.317208475507996" y1="142.92168965132927" y2="145.44649492493687" /><path d="M 25.769776987707644 143.4266507060508 a86.0,86.0 0 0,1 -11.730757126820373,-40.83630448921669" fill="none" id="id9" stroke="none" /><text fill="#e1ed5e" style="font-size:6.75px; font-family:Arial;" text-anchor="middle"><textPath startOffset="21.46611528233685" xlink:href="#id9">September</textPath></text><path d="M 81.02952815118164 109.00673069616217 l -42.109502844883224 19.992594538272474 a67.61452634335129,67.61452634335129 0 0,0 -0.490126056181442,-1.0556879213539043 l 42.4474035179045 -19.26478654963974" fill="#37ff7b" stroke="none" /><path d="M 80.87730276802145 108.67885076344099 l -24.489033739956167 11.114366691667826 a47.89315750285873,47.89315750285873 0 0,0 -0.33424615297204474,-0.7536368365446187 l 24.676720977659492 -10.691181518630511" fill="#caff1d" stroke="none" /><path d="M 80.73074385275274 108.34839909993369 l -22.63862205740074 9.80817580935747 a45.671998730648,45.671998730648 0 0,0 -0.3063264861046662,-0.7240653257702656 l 22.804099524697715 -9.417035957921046" fill="#e6ff1a" stroke="none" /><path d="M 80.45479744820244 107.68017299344265 l -21.10003322210282 8.291134608796007 a43.67056053729192,43.67056053729192 0 0,0 -0.2688977757538002,-0.7020072409797934 l 21.23962527745013 -7.926703800983057" fill="#fffe18" stroke="none" /><path d="M 80.32549172779594 107.34259656027581 l -25.998508904907556 9.702736120077315 a48.75005501786276,48.75005501786276 0 0,0 -0.2866404318745987,-0.7887113613519937 l 26.161673597787377 -9.253776961719206" fill="#c0ff1e" stroke="none" /><path d="M 80.20201598880116 107.00284435728193 l -21.198769781820747 7.498323327464534 a43.48583316192298,43.48583316192298 0 0,0 -0.2435396525673887,-0.7078402287452356 l 21.324700265331366 -7.132310395630001" fill="#fffc17" stroke="none" /><path d="M 79.97269907076064 106.31721596034903 l -26.42788329139003 8.336153070075797 a48.71145003912763,48.71145003912763 0 0,0 -0.2453508231688053,-0.8018206860192817 l 26.567460887064968 -7.8800054115044675" fill="#c0ff1e" stroke="none" /><path d="M 79.86692584326677 105.97154293290107 l -22.704507774214125 6.734239485168874 a44.68215899602393,44.68215899602393 0 0,0 -0.21236230798233294,-0.7392610534039801 l 22.81706271908256 -6.342420956260297" fill="#f3ff19" stroke="none" /><path d="M 79.76711848015287 105.62410040840567 l -29.85393861461974 8.298449639528625 a51.98583413796176,51.98583413796176 0 0,0 -0.2322329096885534,-0.8642250497140496 l 29.99235960065007 -7.783333656639037" fill="#99ff23" stroke="none" /><path d="M 79.67330655649465 105.27499134158121 l -11.978044517556322 3.1084288890760075 a33.37480830651543,33.37480830651543 0 0,0 -0.13952050270873112,-0.5573150542163638 l 12.029776334560111 -2.901785995462252" fill="#ff710a" stroke="none" /><path d="M 79.58551787078972 104.9243191809786 l -30.26149150243481 7.299584780416143 a52.12943632509939,52.12943632509939 0 0,0 -0.2029062201701326,-0.8741146859437741 l 30.382658288535502 -6.777601437123795" fill="#97ff23" stroke="none" /><path d="M 79.50377843672027 104.57218783832718 l -21.797893867924145 4.862557956663767 a43.33366622297376,43.33366622297376 0 0,0 -0.1561373100169306,-0.7294215316120851 l 21.878365216665514 -4.486622605635517" fill="#fffa17" stroke="none" /><path d="M 79.4281124754447 104.21870165774334 l -46.46199505496857 9.528017073129316 a68.42889513612738,68.42889513612738 0 0,0 -0.22669537242959398,-1.1559148200689324 l 46.619120360373834 -8.726838525992429" fill="#38ff84" stroke="none" /><path d="M 79.35854240842038 103.8639653848113 l -18.494605513867864 3.46208668618817 a39.81585707153073,39.81585707153073 0 0,0 -0.12030751345252362,-0.6747484264401983 l 18.551459469659576 -3.143219509014758" fill="#ffcb13" stroke="none" /><path d="M 79.29508885075956 103.50808413554451 l -11.3969312419293 1.9310101548139456 a32.55936165846794,32.55936165846794 0 0,0 -0.08886883282760176,-0.5533863068494106 l 11.428481829118194 -1.7345446182713213" fill="#ff6509" stroke="none" /><path d="M 79.23777060512086 103.15116336523772 l -22.37420609904037 3.39581926606417 a43.63043718203667,43.63043718203667 0 0,0 -0.10630441537997952,-0.743492833574596 l 22.42934456543695 -3.0101809605091736" fill="#fffe18" stroke="none" /><path d="M 79.18660465613746 102.79330883721812 l -28.782223746670997 3.862783491981912 a50.04027376092312,50.04027376092312 0 0,0 -0.10722556171981369,-0.8546932270781318 l 28.84445081763766 -3.3667725106163715" fill="#b0ff20" stroke="none" /><path d="M 79.1416061653843 102.43462659150553 l -25.329767909566687 2.956532847076274 a46.5017299183478,46.5017299183478 0 0,0 -0.08595667293571144,-0.7958520367321271 l 25.37690688400345 -2.5200844884593647" fill="#dcff1b" stroke="none" /><path d="M 79.10278846688536 102.07522291339032 l -22.034269433948968 2.1881398260570437 a43.142650821124256,43.142650821124256 0 0,0 -0.06702601908173077,-0.7396265353788198 l 22.068670049307773 -1.8085319021296575" fill="#fff817" stroke="none" /><path d="M 79.04373962182676 101.35467743843564 l -32.75174705745665 2.117174152612576 a53.82010605875781,53.82010605875781 0 0,0 -0.05180479709845539,-0.9250094526872462 l 32.78333820544263 -1.5530929835898921" fill="#84ff25" stroke="none" /><path d="M 79.0235259727143 100.99374915477108 l -62.92942208185711 2.9812474643132365 a84.0,84.0 0 0,0 -0.05599146859519655,-1.4448910119440128 l 62.97141568330351 -1.8975792053552267" fill="#4dd2ff" stroke="none" /><line stroke="#e1ed5e" stroke-width="0.3" x1="15.007084014347285" x2="10.007500721073583" y1="101.09737516637583" y2="101.16192664675087" /><path d="M 14.007167355692545 101.11028546245083 a86.0,86.0 0 0,1 10.666146001902534,-42.60595125391555" fill="none" id="id10" stroke="none" /><text fill="#e1ed5e" style="font-size:6.75px; font-family:Arial;" text-anchor="middle"><textPath startOffset="22.20632615414155" xlink:href="#id10">October</textPath></text><path d="M 79.00175016825051 100.2711162175752 l -22.01684765198531 0.28426771307913573 a43.01868271862398,43.01868271862398 0 0,0 -0.003186870538446343,-0.7405164791879006 l 22.018478819813257 0.0947582443124403" fill="#fff617" stroke="none" /><path d="M 79.00019446554 99.90962569577889 l -21.9666306028516 -0.09453511145888475 a42.966834021529706,42.966834021529706 0 0,0 0.009548852788227449,-0.7395691716531784 l 21.961748742945655 0.4726405411725351" fill="#fff517" stroke="none" /><path d="M 79.00486145842228 99.54816195383935 l -22.018222949622466 -0.47385592706545454 a43.023321304900776,43.023321304900776 0 0,0 0.022307193709557856,-0.7402671592565188 l 22.00680406145726 0.8527932337469677" fill="#fff617" stroke="none" /><path d="M 79.05617556472873 98.46500227214037 l -24.079397205499497 -1.7648075743236429 a45.14398300932568,45.14398300932568 0 0,0 0.06347140003781877,-0.7745118476223123 l 24.04545132164218 2.1790333391537335" fill="#edff1a" stroke="none" /><path d="M 79.12142395522702 97.74499172005258 l -24.83058150338791 -2.6818479749756277 a45.97498921635945,45.97498921635945 0 0,0 0.09175216993911575,-0.7860765599324199 l 24.780738980445207 3.1088682732329094" fill="#e2ff1b" stroke="none" /><path d="M 79.16333360222342 97.38593545837743 l -29.54379834700368 -3.706418013775491 a50.775385056473354,50.775385056473354 0 0,0 0.1162611268044911,-0.8662804352542186 l 29.475621221141353 4.2144167910943695" fill="#a7ff21" stroke="none" /><path d="M 79.21141760316559 97.0276538004421 l -26.149169743534383 -3.7388016087438665 a47.415103932139274,47.415103932139274 0 0,0 0.12247571191816777,-0.8069619157794182 l 26.08093813817691 4.188362636915377" fill="#d0ff1d" stroke="none" /><path d="M 79.26566170972629 96.67025291283419 l -28.36065975153819 -4.55446529692645 a49.72403480856103,49.72403480856103 0 0,0 0.14298770951393497,-0.8439215556214099 l 28.27806018050403 5.041972640863688" fill="#b4ff20" stroke="none" /><path d="M 79.32604984820605 96.31383870115002 l -31.528064050728833 -5.621447700035956 a53.025294643938864,53.025294643938864 0 0,0 0.16794948036704216,-0.897192839809424 l 31.42662884645193 6.1633186173079535" fill="#8dff24" stroke="none" /><path d="M 79.91906864156998 93.8553929516997 l -13.640555100664244 -4.1739025704643975 a35.264859134319785,35.264859134319785 0 0,0 0.18261238316876394,-0.5789311579786992 l 13.566687233727276 4.408083894869511" fill="#ff8c0c" stroke="none" /><path d="M 81.10775173730289 90.83032412892265 l -4.3478107346606905 -2.110284315093873 a25.832882998269454,25.832882998269454 0 0,0 0.19760923762942897,-0.39836816478179815 l 4.310841484077849 2.184812068374632" fill="#ff0000" stroke="none" /><path d="M 81.43458229118936 90.18545643968196 l -19.834639818895997 -10.485513418499036 a43.43566197808431,43.43566197808431 0 0,0 0.35512149365339274,-0.6579861941319659 l 19.651210226024133 10.825380595963475" fill="#fffb17" stroke="none" /><line stroke="#e1ed5e" stroke-width="0.3" x1="26.266209847984243" x2="21.928928074336255" y1="57.711370442889674" y2="55.22380399835377" /><path d="M 25.398753493254645 57.213857153982495 a86.0,86.0 0 0,1 29.58750427330803,-30.492523968695096" fill="none" id="id11" stroke="none" /><text fill="#e1ed5e" style="font-size:6.75px; font-family:Arial;" text-anchor="middle"><textPath startOffset="21.46611528233685" xlink:href="#id11">November</textPath></text><path d="M 85.05521093208273 85.24692304244772 l -9.167574096419616 -9.049972237406095 a33.882018953221774,33.882018953221774 0 0,0 0.4133028701841897,-0.4115280163123992 l 9.010435426068112 9.206436104368604" fill="#ff790b" stroke="none" /><path d="M 85.31137513191541 84.99185889309783 l -8.895315251314916 -9.08881176291638 a33.717434201992276,33.717434201992276 0 0,0 0.41828364723878214,-0.4023885372380047 l 8.737548360463707 9.240583386916699" fill="#ff760a" stroke="none" /><path d="M 86.65592168130627 83.78471172551755 l -13.923042764529308 -16.91882696525498 a42.91113474248084,42.91113474248084 0 0,0 0.5743892447548644,-0.46444948983062223 l 13.629750121209943 17.155982552349734" fill="#fff517" stroke="none" /><path d="M 87.22198572758235 83.33499621200491 l -13.672229556690224 -17.831233593501945 a43.469596180547306,43.469596180547306 0 0,0 0.597714909128697,-0.45018647762612934 l 13.363268493803137 18.06393666063393" fill="#fffc17" stroke="none" /><line stroke="#e1ed5e" stroke-width="0.3" x1="56.762969772571076" x2="54.21961505331055" y1="26.818313649435495" y2="22.513508569990535" /><path d="M 56.25429882871897 25.957352633546506 a86.0,86.0 0 0,1 42.265352541879196,-11.944610805530505" fill="none" id="id12" stroke="none" /><text fill="#e1ed5e" style="font-size:6.75px; font-family:Arial;" text-anchor="middle"><textPath startOffset="22.20632615414155" xlink:href="#id12">December</textPath></text><path d="M 91.56875222667455 80.76684994638697 l -3.156817044673369 -7.201251528166006 a28.862793233034527,28.862793233034527 0 0,0 0.45674166604177874,-0.1955529450242216 l 3.0323916208412824 7.254524001153014" fill="#ff2f04" stroke="none" /></svg>