<?xml version="1.0" encoding="utf-8" ?>
<svg baseProfile="full" height="200mm" version="1.1" viewBox="0,0,200,200" width="200mm" xmlns="http://www.w3.org/2000/svg" xmlns:ev="http://www.w3.org/2001/xml-events" xmlns:xlink="http://www.w3.org/1999/xlink"><defs /><rect fill="#1a1a1a" height="200" width="200" x="0" y="0" /><text alignment-baseline="middle" fill="#e1ed5e" style="dominant-baseline: central; font-size:9.0px; font-family:Arial;" text-anchor="middle" x="100.0" y="100.0">2023</text><line stroke="#e1ed5e" stroke-width="0.3" x1="100.0" x2="100.0" y1="15.0" y2="10.0" /><path d="M 100.0 14.0 a86.0,86.0 0 0,1 42.46469731375804,11.215312516191453" fill="none" id="id97" stroke="none" /><text fill="#e1ed5e" style="font-size:6.75px; font-family:Arial;" text-anchor="middle"><textPath startOffset="22.20632615414155" xlink:href="#id97">January</textPath></text><path d="M 109.41281617654863 81.2277094730956 l 20.2446421633445 -40.37455923662467 a66.1658119585332,66.1658119585332 0 0,0 1.0137217179920266,0.5192676371206576 l -20.936624368925283 40.02009907419151" fill="#4bff2c" stroke="none" /><line stroke="#e1ed5e" stroke-width="0.3" x1="143.23703022742887" x2="145.7803849466894" y1="26.81831364943548" y2="22.513508569990506" /><path d="M 143.74570117128098 25.957352633546492 a86.0,86.0 0 0,1 28.547481713284135,27.462654790039103" fill="none" id="id98" stroke="none" /><text fill="#e1ed5e" style="font-size:6.75px; font-family:Arial;" text-anchor="middle"><textPath startOffset="19.985693538727396" xlink:href="#id98">February</textPath></text><path d="M 110.68208982089419 81.91981866633111 l 10.984056127260002 -18.591280347746917 a42.59363781245112,42.59363781245112 0 0,0 0.6280288573581748,0.3783803594954531 l -11.302447050835816 18.39945337879285" fill="#ff0000" stroke="none" /><path d="M 111.2981086023043 82.29822771554956 l 18.058603277461454 -28.294052946849465 a54.56585444304766,54.56585444304766 0 0,0 0.7873930077380373,0.512142314994252 l -18.542963310983772 27.979011707695683" fill="#fff116" stroke="none" /><path d="M 112.48926042617603 83.11751280151076 l 23.20417794019424 -31.36648797920377 a60.016540620994725,60.016540620994725 0 0,0 0.8252384258299273,0.621552473348323 l -23.740662519782546 30.9624189163496" fill="#adff20" stroke="none" /><path d="M 113.06298171725822 83.55741782278167 l 24.251655933205917 -30.52594378881654 a59.986870350165184,59.986870350165184 0 0,0 0.8029573993420918,0.6492690416571291 l -24.7735167311125 30.103968649895283" fill="#adff20" stroke="none" /><path d="M 113.89432698308785 84.25364557470407 l 20.367453728216123 -23.082308739075874 a51.78353696534957,51.78353696534957 0 0,0 0.6632953555759964,0.5955131193601737 l -20.76176007138811 22.7282966109464" fill="#ffbd11" stroke="none" /><path d="M 114.16331599549186 84.49514656593476 l 26.069316039993847 -28.538579839289515 a59.65306945168239,59.65306945168239 0 0,0 0.7521744046782837,0.699064134220476 l -26.55669832846698 28.0856111189944" fill="#b3ff20" stroke="none" /><path d="M 114.68862486808459 84.99185889309783 l 27.078974619166445 -27.668013565906275 a59.71420722562499,59.71420722562499 0 0,0 0.7284115291711863,0.7252834985765035 l -27.551221948504953 27.197794216679654" fill="#b2ff20" stroke="none" /><path d="M 115.19652480421416 85.50635884689758 l 41.995135973572474 -40.05273829500235 a79.03286388217273,79.03286388217273 0 0,0 0.9304526947587353,0.9925420608306065 l -42.67835599030167 39.32392681729369" fill="#44ffe5" stroke="none" /><path d="M 115.9244219780498 86.31012108654704 l 46.45279084830323 -39.93445305467263 a82.25865096761483,82.25865096761483 0 0,0 0.9138128676005817,1.081666203823327 l -47.133314329390934 39.128927901220194" fill="#4aeaff" stroke="none" /><path d="M 116.38621287248628 86.86637796730983 l 48.049469058746304 -38.51186179502279 a82.57852690464716,82.57852690464716 0 0,0 0.8794452653707567,1.1168061779558787 l -48.70526840471103 37.67906322311387" fill="#4ae6ff" stroke="none" /><path d="M 116.82858285166822 87.43820079747576 l 50.48574855500462 -37.68539760757273 a84.0,84.0 0 0,0 0.8549495499454944,1.1661502253140252 l -51.126960717463746 36.81078493858721" fill="#4dd2ff" stroke="none" /><line stroke="#e1ed5e" stroke-width="0.3" x1="172.23445277983987" x2="176.4835382374775" y1="55.19839476539836" y2="52.563006222186495" /><path d="M 173.08426987136738 54.67131705675599 a86.0,86.0 0 0,1 12.851231095245387,41.99856678651699" fill="none" id="id99" stroke="none" /><text fill="#e1ed5e" style="font-size:6.75px; font-family:Arial;" text-anchor="middle"><textPath startOffset="22.20632615414155" xlink:href="#id99">March</textPath></text><line stroke="#e1ed5e" stroke-width="0.3" x1="184.98032266829074" x2="189.97916517819016" y1="98.17113171792111" y2="98.06355123074" /><path d="M 185.9800911702706 98.14961562048488 a86.0,86.0 0 0,1 -9.607161424134198,41.387399972396054" fill="none" id="id100" stroke="none" /><text fill="#e1ed5e" style="font-size:6.75px; font-family:Arial;" text-anchor="middle"><textPath startOffset="21.466115282336823" xlink:href="#id100">April</textPath></text><line stroke="#e1ed5e" stroke-width="0.3" x1="174.80103733775053" x2="179.2010983576182" y1="140.37084112569926" y2="142.7455964860345" /><path d="M 175.68104954172406 140.8457921977663 a86.0,86.0 0 0,1 -30.038265399797805,32.042727171017184" fill="none" id="id101" stroke="none" /><text fill="#e1ed5e" style="font-size:6.75px; font-family:Arial;" text-anchor="middle"><textPath startOffset="22.206326154141568" xlink:href="#id101">May</textPath></text><line stroke="#e1ed5e" stroke-width="0.3" x1="143.8653032363475" x2="146.44561519142675" y1="172.8068346515853" y2="177.08958963109032" /><path d="M 144.38136562736335 173.6633856474863 a86.0,86.0 0 0,1 -40.68145358897372,12.25698825130547" fill="none" id="id102" stroke="none" /><text fill="#e1ed5e" style="font-size:6.75px; font-family:Arial;" text-anchor="middle"><textPath startOffset="21.466115282336833" xlink:href="#id102">June</textPath></text><line stroke="#e1ed5e" stroke-width="0.3" x1="102.19456741930631" x2="102.32365962044197" y1="184.97166512339345" y2="189.96999836594603" /><path d="M 102.22038585953345 185.97133177190398 a86.0,86.0 0 0,1 -42.740103519485714,-10.115201625700543" fill="none" id="id103" stroke="none" /><text fill="#e1ed5e" style="font-size:6.75px; font-family:Arial;" text-anchor="middle"><textPath startOffset="22.20632615414155" xlink:href="#id103">July</textPath></text><line stroke="#e1ed5e" stroke-width="0.3" x1="58.666819895761336" x2="56.23545636021788" y1="174.27360380694188" y2="178.64263932499728" /><path d="M 58.180547188652646 175.14741091055294 a86.0,86.0 0 0,1 -31.652253787137756,-30.449443065178592" fill="none" id="id104" stroke="none" /><text fill="#e1ed5e" style="font-size:6.75px; font-family:Arial;" text-anchor="middle"><textPath startOffset="22.20632615414155" xlink:href="#id104">August</textPath></text><line stroke="#e1ed5e" stroke-width="0.3" x1="26.63291911575756" x2="22.317208475507996" y1="142.92168965132927" y2="145.44649492493687" /><path d="M 25.769776987707644 143.4266507060508 a86.0,86.0 0 0,1 -11.730757126820373,-40.83630448921669" fill="none" id="id105" stroke="none" /><text fill="#e1ed5e" style="font-size:6.75px; font-family:Arial;" text-anchor="middle"><textPath startOffset="21.46611528233685" xlink:href="#id105">September</textPath></text><line stroke="#e1ed5e" stroke-width="0.3" x1="15.007084014347285" x2="10.007500721073583" y1="101.09737516637583" y2="101.16192664675087" /><path d="M 14.007167355692545 101.11028546245083 a86.0,86.0 0 0,1 10.666146001902534,-42.60595125391555" fill="none" id="id106" stroke="none" /><text fill="#e1ed5e" style="font-size:6.75px; font-family:Arial;" text-anchor="middle"><textPath startOffset="22.20632615414155" xlink:href="#id106">October</textPath></text><line stroke="#e1ed5e" stroke-width="0.3" x1="26.266209847984243" x2="21.928928074336255" y1="57.711370442889674" y2="55.22380399835377" /><path d="M 25.398753493254645 57.213857153982495 a86.0,86.0 0 0,1 29.58750427330803,-30.492523968695096" fill="none" id="id107" stroke="none" /><text fill="#e1ed5e" style="font-size:6.75px; font-family:Arial;" text-anchor="middle"><textPath startOffset="21.46611528233685" xlink:href="#id107">November</textPath></text><line stroke="#e1ed5e" stroke-width="0.3" x1="56.762969772571076" x2="54.21961505331055" y1="26.818313649435495" y2="22.513508569990535" /><path d="M 56.25429882871897 25.957352633546506 a86.0,86.0 0 0,1 42.265352541879196,-11.944610805530505" fill="none" id="id108" stroke="none" /><text fill="#e1ed5e" style="font-size:6.75px; font-family:Arial;" text-anchor="middle"><textPath startOffset="22.20632615414155" xlink:href="#id108">December</textPath></text></svg>