<?xml version="1.0" encoding="utf-8" ?>
<svg baseProfile="full" height="200mm" version="1.1" viewBox="0,0,200,200" width="200mm" xmlns="http://www.w3.org/2000/svg" xmlns:ev="http://www.w3.org/2001/xml-events" xmlns:xlink="http://www.w3.org/1999/xlink"><defs /><rect fill="#1a1a1a" height="200" width="200" x="0" y="0" /><text alignment-baseline="middle" fill="#e1ed5e" style="dominant-baseline: central; font-size:9.0px; font-family:Arial;" text-anchor="middle" x="100.0" y="100.0">2022</text><line stroke="#e1ed5e" stroke-width="0.3" x1="100.0" x2="100.0" y1="15.0" y2="10.0" /><path d="M 100.0 14.0 a86.0,86.0 0 0,1 42.46469731375804,11.215312516191453" fill="none" id="id85" stroke="none" /><text fill="#e1ed5e" style="font-size:6.75px; font-family:Arial;" text-anchor="middle"><textPath startOffset="22.20632615414155" xlink:href="#id85">January</textPath></text><line stroke="#e1ed5e" stroke-width="0.3" x1="143.23703022742887" x2="145.7803849466894" y1="26.81831364943548" y2="22.513508569990506" /><path d="M 143.74570117128098 25.957352633546492 a86.0,86.0 0 0,1 28.547481713284135,27.462654790039103" fill="none" id="id86" stroke="none" /><text fill="#e1ed5e" style="font-size:6.75px; font-family:Arial;" text-anchor="middle"><textPath startOffset="19.985693538727396" xlink:href="#id86">February</textPath></text><line stroke="#e1ed5e" stroke-width="0.3" x1="172.23445277983987" x2="176.4835382374775" y1="55.19839476539836" y2="52.563006222186495" /><path d="M 173.08426987136738 54.67131705675599 a86.0,86.0 0 0,1 12.851231095245387,41.99856678651699" fill="none" id="id87" stroke="none" /><text fill="#e1ed5e" style="font-size:6.75px; font-family:Arial;" text-anchor="middle"><textPath startOffset="22.20632615414155" xlink:href="#id87">March</textPath></text><line stroke="#e1ed5e" stroke-width="0.3" x1="184.98032266829074" x2="189.97916517819016" y1="98.17113171792111" y2="98.06355123074" /><path d="M 185.9800911702706 98.14961562048488 a86.0,86.0 0 0,1 -9.607161424134198,41.387399972396054" fill="none" id="id88" stroke="none" /><text fill="#e1ed5e" style="font-size:6.75px; font-family:Arial;" text-anchor="middle"><textPath startOffset="21.466115282336823" xlink:href="#id88">April</textPath></text><line stroke="#e1ed5e" stroke-width="0.3" x1="174.80103733775053" x2="179.2010983576182" y1="140.37084112569926" y2="142.7455964860345" /><path d="M 175.68104954172406 140.8457921977663 a86.0,86.0 0 0,1 -30.038265399797805,32.042727171017184" fill="none" id="id89" stroke="none" /><text fill="#e1ed5e" style="font-size:6.75px; font-family:Arial;" text-anchor="middle"><textPath startOffset="22.206326154141568" xlink:href="#id89">May</textPath></text><line stroke="#e1ed5e" stroke-width="0.3" x1="143.8653032363475" x2="146.44561519142675" y1="172.8068346515853" y2="177.08958963109032" /><path d="M 144.38136562736335 173.6633856474863 a86.0,86.0 0 0,1 -40.68145358897372,12.25698825130547" fill="none" id="id90" stroke="none" /><text fill="#e1ed5e" style="font-size:6.75px; font-family:Arial;" text-anchor="middle"><textPath startOffset="21.466115282336833" xlink:href="#id90">June</textPath></text><line stroke="#e1ed5e" stroke-width="0.3" x1="102.19456741930631" x2="102.32365962044197" y1="184.97166512339345" y2="189.96999836594603" /><path d="M 102.22038585953345 185.97133177190398 a86.0,86.0 0 0,1 -42.740103519485714,-10.115201625700543" fill="none" id="id91" stroke="none" /><text fill="#e1ed5e" style="font-size:6.75px; font-family:Arial;" text-anchor="middle"><textPath startOffset="22.20632615414155" xlink:href="#id91">July</textPath></text><path d="M 96.58105272829116 120.7198165907248 l -1.4051030528155817 8.515333882541851 a29.630482357330727,29.630482357330727 0 0,0 -0.5025203222544103,-0.08736959936543649 l 1.5514723465420421 -8.489885704655409" fill="#ff0500" stroke="none" /><path d="M 96.22490169976321 120.6578951692458 l -1.5193951024933667 8.314354290060383 a29.452044056802254,29.452044056802254 0 0,0 -0.4979252122488589,-0.09542855199948447 l 1.6622879293139206 -8.28696853971243" fill="#ff0200" stroke="none" /><path d="M 95.86986931433489 120.58985236759428 l -1.8239021636302015 9.092660533097414 a30.27378534756128,30.27378534756128 0 0,0 -0.510053511943862,-0.1068866725852447 l 1.9801471370034502 -9.059917879785628" fill="#ff0f01" stroke="none" /><path d="M 95.51606077576429 120.51570834832081 l -2.018675525144946 9.236199745955783 a30.454228504907892,30.454228504907892 0 0,0 -0.5111667577983598,-0.1163398898588206 l 2.1773624323361687 -9.200083122519276" fill="#ff1202" stroke="none" /><path d="M 94.81253420990036 120.34920634021253 l -2.3503752511740994 9.219968458269472 a30.514834848425675,30.514834848425675 0 0,0 -0.5078679245501807,-0.13413253481343904 l 2.5087336185357696 -9.178144574152451" fill="#ff1302" stroke="none" /><path d="M 94.46302465271185 120.25689768951611 l -2.521523055179619 9.22493443564748 a30.563341145216825,30.563341145216825 0 0,0 -0.5062873230003223,-0.1430818546472707 l 2.6799415462845553 -9.180163787661687" fill="#ff1402" stroke="none" /><path d="M 94.11515582081647 120.15858648285463 l -3.152654836882368 10.799447401630356 a32.25021318469559,32.25021318469559 0 0,0 -0.5315526601362038,-0.16015245610607817 l 3.3380824714588178 -10.743579576418554" fill="#ff2f04" stroke="none" /><path d="M 93.76903079525671 120.05430185196036 l -3.3434102676314823 10.760727026380431 a32.26816925476263,32.26816925476263 0 0,0 -0.5290115194003596,-0.16937278287882201 l 3.5281431321227825 -10.701581396841902" fill="#ff3004" stroke="none" /><path d="M 93.42475214034765 119.94407469862007 l -3.619330808893527 10.978172314162169 a32.55940408773924,32.55940408773924 0 0,0 -0.530765214131455,-0.1800643780536704 l 3.807765755962208 -10.914244949210374" fill="#ff3405" stroke="none" /><path d="M 93.08242187328487 119.8279376855182 l -3.7843612827873065 10.847160425237721 a32.48835408618236,32.48835408618236 0 0,0 -0.5264357810887215,-0.18876114141045927 l 3.9705166245057546 -10.780411742787305" fill="#ff3304" stroke="none" /><path d="M 92.7421414339146 119.70592522655815 l -4.92611851498467 13.374981370821793 a35.25330734578837,35.25330734578837 0 0,0 -0.567628239538158,-0.21462843017560596 l 5.155616975283111 -13.288204690539553" fill="#ff5f08" stroke="none" /><path d="M 92.40401165467489 119.57807347666478 l -5.195612114561684 13.391289074020374 a35.363878595593796,35.363878595593796 0 0,0 -0.565618166174972,-0.22507114134961284 l 5.425351356778514 -13.299871088264695" fill="#ff6108" stroke="none" /><path d="M 91.7346041902142 119.30500536409082 l -6.121260699292626 14.297073407535335 a36.55236768370522,36.55236768370522 0 0,0 -0.5762730110658681,-0.2526211529485708 l 6.366454385016238 -14.18958770129231" fill="#ff730a" stroke="none" /><path d="M 91.40352486487194 119.15986991738527 l -6.386952259120855 14.235273473106222 a36.60244115561442,36.60244115561442 0 0,0 -0.5726225406028141,-0.2628629230287076 l 6.631042795491089 -14.12322347974344" fill="#ff740a" stroke="none" /><path d="M 91.07499286063937 119.00905698771935 l -5.046199509364441 10.747721827792487 a32.873401112398966,32.873401112398966 0 0,0 -0.5101440467751226,-0.2449001438547308 l 5.230456224139805 -10.659267407438195" fill="#ff3905" stroke="none" /><path d="M 90.42595943632237 118.69057910512821 l -11.589756484453794 22.62568859418404 a46.421334342042876,46.421334342042876 0 0,0 -0.7080559860293119,-0.37042142709798564 l 11.9775033730096 -22.422837748141337" fill="#fbff18" stroke="none" /><path d="M 90.10565033884886 118.52300852407294 l -5.955782070414806 11.149697133806303 a33.64069168383926,33.64069168383926 0 0,0 -0.5084184825433767,-0.2772302941502804 l 6.146823364826823 -11.045526187896256" fill="#ff4606" stroke="none" /><line stroke="#e1ed5e" stroke-width="0.3" x1="58.666819895761336" x2="56.23545636021788" y1="174.27360380694188" y2="178.64263932499728" /><path d="M 58.180547188652646 175.14741091055294 a86.0,86.0 0 0,1 -31.652253787137756,-30.449443065178592" fill="none" id="id92" stroke="none" /><text fill="#e1ed5e" style="font-size:6.75px; font-family:Arial;" text-anchor="middle"><textPath startOffset="22.20632615414155" xlink:href="#id92">August</textPath></text><path d="M 89.4739219176387 118.17145234162733 l -7.005090084601968 12.093075846972587 a34.975470315306765,34.975470315306765 0 0,0 -0.5183566708579309,-0.30625425791791383 l 7.212214626488281 -11.970703016760924" fill="#ff5b08" stroke="none" /><path d="M 89.1626897886671 117.98757091392108 l -8.007992943212498 13.29152143246604 a36.51748990553064,36.51748990553064 0 0,0 -0.5356260217697804,-0.3290252501240322 l 8.235598164914586 -13.151707715513629" fill="#ff720a" stroke="none" /><path d="M 88.54995079064634 117.60387380957326 l -7.962347716945949 12.241708474279333 a35.60336973218157,35.60336973218157 0 0,0 -0.5108664814486732,-0.33857444720638646 l 8.171888897134584 -12.10283600598163" fill="#ff6409" stroke="none" /><path d="M 88.24862548938628 117.40417183066458 l -8.244814653717983 12.210841448009909 a35.733689882123876,35.733689882123876 0 0,0 -0.5068111199243467,-0.34858930963448426 l 8.45378265826522 -12.067111349010323" fill="#ff6609" stroke="none" /><path d="M 87.95078237400918 117.19931262002967 l -9.993880421126057 14.265480049042303 a38.41785196002626,38.41785196002626 0 0,0 -0.5383487597420383,-0.38409754602984864 l 10.237956508716982 -14.091338241168236" fill="#ff8f0d" stroke="none" /><path d="M 87.36589467227662 116.77436683061367 l -8.896146869076576 11.811460098678477 a35.78688671691424,35.78688671691424 0 0,0 -0.48886808074955895,-0.3748431979143772 l 9.098143678319623 -11.656577558936734" fill="#ff6709" stroke="none" /><path d="M 87.07902340077011 116.55440617244103 l -8.729793541934288 11.184645911621445 a35.18822044701688,35.18822044701688 0 0,0 -0.4742743877208564,-0.3767922573831104 l 8.921025422372503 -11.032719740233203" fill="#ff5e08" stroke="none" /><path d="M 86.79598089348748 116.32954008644616 l -6.463055610162679 7.992924337335147 a31.279004197023163,31.279004197023163 0 0,0 -0.41575735336977215,-0.3421399972068072 l 6.59968309207714 -7.8804892212711595" fill="#ff2003" stroke="none" /><path d="M 86.51685102203217 116.09983520530335 l -9.943035440444278 11.872688812771012 a36.48627435553267,36.48627435553267 0 0,0 -0.47803017648991636,-0.4073876870479148 l 10.145931093511251 -11.699776735500146" fill="#ff720a" stroke="none" /><path d="M 85.97065885151581 115.62618273729859 l -17.855180142576753 19.887484719511217 a47.72675637619835,47.72675637619835 0 0,0 -0.6065853704425243,-0.5541013538989246 l 18.19486506248613 -19.577190599025716" fill="#eaff1a" stroke="none" /><path d="M 85.44109423537348 115.13401014063109 l -10.808018840315652 11.234956072515317 a36.58966032997406,36.58966032997406 0 0,0 -0.45014002327630054,-0.4405567546920036 l 10.999808815967747 -11.047249214900743" fill="#ff740a" stroke="none" /><path d="M 85.18274418774928 114.88116024355367 l -10.59447379493738 10.640166049387057 a36.01519259117724,36.01519259117724 0 0,0 -0.4355426570933315,-0.4412024121522611 l 10.776057077086245 -10.456223143254132" fill="#ff6b09" stroke="none" /><path d="M 84.9287848128048 114.62390073753433 l -5.996834106729036 5.818847758923579 a29.35589663322606,29.35589663322606 0 0,0 -0.3487668518279248,-0.3656806497900801 l 6.096107509935918 -5.714759992550999" fill="#ff0000" stroke="none" /><path d="M 84.67929136418377 114.36230785411682 l -11.858433388675085 11.116618365650135 a37.254280861396296,37.254280861396296 0 0,0 -0.43455094831119007,-0.47161922953716695 l 12.048030744982004 -10.910847881311623" fill="#ff7e0b" stroke="none" /><path d="M 84.43433777217949 114.09645910891817 l -20.710045814478562 18.755277462325864 a48.94040855690248,48.94040855690248 0 0,0 -0.5601140043450595,-0.6292940216094719 l 21.02981866847196 -18.39600927097553" fill="#d9ff1c" stroke="none" /><path d="M 83.72743513129214 113.27417163493432 l -6.7580678563176395 5.512821941045144 a29.7213924865392,29.7213924865392 0 0,0 -0.3199749747616072,-0.39921797941661663 l 6.851960743134108 -5.395676128050267" fill="#ff0601" stroke="none" /><path d="M 83.50135304334701 112.99209946851258 l -11.213484559180312 8.830221482056334 a35.27287803426991,35.27287803426991 0 0,0 -0.3715295313466211,-0.4802520019503353 l 11.363820907745001 -8.635891485992746" fill="#ff5f08" stroke="none" /><path d="M 83.28015986056508 112.70617746262583 l -11.823918555536936 8.985540903345287 a35.850757399326874,35.850757399326874 0 0,0 -0.3691582080024881,-0.4945477465914939 l 11.976838030234509 -8.780680277244484" fill="#ff6809" stroke="none" /><path d="M 83.06392112726016 112.41649034213515 l -12.093490209675288 8.866202473397385 a35.995401020005765,35.995401020005765 0 0,0 -0.362045527474709,-0.5028495722656912 l 12.244315529525604 -8.656719295680556" fill="#ff6a09" stroke="none" /><path d="M 82.6465618267979 111.8261652097733 l -25.6691397212874 17.493218583362946 a52.06312010143684,52.06312010143684 0 0,0 -0.4983107363341421,-0.7449069391309842 l 25.96645356303227 -17.04877473002614" fill="#b1ff20" stroke="none" /><path d="M 82.24976979558568 111.22182372390057 l -7.432196974863248 4.698688601372668 a29.792907735546635,29.792907735546635 0 0,0 -0.2703144005110344,-0.43583288360267264 l 7.511976015042238 -4.570059386404731" fill="#ff0701" stroke="none" /><path d="M 82.05923443525364 110.91462005526583 l -12.556235240532637 7.6388343897793165 a35.697307040749635,35.697307040749635 0 0,0 -0.31484875952471375,-0.5277046310302334 l 12.68586487575558 -7.421567664862972" fill="#ff6609" stroke="none" /><line stroke="#e1ed5e" stroke-width="0.3" x1="26.63291911575756" x2="22.317208475507996" y1="142.92168965132927" y2="145.44649492493687" /><path d="M 25.769776987707644 143.4266507060508 a86.0,86.0 0 0,1 -11.730757126820373,-40.83630448921669" fill="none" id="id93" stroke="none" /><text fill="#e1ed5e" style="font-size:6.75px; font-family:Arial;" text-anchor="middle"><textPath startOffset="21.46611528233685" xlink:href="#id93">September</textPath></text><path d="M 81.87401531095188 110.60418214915194 l -12.830594563814893 7.506238373842341 a35.86498474220339,35.86498474220339 0 0,0 -0.30715456732908225,-0.5355498782737909 l 12.957901127296353 -7.284268649710243" fill="#ff6809" stroke="none" /><path d="M 81.35079622478065 109.6543875284942 l -18.531508335659364 9.593458525972466 a41.867468645817254,41.867468645817254 0 0,0 -0.3258113056562489,-0.642856615786365 l 18.69389831110188 -9.273047698483415" fill="#ffc212" stroke="none" /><path d="M 81.18737489456691 109.33194174019688 l -13.780139523125474 6.835593569791224 a36.382379033432244,36.382379033432244 0 0,0 -0.2734685736683909,-0.5634262604728206 l 13.895761353408584 -6.597378353353119" fill="#ff700a" stroke="none" /><path d="M 80.87730276802145 108.67885076344099 l -13.496212417570463 6.125266327383783 a35.82115505625539,35.82115505625539 0 0,0 -0.2499956966055914,-0.563674298909175 l 13.599649198907334 -5.892043691981912" fill="#ff6809" stroke="none" /><path d="M 80.58989483394504 108.01547362559985 l -13.893521395639882 5.737380264596108 a36.031549124148185,36.031549124148185 0 0,0 -0.23179848052042518,-0.5753048189966619 l 13.990222490417695 -5.497376077756641" fill="#ff6b09" stroke="none" /><path d="M 80.32549172779594 107.34259656027581 l -36.50970714375492 13.62555273969145 a59.96940342351756,59.96940342351756 0 0,0 -0.3526079240378408,-0.9702255678747139 l 36.73883932879799 -12.995079374810619" fill="#51ff2b" stroke="none" /><path d="M 79.97269907076064 106.31721596034903 l -17.146720752488484 5.408593918271052 a38.9795139182509,38.9795139182509 0 0,0 -0.1963328092036005,-0.6416269802176847 l 17.237280334198218 -5.1126399655013195" fill="#ff980e" stroke="none" /><path d="M 79.86692584326677 105.97154293290107 l -17.465491757296718 5.180328302622722 a39.217552076147705,39.217552076147705 0 0,0 -0.18639049811915226,-0.6488497760888919 l 17.552074892301974 -4.878921051029233" fill="#ff9b0e" stroke="none" /><path d="M 79.76711848015287 105.62410040840567 l -17.629646767699903 4.900483576153415 a39.29806504617417,39.29806504617417 0 0,0 -0.17555367038226932,-0.6533005150608018 l 17.71138851442395 -4.596292127917074" fill="#ff9d0e" stroke="none" /><path d="M 79.58551787078972 104.9243191809786 l -17.957277461180137 4.33159975749357 a39.47231902812764,39.47231902812764 0 0,0 -0.15364023898893964,-0.6618781284257147 l 18.029178266099635 -4.021852971719281" fill="#ff9f0e" stroke="none" /><path d="M 79.35854240842038 103.8639653848113 l -32.264267602846566 6.03969039640612 a53.824698384486865,53.824698384486865 0 0,0 -0.16263660011980063,-0.9121524239275791 l 32.363450645305555 -5.483419221745327" fill="#9aff22" stroke="none" /><path d="M 79.18660465613746 102.79330883721812 l -15.267123316015299 2.048958844674989 a36.40400229465024,36.40400229465024 0 0,0 -0.0780059600301685,-0.621784252189118 l 15.300130785292316 -1.7858568381984625" fill="#ff710a" stroke="none" /><path d="M 79.1416061653843 102.43462659150553 l -46.315219862702385 5.405989874542896 a67.6296506254778,67.6296506254778 0 0,0 -0.12501082797947594,-1.1574450087830412 l 46.40141299218291 -4.6079485438750725" fill="#36ff6e" stroke="none" /><path d="M 79.04373962182676 101.35467743843564 l -18.474250550330094 1.1942326522438917 a39.512809754979315,39.512809754979315 0 0,0 -0.03803324151594615,-0.6791090765537648 l 18.492070142733574 -0.8760518593546893" fill="#ffa00e" stroke="none" /><path d="M 79.0235259727143 100.99374915477108 l -21.41571389594155 1.0145579068831223 a42.43973249411576,42.43973249411576 0 0,0 -0.02828884463253363,-0.730009381310192 l 21.430004873425286 -0.6457712785589336" fill="#ffcb12" stroke="none" /><path d="M 79.0095281055655 100.63252640178507 l -20.67382725824542 0.6229846395331116 a41.683211630809794,41.683211630809794 0 0,0 -0.015438543197714606,-0.7173684378071434 l 20.68148786412814 -0.26702638593583927" fill="#ffc011" stroke="none" /><line stroke="#e1ed5e" stroke-width="0.3" x1="15.007084014347285" x2="10.007500721073583" y1="101.09737516637583" y2="101.16192664675087" /><path d="M 14.007167355692545 101.11028546245083 a86.0,86.0 0 0,1 10.666146001902534,-42.60595125391555" fill="none" id="id94" stroke="none" /><text fill="#e1ed5e" style="font-size:6.75px; font-family:Arial;" text-anchor="middle"><textPath startOffset="22.20632615414155" xlink:href="#id94">October</textPath></text><path d="M 79.00019446554 99.90962569577889 l -20.234225826191384 -0.08707957211767066 a41.234413202195675,41.234413202195675 0 0,0 0.00916384347237253,-0.709749775845063 l 20.229728975601297 0.43536560602320573" fill="#ffb911" stroke="none" /><path d="M 79.03285615573316 98.82574320788736 l -22.85511263085558 -1.2799917547482291 a43.89092729142526,43.89092729142526 0 0,0 0.04873859450972901,-0.7539644848529414 l 22.829693445341437 1.6732153038541824" fill="#ffdf14" stroke="none" /><path d="M 79.05617556472873 98.46500227214037 l -12.618150877060275 -0.924799240269543 a33.651995304735934,33.651995304735934 0 0,0 0.047313930089342336,-0.577349788880264 l 12.600362463151436 1.1418629463575853" fill="#ff4606" stroke="none" /><path d="M 79.08570108090925 98.10471618934814 l -22.84831164879048 -2.070546822353795 a43.9419377852834,43.9419377852834 0 0,0 0.07474915813252409,-0.752713821410953 l 22.80928536497573 2.463536174469178" fill="#ffe015" stroke="none" /><path d="M 79.21141760316559 97.0276538004421 l -59.73127583571363 -8.540362557480758 a81.33873636044532,81.33873636044532 0 0,0 0.21010224203088093,-1.3843112653394654 l 59.57541770024345 9.567272935212316" fill="#49eeff" stroke="none" /><path d="M 79.32604984820605 96.31383870115002 l -17.899384822145528 -3.1914568391706384 a39.18167686896736,39.18167686896736 0 0,0 0.12410194633033732,-0.662957559681987 l 17.84179715190533 3.4990924763151985" fill="#ff9b0e" stroke="none" /><path d="M 79.3925641242962 95.95851677861259 l -29.18257745662602 -5.723220387978742 a50.738494895023734,50.738494895023734 0 0,0 0.17546024873762273,-0.8556064862836588 l 29.079737911973403 6.2247025304258035" fill="#c2ff1e" stroke="none" /><path d="M 79.46518482838121 95.60439243477599 l -12.578728025888353 -2.6925565976317185 a33.863679869334405,33.863679869334405 0 0,0 0.1269172229753678,-0.5689450246320363 l 12.530516415910947 2.908679791813714" fill="#ff4906" stroke="none" /><path d="M 79.62865764111835 94.90015583598534 l -28.092497900551372 -7.032789442481586 a49.959429649679976,49.959429649679976 0 0,0 0.21602378427896513,-0.8324277624744332 l 27.9672777844021 7.515313630504883" fill="#ccff1d" stroke="none" /><path d="M 79.81627453868168 94.20196356495316 l -8.50482125978903 -2.443120009352178 a29.848775058789574,29.848775058789574 0 0,0 0.14610847878489194,-0.49260515604710986 l 8.46150688389243 2.5891545521458275" fill="#ff0801" stroke="none" /><path d="M 79.91906864156998 93.8553929516997 l -8.532222904109878 -2.610793098112644 a29.922727625931984,29.922727625931984 0 0,0 0.15494916857227503,-0.4912312080527515 l 8.4860182517694 2.75727447259181" fill="#ff0901" stroke="none" /><path d="M 80.02781315780177 93.51064311812611 l -23.27426169095765 -7.562266038671123 a45.472006965077824,45.472006965077824 0 0,0 0.24828301791641133,-0.7423346215110564 l 23.140641379269468 7.961773763104502" fill="#fff617" stroke="none" /><path d="M 80.14247586403 93.16781622104843 l -23.386191916607356 -8.046257930749242 a45.73168492134202,45.73168492134202 0 0,0 0.26251493936401277,-0.7421650842239867 l 23.244223896433535 8.44762064139984" fill="#fff917" stroke="none" /><path d="M 80.38941819471856 92.48833698450439 l -11.20765971420445 -4.292996699505191 a33.00172724783245,33.00172724783245 0 0,0 0.20776386700993316,-0.5287363796519917 l 11.132102297312827 4.485282084052946" fill="#ff3b05" stroke="none" /><path d="M 80.52162464483688 92.15188598940014 l -58.435126065489385 -23.544342031799562 a84.0,84.0 0 0,0 0.5519132524552011,-1.336501718186755 l 58.02119112614798 24.546718320439627" fill="#4dd2ff" stroke="none" /><path d="M 80.95270993114464 91.15688171328213 l -16.280082988369013 -7.558382271876758 a38.94910150052094,38.94910150052094 0 0,0 0.2875590021372244,-0.6056725951896115 l 16.14756579239004 7.837497282706901" fill="#ff970e" stroke="none" /><path d="M 81.10775173730289 90.83032412892265 l -17.357115845909384 -8.424573092128497 a40.29359744249201,40.29359744249201 0 0,0 0.3082268081534436,-0.6213664369825621 l 17.209529024802528 8.722099117610021" fill="#ffab0f" stroke="none" /><path d="M 81.43458229118936 90.18545643968196 l -24.013146559018658 -12.694466487115106 a48.162118603993285,48.162118603993285 0 0,0 0.3937640804183337,-0.7295850386155793 l 23.79107437938185 13.105932509063157" fill="#e4ff1b" stroke="none" /><line stroke="#e1ed5e" stroke-width="0.3" x1="26.266209847984243" x2="21.928928074336255" y1="57.711370442889674" y2="55.22380399835377" /><path d="M 25.398753493254645 57.213857153982495 a86.0,86.0 0 0,1 29.58750427330803,-30.492523968695096" fill="none" id="id95" stroke="none" /><text fill="#e1ed5e" style="font-size:6.75px; font-family:Arial;" text-anchor="middle"><textPath startOffset="21.46611528233685" xlink:href="#id95">November</textPath></text><path d="M 81.96595687620814 89.24020034530311 l -16.273670103434096 -9.709493803337667 a39.95010840476796,39.95010840476796 0 0,0 0.3574282964766154,-0.5875181399649171 l 16.104126008671265 9.988179716509658" fill="#ffa60f" stroke="none" /><path d="M 82.15384107792192 88.93136811851018 l -7.513230453994891 -4.65989250119176 a29.84099711443791,29.84099711443791 0 0,0 0.27449795919110775,-0.43418985061284815 l 7.43190489855782 4.788529999518824" fill="#ff0801" stroke="none" /><path d="M 82.34701348167596 88.62581576622439 l -23.370484520681735 -15.058086420386147 a48.80153796780391,48.80153796780391 0 0,0 0.4610661586914523,-0.702235391618018 l 23.107821726632363 15.458139875981832" fill="#dbff1b" stroke="none" /><path d="M 82.7489923806493 88.02491185347247 l -9.13525034125889 -6.341393528483541 a32.12052474843537,32.12052474843537 0 0,0 0.3191975314416986,-0.4514822714845306 l 9.024740190013313 6.497702300299858" fill="#ff2d04" stroke="none" /><path d="M 82.95767976084542 87.72973835380427 l -24.193506115873024 -17.419027809286437 a50.81188132271225,50.81188132271225 0 0,0 0.5171618460563725,-0.7054081768227259 l 23.89008165730302 17.832898429780663" fill="#c1ff1e" stroke="none" /><path d="M 83.39014120810768 87.1503855733568 l -11.815754302486829 -9.140829482609279 a35.93876880358201,35.93876880358201 0 0,0 0.38274090435227665,-0.48604208058001036 l 11.656659317540582 9.342863957142336" fill="#ff6a09" stroke="none" /><path d="M 84.31358615837235 86.03803664274999 l -45.28104331582782 -40.30317406747948 a81.61945829256004,81.61945829256004 0 0,0 0.9431181240077703,-1.0414145882885801 l 44.580581551204006 41.076641443037616" fill="#4aebff" stroke="none" /><path d="M 85.05521093208273 85.24692304244772 l -10.490907151887612 -10.356329544897552 a35.74152958522434,35.74152958522434 0 0,0 0.4359857298569188,-0.4341134685771046 l 10.311085621863379 10.535378864124766" fill="#ff6709" stroke="none" /><path d="M 85.31137513191541 84.99185889309783 l -6.190740480051094 -6.325405374242763 a29.850763856291866,29.850763856291866 0 0,0 0.370315436930121,-0.3562431569262364 l 6.080941799508545 6.431031617931312" fill="#ff0801" stroke="none" /><path d="M 86.10567301691215 84.25364557470407 l -18.930476261510996 -21.453791105983996 a49.6116774116239,49.6116774116239 0 0,0 0.6452027028881083,-0.5595134260115538 l 18.558379759976116 21.77646952541523" fill="#d0ff1d" stroke="none" /><path d="M 86.37877921826538 84.01681056812374 l -11.217031233705715 -13.162104773457749 a38.29343204125222,38.29343204125222 0 0,0 0.5053683844857886,-0.42323148839015906 l 10.988805312260816 13.35323741924172" fill="#ff8e0d" stroke="none" /><path d="M 86.93701828274178 83.55741782278169 l -19.597128196887443 -24.66721593808031 a52.50426916627529,52.50426916627529 0 0,0 0.7124765441683439,-0.5560992438390706 l 19.169619097559675 25.000893571142605" fill="#abff21" stroke="none" /><path d="M 87.80319425747018 82.90503203632743 l -20.39154152319506 -28.580659266662582 a56.10938691873235,56.10938691873235 0 0,0 0.7910591544613603,-0.5541874909603645 l 19.896551229150038 28.92743160038689" fill="#7eff26" stroke="none" /><path d="M 88.39885842347998 82.49532879139004 l -4.925713068190892 -7.432284759039988 a29.91636170024549,29.91636170024549 0 0,0 0.43169733636849666,-0.28078795601670803 l 4.797048706038108 7.5159716392162315" fill="#ff0901" stroke="none" /><path d="M 88.70189139769569 82.29822771554957 l -16.024695367606622 -25.107344805236234 a50.78539280912065,50.78539280912065 0 0,0 0.7409367474270009,-0.4639745232651222 l 15.59013946780738 25.37946366982429" fill="#c1ff1e" stroke="none" /><line stroke="#e1ed5e" stroke-width="0.3" x1="56.762969772571076" x2="54.21961505331055" y1="26.818313649435495" y2="22.513508569990535" /><path d="M 56.25429882871897 25.957352633546506 a86.0,86.0 0 0,1 42.265352541879196,-11.944610805530505" fill="none" id="id96" stroke="none" /><text fill="#e1ed5e" style="font-size:6.75px; font-family:Arial;" text-anchor="middle"><textPath startOffset="22.20632615414155" xlink:href="#id96">December</textPath></text></svg>