<?xml version="1.0" encoding="utf-8" ?>
<svg baseProfile="full" height="200mm" version="1.1" viewBox="0,0,200,200" width="200mm" xmlns="http://www.w3.org/2000/svg" xmlns:ev="http://www.w3.org/2001/xml-events" xmlns:xlink="http://www.w3.org/1999/xlink"><defs /><rect fill="#1a1a1a" height="200" width="200" x="0" y="0" /><text alignment-baseline="middle" fill="#e1ed5e" style="dominant-baseline: central; font-size:9.0px; font-family:Arial;" text-anchor="middle" x="100.0" y="100.0">2024</text><line stroke="#e1ed5e" stroke-width="0.3" x1="100.0" x2="100.0" y1="15.0" y2="10.0" /><path d="M 100.0 14.0 a86.0,86.0 0 0,1 42.35913384403234,11.155469271406648" fill="none" id="id109" stroke="none" /><text fill="#e1ed5e" style="font-size:6.75px; font-family:Arial;" text-anchor="middle"><textPath startOffset="22.145653131862478" xlink:href="#id109">January</textPath></text><path d="M 100.0 79.0 l 0.0 -38.111274295790636 a59.111274295790636,59.111274295790636 0 0,0 1.0147236267824997,0.008710181926268634 l -0.654230701933645 38.1056585120588" fill="#4cff2c" stroke="none" /><path d="M 100.72087961077811 79.0123766808444 l 1.300595654155945 -37.8654233964145 a58.88775314063034,58.88775314063034 0 0,0 1.0099929379691546,0.04337344248853619 l -1.9504143527259357 37.837517385500135" fill="#4fff2b" stroke="none" /><path d="M 101.44090949804482 79.04949213459386 l 4.123305255287482 -59.951953470768295 a81.09358011626074,81.09358011626074 0 0,0 1.3879784294506063,0.10743830862856622 l -5.151852679513322 59.872337395144676" fill="#49efff" stroke="none" /><path d="M 102.15924093988457 79.11130261209362 l 2.924829938542364 -28.29507646356797 a49.44584296955448,49.44584296955448 0 0,0 0.8435557310036201,0.09452217914783363 l -3.410121571146781 28.240698523913167" fill="#bcff1f" stroke="none" /><path d="M 102.87502721639298 79.19773525538626 l 5.024309091537672 -36.35339772959222 a57.69895377709327,57.69895377709327 0 0,0 0.9799889640472372,0.14402462994155352 l -5.647623161192591 36.261792026351785" fill="#5cff2a" stroke="none" /><path d="M 103.58742460773223 79.30868818359171 l 4.262820733813485 -24.58681719210889 a45.953621385418415,45.953621385418415 0 0,0 0.7761025415692105,0.14143173640982024 l -4.684258008933749 24.510017281767702" fill="#e7ff1a" stroke="none" /><path d="M 104.29559338865022 79.4440306129975 l 12.88678016595065 -61.66790816100754 a84.0,84.0 0 0,0 1.4089503335234634,0.30707416746512495 l -13.943492916093248 61.4376025354087" fill="#4dd2ff" stroke="none" /><path d="M 105.3480935250658 79.69241777938227 l 6.416195133161376 -24.363338000638045 a46.19404291732745,46.19404291732745 0 0,0 0.7651022520317863,0.20853202104985413 l -6.833478786127856 24.249605485444047" fill="#e4ff1a" stroke="none" /><path d="M 105.69591212413111 79.78721728523813 l 7.05479404665309 -25.034975269065818 a47.01000011079256,47.01000011079256 0 0,0 0.7748590883947862,0.22555018771437024 l -7.48351314742948 24.910181387048933" fill="#daff1c" stroke="none" /><path d="M 106.38641147887787 79.99465700312896 l 9.609830329443096 -30.102656635588755 a52.59934770657205,52.59934770657205 0 0,0 0.857813362098157,0.2819802904600272 l -10.125166429188996 29.933255423726706" fill="#96ff23" stroke="none" /><path d="M 107.06938296918511 80.22567764915836 l 20.17423314685463 -56.43092065684518 a80.92869504037948,80.92869504037948 0 0,0 1.3041499211494978,0.47890191540476273 l -21.13997221965825 56.076287892431694" fill="#49f1ff" stroke="none" /><path d="M 108.07796709384702 80.6158196554323 l 2.0852605389927836 -5.003866181137978 a26.420976690063963,26.420976690063963 0 0,0 0.4171556738173752,0.17805895154295653 l -2.1708512879805886 4.967332579935619" fill="#ff0000" stroke="none" /><path d="M 108.4095320186766 80.7573450057729 l 12.669413931575862 -28.990098464805456 a52.637633577256125,52.637633577256125 0 0,0 0.8248733197938746,0.3689553439787476 l -13.16520065422537 28.768339369916855" fill="#95ff23" stroke="none" /><path d="M 108.73861861582097 80.90454125486305 l 9.721621145375156 -21.243496675924245 a44.362278756880926,44.362278756880926 0 0,0 0.6897516520238096,0.32283860074976234 l -10.084861511270471 21.073481843603947" fill="#fcff18" stroke="none" /><path d="M 109.3889696526874 81.21577127319529 l 3.4349989292001446 -6.8722988729605925 a28.682949267234658,28.682949267234658 0 0,0 0.43853877193711904,0.22392102166355415 l -3.5524649228508425 6.812319899624204" fill="#ff2303" stroke="none" /><path d="M 110.02825361518725 81.54914285379988 l 14.165264231572275 -26.062490719131848 a50.663245493962634,50.663245493962634 0 0,0 0.7605658375640945,0.4218730492487641 l -14.61057425729247 25.815484754449937" fill="#adff20" stroke="none" /><line stroke="#e1ed5e" stroke-width="0.3" x1="143.13028292997686" x2="145.6673583964461" y1="26.7553504044142" y2="22.446841604673864" /><path d="M 143.63769802327073 25.89364864446614 a86.0,86.0 0 0,1 29.32050498858742,28.57503671076993" fill="none" id="id110" stroke="none" /><text fill="#e1ed5e" style="font-size:6.75px; font-family:Arial;" text-anchor="middle"><textPath startOffset="20.669276256404974" xlink:href="#id110">February</textPath></text><path d="M 110.96478420261332 82.08984904055464 l 19.415956238428357 -31.71450534971372 a58.18587374567909,58.18587374567909 0 0,0 0.847396542340074,0.5288381155974994 l -19.957516909558144 31.376531437274675" fill="#56ff2a" stroke="none" /><line stroke="#e1ed5e" stroke-width="0.3" x1="172.87174338648825" x2="177.1583165268699" y1="56.24261187166439" y2="53.66864786411523" /><path d="M 173.72905801456457 55.72781907015455 a86.0,86.0 0 0,1 12.242430191666344,42.057860355516425" fill="none" id="id111" stroke="none" /><text fill="#e1ed5e" style="font-size:6.75px; font-family:Arial;" text-anchor="middle"><textPath startOffset="22.145653131862474" xlink:href="#id111">March</textPath></text><line stroke="#e1ed5e" stroke-width="0.3" x1="184.99686870605535" x2="189.99668451229388" y1="99.2704041080226" y2="99.22748670261217" /><path d="M 185.99683186730306 99.26182062694052 a86.0,86.0 0 0,1 -10.086455211305974,41.156179273409016" fill="none" id="id112" stroke="none" /><text fill="#e1ed5e" style="font-size:6.75px; font-family:Arial;" text-anchor="middle"><textPath startOffset="21.40746469413373" xlink:href="#id112">April</textPath></text><line stroke="#e1ed5e" stroke-width="0.3" x1="174.33088141563837" x2="178.70328620479359" y1="141.23008692659167" y2="143.65538615756765" /><path d="M 175.20536237346943 141.71514677278685 a86.0,86.0 0 0,1 -30.301960400862466,31.631185727798858" fill="none" id="id113" stroke="none" /><text fill="#e1ed5e" style="font-size:6.75px; font-family:Arial;" text-anchor="middle"><textPath startOffset="22.145653131862474" xlink:href="#id113">May</textPath></text><line stroke="#e1ed5e" stroke-width="0.3" x1="143.1302829299769" x2="145.66735839644613" y1="173.24464959558577" y2="177.55315839532614" /><path d="M 143.63769802327073 174.10635135553383 a86.0,86.0 0 0,1 -40.68552437913181,11.842963189579606" fill="none" id="id114" stroke="none" /><text fill="#e1ed5e" style="font-size:6.75px; font-family:Arial;" text-anchor="middle"><textPath startOffset="21.407464694133747" xlink:href="#id114">June</textPath></text><line stroke="#e1ed5e" stroke-width="0.3" x1="101.45913802915013" x2="101.54496967792366" y1="184.9874750549273" y2="189.98673829345242" /><path d="M 101.47630435890484 185.9873277026323 a86.0,86.0 0 0,1 -42.54439059252881,-10.42667462771756" fill="none" id="id115" stroke="none" /><text fill="#e1ed5e" style="font-size:6.75px; font-family:Arial;" text-anchor="middle"><textPath startOffset="22.145653131862474" xlink:href="#id115">July</textPath></text><line stroke="#e1ed5e" stroke-width="0.3" x1="58.13341422392154" x2="55.67067388415222" y1="173.97424548756322" y2="178.32567169271397" /><path d="M 57.64086615596768 174.84453072859336 a86.0,86.0 0 0,1 -31.369924170532247,-30.572349798747897" fill="none" id="id116" stroke="none" /><text fill="#e1ed5e" style="font-size:6.75px; font-family:Arial;" text-anchor="middle"><textPath startOffset="22.145653131862474" xlink:href="#id116">August</textPath></text><line stroke="#e1ed5e" stroke-width="0.3" x1="26.387840678322732" x2="22.057713659400548" y1="142.50000000000003" y2="145.00000000000006" /><path d="M 25.521815274538298 143.00000000000003 a86.0,86.0 0 0,1 -11.493303480769221,-40.785679425670985" fill="none" id="id117" stroke="none" /><text fill="#e1ed5e" style="font-size:6.75px; font-family:Arial;" text-anchor="middle"><textPath startOffset="21.40746469413373" xlink:href="#id117">September</textPath></text><line stroke="#e1ed5e" stroke-width="0.3" x1="15.003131293944662" x2="10.003315487706104" y1="100.72959589197737" y2="100.7725132973878" /><path d="M 14.003168132696942 100.73817937305945 a86.0,86.0 0 0,1 10.791469493833604,-42.45332614584628" fill="none" id="id118" stroke="none" /><text fill="#e1ed5e" style="font-size:6.75px; font-family:Arial;" text-anchor="middle"><textPath startOffset="22.145653131862435" xlink:href="#id118">October</textPath></text><line stroke="#e1ed5e" stroke-width="0.3" x1="26.387840678322718" x2="22.05771365940052" y1="57.49999999999999" y2="54.99999999999999" /><path d="M 25.521815274538284 56.99999999999999 a86.0,86.0 0 0,1 29.574782752854787,-30.34633250058573" fill="none" id="id119" stroke="none" /><text fill="#e1ed5e" style="font-size:6.75px; font-family:Arial;" text-anchor="middle"><textPath startOffset="21.40746469413373" xlink:href="#id119">November</textPath></text><line stroke="#e1ed5e" stroke-width="0.3" x1="56.869717070023135" x2="54.33264160355391" y1="26.7553504044142" y2="22.446841604673864" /><path d="M 56.362301976729285 25.89364864446614 a86.0,86.0 0 0,1 42.16139366436587,-11.88097634709845" fill="none" id="id120" stroke="none" /><text fill="#e1ed5e" style="font-size:6.75px; font-family:Arial;" text-anchor="middle"><textPath startOffset="22.145653131862474" xlink:href="#id120">December</textPath></text></svg>