<?xml version="1.0" encoding="utf-8" ?>
<svg baseProfile="full" height="200mm" version="1.1" viewBox="0,0,200,200" width="200mm" xmlns="http://www.w3.org/2000/svg" xmlns:ev="http://www.w3.org/2001/xml-events" xmlns:xlink="http://www.w3.org/1999/xlink"><defs /><rect fill="#1a1a1a" height="200" width="200" x="0" y="0" /><text alignment-baseline="middle" fill="#e1ed5e" style="dominant-baseline: central; font-size:9.0px; font-family:Arial;" text-anchor="middle" x="100.0" y="100.0">2024</text><line stroke="#e1ed5e" stroke-width="0.3" x1="100.0" x2="100.0" y1="15.0" y2="10.0" /><path d="M 100.0 14.0 a86.0,86.0 0 0,1 42.35913384403234,11.155469271406648" fill="none" id="id109" stroke="none" /><text fill="#e1ed5e" style="font-size:6.75px; font-family:Arial;" text-anchor="middle"><textPath startOffset="22.145653131862478" xlink:href="#id109">January</textPath></text><path d="M 100.0 79.0 l 0.0 -38.111274295790636 a59.111274295790636,59.111274295790636 0 0,0 1.0147236267824997,0.008710181926268634 l -0.654230701933645 38.1056585120588" fill="#43ff2d" stroke="none" /><path d="M 100.72087961077811 79.0123766808444 l 1.300595654155945 -37.8654233964145 a58.88775314063034,58.88775314063034 0 0,0 1.0099929379691546,0.04337344248853619 l -1.9504143527259357 37.837517385500135" fill="#46ff2d" stroke="none" /><path d="M 101.44090949804482 79.04949213459386 l 4.123305255287482 -59.951953470768295 a81.09358011626074,81.09358011626074 0 0,0 1.3879784294506063,0.10743830862856622 l -5.151852679513322 59.872337395144676" fill="#49eeff" stroke="none" /><path d="M 102.15924093988457 79.11130261209362 l 2.924829938542364 -28.29507646356797 a49.44584296955448,49.44584296955448 0 0,0 0.8435557310036201,0.09452217914783363 l -3.410121571146781 28.240698523913167" fill="#aeff20" stroke="none" /><path d="M 102.87502721639298 79.19773525538626 l 5.024309091537672 -36.35339772959222 a57.69895377709327,57.69895377709327 0 0,0 0.9799889640472372,0.14402462994155352 l -5.647623161192591 36.261792026351785" fill="#52ff2b" stroke="none" /><path d="M 103.58742460773223 79.30868818359171 l 4.262820733813485 -24.58681719210889 a45.953621385418415,45.953621385418415 0 0,0 0.7761025415692105,0.14143173640982024 l -4.684258008933749 24.510017281767702" fill="#d8ff1c" stroke="none" /><path d="M 104.29559338865022 79.4440306129975 l 12.88678016595065 -61.66790816100754 a84.0,84.0 0 0,0 1.4089503335234634,0.30707416746512495 l -13.943492916093248 61.4376025354087" fill="#4dd2ff" stroke="none" /><path d="M 105.3480935250658 79.69241777938227 l 6.416195133161376 -24.363338000638045 a46.19404291732745,46.19404291732745 0 0,0 0.7651022520317863,0.20853202104985413 l -6.833478786127856 24.249605485444047" fill="#d5ff1c" stroke="none" /><path d="M 105.69591212413111 79.78721728523813 l 7.05479404665309 -25.034975269065818 a47.01000011079256,47.01000011079256 0 0,0 0.7748590883947862,0.22555018771437024 l -7.48351314742948 24.910181387048933" fill="#cbff1d" stroke="none" /><path d="M 106.38641147887787 79.99465700312896 l 9.609830329443096 -30.102656635588755 a52.59934770657205,52.59934770657205 0 0,0 0.857813362098157,0.2819802904600272 l -10.125166429188996 29.933255423726706" fill="#8aff24" stroke="none" /><path d="M 107.06938296918511 80.22567764915836 l 20.17423314685463 -56.43092065684518 a80.92869504037948,80.92869504037948 0 0,0 1.3041499211494978,0.47890191540476273 l -21.13997221965825 56.076287892431694" fill="#49f0ff" stroke="none" /><path d="M 108.07796709384702 80.6158196554323 l 2.0852605389927836 -5.003866181137978 a26.420976690063963,26.420976690063963 0 0,0 0.4171556738173752,0.17805895154295653 l -2.1708512879805886 4.967332579935619" fill="#ff1d03" stroke="none" /><path d="M 108.4095320186766 80.7573450057729 l 12.669413931575862 -28.990098464805456 a52.637633577256125,52.637633577256125 0 0,0 0.8248733197938746,0.3689553439787476 l -13.16520065422537 28.768339369916855" fill="#89ff24" stroke="none" /><path d="M 108.73861861582097 80.90454125486305 l 9.721621145375156 -21.243496675924245 a44.362278756880926,44.362278756880926 0 0,0 0.6897516520238096,0.32283860074976234 l -10.084861511270471 21.073481843603947" fill="#ebff1a" stroke="none" /><path d="M 109.3889696526874 81.21577127319529 l 3.4349989292001446 -6.8722988729605925 a28.682949267234658,28.682949267234658 0 0,0 0.43853877193711904,0.22392102166355415 l -3.5524649228508425 6.812319899624204" fill="#ff3f05" stroke="none" /><path d="M 110.02825361518725 81.54914285379988 l 14.165264231572275 -26.062490719131848 a50.663245493962634,50.663245493962634 0 0,0 0.7605658375640945,0.4218730492487641 l -14.61057425729247 25.815484754449937" fill="#a0ff22" stroke="none" /><line stroke="#e1ed5e" stroke-width="0.3" x1="143.13028292997686" x2="145.6673583964461" y1="26.7553504044142" y2="22.446841604673864" /><path d="M 143.63769802327073 25.89364864446614 a86.0,86.0 0 0,1 29.32050498858742,28.57503671076993" fill="none" id="id110" stroke="none" /><text fill="#e1ed5e" style="font-size:6.75px; font-family:Arial;" text-anchor="middle"><textPath startOffset="20.669276256404974" xlink:href="#id110">February</textPath></text><path d="M 110.96478420261332 82.08984904055464 l 19.415956238428357 -31.71450534971372 a58.18587374567909,58.18587374567909 0 0,0 0.847396542340074,0.5288381155974994 l -19.957516909558144 31.376531437274675" fill="#4dff2c" stroke="none" /><path d="M 115.6541949942343 86.00192230759917 l 16.882043512386485 -15.096027408622193 a43.64715074078819,43.64715074078819 0 0,0 0.494644712668534,0.5628148823392838 l -17.13869928901361 14.804000248471612" fill="#f4ff19" stroke="none" /><path d="M 116.1254893667686 86.54754324733833 l 22.09169234733662 -18.429675474413614 a49.7697029679066,49.7697029679066 0 0,0 0.5416678056601796,0.6607466489521902 l -22.404806972235424 18.047726543762927" fill="#aaff21" stroke="none" /><path d="M 117.01052211995028 87.68569379921539 l 16.66731787968648 -12.065852797989912 a41.57630406669958,41.57630406669958 0 0,0 0.41355534183147324,0.5817173792403141 l -16.871988320047915 11.777958192040094" fill="#fff016" stroke="none" /><line stroke="#e1ed5e" stroke-width="0.3" x1="172.87174338648825" x2="177.1583165268699" y1="56.24261187166439" y2="53.66864786411523" /><path d="M 173.72905801456457 55.72781907015455 a86.0,86.0 0 0,1 12.242430191666344,42.057860355516425" fill="none" id="id111" stroke="none" /><text fill="#e1ed5e" style="font-size:6.75px; font-family:Arial;" text-anchor="middle"><textPath startOffset="22.145653131862474" xlink:href="#id111">March</textPath></text><path d="M 118.18653347947321 89.5 l 22.845819133985582 -13.190039826864083 a47.38007965372816,47.38007965372816 0 0,0 0.40062482424436563,0.7078656773105587 l -23.068877323251325 12.795917379454407" fill="#c6ff1e" stroke="none" /><path d="M 118.53625476483649 90.13048839642627 l 19.639401195062362 -10.456874942699214 a43.249771074504736,43.249771074504736 0 0,0 0.34330418365718,0.6583310385159925 l -19.816013447694488 10.118197661078723" fill="#f9ff18" stroke="none" /><path d="M 119.0197475246899 91.09779779509293 l 26.46904624646961 -12.388850143842848 a50.224886947332095,50.224886947332095 0 0,0 0.35878634728564607,0.7840129194455884 l -26.677817058610305 11.932648242182575" fill="#a5ff21" stroke="none" /><path d="M 119.31412917781788 91.75594674310238 l 27.93780802800188 -11.924988962399125 a51.37641320437334,51.37641320437334 0 0,0 0.3392657481838641,0.8141142902822531 l -28.138399620722225 11.443642162675593" fill="#98ff23" stroke="none" /><path d="M 119.71291397450082 92.76114493625339 l 27.314926145621172 -10.030419231822442 a50.09835906553585,50.09835906553585 0 0,0 0.2895203970129003,0.8098400783536486 l -27.483086712678016 9.560044197087876" fill="#a6ff21" stroke="none" /><path d="M 120.05942366710727 93.78553927170692 l 18.228843843773273 -5.64734241966645 a40.08358520523947,40.08358520523947 0 0,0 0.19798176023502842,0.6590168897445906 l -18.32310192401193 5.333587926331137" fill="#ffdc14" stroke="none" /><path d="M 120.16314734710363 94.1308016681162 l 17.37239999890417 -5.056852451610585 a39.09342528210968,39.09342528210968 0 0,0 0.18202924162163533,0.6459575619229367 l -17.45664773260039 4.7578869657846345" fill="#ffcf13" stroke="none" /><path d="M 120.26092885502905 94.47779374421319 l 19.182612441359037 -5.2283063221809485 a40.88234913368991,40.88234913368991 0 0,0 0.178734747613636,0.6786849492877205 l -19.269536669777402 4.898240868520429" fill="#ffe715" stroke="none" /><path d="M 120.43855184770803 95.1765574152323 l 29.30281061866049 -6.915383518587212 a51.10776045079125,51.10776045079125 0 0,0 0.19418305590884782,0.8556063735127197 l -29.417204536127006 6.411342811135466" fill="#9bff22" stroke="none" /><path d="M 120.51834098615036 95.52812308129327 l 14.048756302591409 -3.061861048537009 a35.378544666625686,35.378544666625686 0 0,0 0.12423308911520793,0.5945003043007953 l -14.099247102530983 2.8202442929508096" fill="#ff9e0e" stroke="none" /><path d="M 120.65975698304385 96.23510406497455 l 28.217729262174185 -5.142210253586256 a49.68244360241032,49.68244360241032 0 0,0 0.1457001122231531,0.8403595290050416 l -28.301844191889572 4.657057691660622" fill="#abff21" stroke="none" /><path d="M 120.82617615685814 97.30363454192243 l 29.916403537875617 -3.8732773852426097 a51.16609816240822,51.16609816240822 0 0,0 0.1052996198482162,0.8720319075944402 l -29.978485243983496 3.3591518007247565" fill="#9aff23" stroke="none" /><path d="M 120.86939407059847 97.66154086499901 l 29.545280450782716 -3.31061030006788 a50.73018226439789,50.73018226439789 0 0,0 0.08954507073858314,0.8662673306559867 l -29.597757914002965 2.8029384471289616" fill="#9fff22" stroke="none" /><path d="M 120.93736805541906 98.37931529534042 l 21.117003803337298 -1.6345896476443196 a42.180173109451864,42.180173109451864 0 0,0 0.04968430476664936,0.72239888710109 l -21.141952069269013 1.2718473363888954" fill="#fff717" stroke="none" /><path d="M 120.98066250479742 99.09900007780936 l 60.17524276926111 -2.5841838426460475 a81.23070519653663,81.23070519653663 0 0,0 0.04786930487018551,1.3936625813024255 l -60.210736761128146 1.550814996779502" fill="#49edff" stroke="none" /><line stroke="#e1ed5e" stroke-width="0.3" x1="184.99686870605535" x2="189.99668451229388" y1="99.2704041080226" y2="99.22748670261217" /><path d="M 185.99683186730306 99.26182062694052 a86.0,86.0 0 0,1 -10.086455211305974,41.156179273409016" fill="none" id="id112" stroke="none" /><text fill="#e1ed5e" style="font-size:6.75px; font-family:Arial;" text-anchor="middle"><textPath startOffset="21.40746469413373" xlink:href="#id112">April</textPath></text><path d="M 120.99922638620191 100.18025310272382 l 15.039662466994494 0.12909741405407776 a36.040216529805626,36.040216529805626 0 0,0 -0.010620825961595493,0.6186098665386144 l -15.035230209434232 -0.38725419656176324" fill="#ffa70f" stroke="none" /><path d="M 120.98066250479742 100.90099992219065 l 28.07883351195708 1.2058259267881801 a49.104713262332325,49.104713262332325 0 0,0 -0.0433954965876021,0.8418610405993989 l -28.053996425912903 -1.6876587607643097" fill="#b2ff20" stroke="none" /><path d="M 120.86939407059847 102.33845913500097 l 28.309963386460147 3.17219044638571 a49.48713427445546,49.48713427445546 0 0,0 -0.10184431906332658,0.8434170603699007 l -28.251336981137158 -3.657701183679019" fill="#adff20" stroke="none" /><path d="M 120.82617615685814 102.69636545807757 l 19.9226597594717 2.579387171407448 a41.08894248266181,41.08894248266181 0 0,0 -0.0965697438317588,0.6987305602025121 l -19.87544549908473 -2.9210060398100453" fill="#ffe915" stroke="none" /><path d="M 120.7213421655516 103.40968896794604 l 30.22967106534218 4.974280870063076 a51.63619563348331,51.63619563348331 0 0,0 -0.15142973962356013,0.8734064972613707 l -30.13982650822639 -5.492480400245034" fill="#95ff23" stroke="none" /><path d="M 120.51834098615036 104.47187691870673 l 59.23604850861074 12.91022106806053 a81.62658864673716,81.62658864673716 0 0,0 -0.31013881819571987,1.366528857422668 l -59.00569882885736 -13.925184259422213" fill="#4ae9ff" stroke="none" /><path d="M 120.26092885502905 105.52220625578681 l 18.870303508352027 5.143185133713743 a40.55864790359949,40.55864790359949 0 0,0 -0.1888517024490545,0.6701680685598514 l -18.779233313828392 -5.466361126176603" fill="#ffe315" stroke="none" /><path d="M 120.05942366710727 106.21446072829308 l 32.58891592653241 10.096129458353763 a55.11699387851216,55.11699387851216 0 0,0 -0.28775082330352314,0.9013753556058824 l -32.41080038745163 -10.654073847651029" fill="#6eff28" stroke="none" /><path d="M 119.4528033332814 107.91128576633889 l 37.18061110557287 15.121030855231602 a61.13780532501391,61.13780532501391 0 0,0 -0.4037254057304315,0.9687940026796457 l -36.91555985530595 -15.757057367352525" fill="#2fff30" stroke="none" /><path d="M 119.0197475246899 108.90220220490707 l 45.851016293581175 21.460590778930616 a71.62482248596007,71.62482248596007 0 0,0 -0.5307765725597471,1.1091188959162126 l -45.475860463061515 -22.244522176911932" fill="#3dffad" stroke="none" /><line stroke="#e1ed5e" stroke-width="0.3" x1="174.33088141563837" x2="178.70328620479359" y1="141.23008692659167" y2="143.65538615756765" /><path d="M 175.20536237346943 141.71514677278685 a86.0,86.0 0 0,1 -30.301960400862466,31.631185727798858" fill="none" id="id113" stroke="none" /><text fill="#e1ed5e" style="font-size:6.75px; font-family:Arial;" text-anchor="middle"><textPath startOffset="22.145653131862474" xlink:href="#id113">May</textPath></text><path d="M 118.18653347947321 110.5 l 30.138414549717286 17.4004217532278 a55.800843506455614,55.800843506455614 0 0,0 -0.4860686321078809,0.8254508020721387 l -29.835272207479637 -17.91522372359349" fill="#66ff29" stroke="none" /><path d="M 117.81537515405839 111.11811171558189 l 23.711772449897722 14.797899723844107 a48.950420192774814,48.950420192774814 0 0,0 -0.45100191879908197,0.7090499257797669 l -23.454252839472748 -15.202763324302547" fill="#b4ff20" stroke="none" /><path d="M 117.62189284568427 111.42229804090321 l 18.71434629347437 12.130413167112648 a43.30187617212816,43.30187617212816 0 0,0 -0.40966783544203705,0.6202893170593575 l -18.503354019111608 -12.449882362511067" fill="#f8ff18" stroke="none" /><path d="M 116.79662413953412 112.60449989151573 l 28.554717882733318 21.427992640975862 a56.70057117168023,56.70057117168023 0 0,0 -0.5908956135144643,0.7735013260944568 l -28.18267029186455 -21.915014880311194" fill="#5dff2a" stroke="none" /><path d="M 116.35404254752997 113.17365903436017 l 21.411296907822834 17.247425162759516 a48.49395042586521,48.49395042586521 0 0,0 -0.5277831722626574,0.6438096538170295 l -21.11206691632155 -17.612437098275038" fill="#b9ff1f" stroke="none" /><path d="M 116.1254893667686 113.45245675266167 l 21.0480174440432 17.559004750502023 a48.41053969101848,48.41053969101848 0 0,0 -0.5378305758794868,0.6335630660302882 l -20.7434923046566 -17.917734598981866" fill="#baff1f" stroke="none" /><path d="M 115.6541949942343 113.99807769240083 l 24.838075258757755 22.210360055553675 a54.320115191233185,54.320115191233185 0 0,0 -0.6275326112346238,0.6897682672800374 l -24.453144946681252 -22.633465898391385" fill="#77ff27" stroke="none" /><path d="M 115.16444852881244 114.52719865689866 l 28.44699352582392 27.25157630071213 a60.3939062740902,60.3939062740902 0 0,0 -0.7236144737439131,0.7424921970170475 l -27.9749922509292 -27.735891189796916" fill="#36ff2e" stroke="none" /><path d="M 114.65682725009322 115.03919595460226 l 18.851271270620888 19.343065030013804 a48.009712943196554,48.009712943196554 0 0,0 -0.5951547249915385,0.5701447635973526 l -18.516444059764037 -19.66382192391674" fill="#bfff1e" stroke="none" /><path d="M 112.7482090630111 116.68781488649013 l 24.850998299344194 32.53075450160396 a61.936806237390265,61.936806237390265 0 0,0 -0.8504425216649756,0.6381879229431778 l -24.288902788768453 -32.95256145181116" fill="#30ff3a" stroke="none" /><path d="M 112.45986205192187 116.90419585922612 l 2.0660888294717306 2.803046301027246 a24.482210737013254,24.482210737013254 0 0,0 -0.3404414496778193,0.24645335547077965 l -2.0176663694199433 -2.838100427871103" fill="#ff0000" stroke="none" /><path d="M 111.8722381534696 117.32195027204791 l 21.807546759536674 31.817862448594727 a59.57389617950296,59.57389617950296 0 0,0 -0.8485130228482423,0.5709174297053426 l -21.25813744859143 -32.18752955235719" fill="#3fff2d" stroke="none" /><line stroke="#e1ed5e" stroke-width="0.3" x1="143.1302829299769" x2="145.66735839644613" y1="173.24464959558577" y2="177.55315839532614" /><path d="M 143.63769802327073 174.10635135553383 a86.0,86.0 0 0,1 -40.68552437913181,11.842963189579606" fill="none" id="id114" stroke="none" /><text fill="#e1ed5e" style="font-size:6.75px; font-family:Arial;" text-anchor="middle"><textPath startOffset="21.407464694133747" xlink:href="#id114">June</textPath></text><path d="M 110.34350942703117 118.27599006163325 l 16.627065239989737 29.378431104441894 a54.75724385451682,54.75724385451682 0 0,0 -0.8220256840804957,0.4559637900836079 l -16.120295367753148 -29.659527809958643" fill="#72ff27" stroke="none" /><path d="M 109.71004243097381 118.62028667847754 l 19.37103848527642 37.14652046268089 a62.89392694033862,62.89392694033862 0 0,0 -0.961596564765595,0.49099805761610005 l -18.73051469879724 -37.47357647196983" fill="#32ff46" stroke="none" /><path d="M 109.06512990194946 118.94263497670748 l 12.945738335091567 27.051614090259463 a50.989697663180664,50.989697663180664 0 0,0 -0.7927957982527701,0.3710684641888775 l -12.47945382296729 -27.269858786018876" fill="#9cff22" stroke="none" /><path d="M 108.4095320186766 119.2426549942271 l 14.874607009597497 34.036011781002784 a58.14436742827272,58.14436742827272 0 0,0 -0.9180301340770513,0.3918524747913639 l -14.288141800350015 -34.286338905453555" fill="#4dff2c" stroke="none" /><path d="M 107.06938296918513 119.77432235084164 l 20.24658376665839 56.633298217166725 a81.1436166286569,81.1436166286569 0 0,0 -1.315663480830917,0.4576560543119767 l -19.271414513782453 -56.97251270404729" fill="#49edff" stroke="none" /><path d="M 106.0420521117495 120.11202640906438 l 4.306082889349444 14.333549461085287 a35.966395357711434,35.966395357711434 0 0,0 -0.5928289354188796,0.17256386311895527 l -4.059393941548958 -14.405357018506761" fill="#ffa60f" stroke="none" /><path d="M 105.3480935250658 120.30758222061773 l 7.260128375557473 27.567889983199034 a49.507858954248746,49.507858954248746 0 0,0 -0.8237039934456251,0.2093823340644645 l -6.785819088886451 -27.688457549098768" fill="#adff20" stroke="none" /><path d="M 104.9986988182912 120.39639698878246 l 4.0444760254191285 16.502842364537894 a37.99122103996581,37.99122103996581 0 0,0 -0.6347570430040472,0.14980093379513512 l -3.7605868286752018 -16.56983944197925" fill="#ffc111" stroke="none" /><path d="M 103.94208987418118 120.62667999033965 l 5.428754621846115 28.405538154848973 a49.9196468617927,49.9196468617927 0 0,0 -0.8430840407273734,0.1536379968275779 l -4.940335847567685 -28.49454432560791" fill="#a8ff21" stroke="none" /><path d="M 102.51750503828377 120.84855314841334 l 5.159490209705637 42.72798036944446 a64.03836248831593,64.03836248831593 0 0,0 -1.0925069618970333,0.12241768383201754 l -4.425247346207804 -42.81025381378345" fill="#33ff54" stroke="none" /><path d="M 101.44090949804482 120.95050786540614 l 1.9526801428064349 28.39154072202263 a49.45861107486414,49.45861107486414 0 0,0 -0.8475219300463652,0.05098481472898121 l -1.4650138606276046 -28.4208775145763" fill="#aeff20" stroke="none" /><path d="M 100.72087961077811 120.9876233191556 l 1.0003933984203073 29.125362270064215 a50.14253788389205,50.14253788389205 0 0,0 -0.8605096691456205,0.02216367663925511 l -0.5002704152039428 -29.138243664053515" fill="#a6ff21" stroke="none" /><line stroke="#e1ed5e" stroke-width="0.3" x1="101.45913802915013" x2="101.54496967792366" y1="184.9874750549273" y2="189.98673829345242" /><path d="M 101.47630435890484 185.9873277026323 a86.0,86.0 0 0,1 -42.54439059252881,-10.42667462771756" fill="none" id="id115" stroke="none" /><text fill="#e1ed5e" style="font-size:6.75px; font-family:Arial;" text-anchor="middle"><textPath startOffset="22.145653131862474" xlink:href="#id115">July</textPath></text><path d="M 98.55909050195518 120.95050786540614 l -1.9670673308406896 28.600727278486865 a49.66829180021794,49.66829180021794 0 0,0 -0.850110669026154,-0.0658039422582538 l 2.4577469946420796 -28.56274556923356" fill="#abff21" stroke="none" /><path d="M 97.84075906011543 120.88869738790638 l -2.9648756898926525 28.68248278130489 a49.83531352970465,49.83531352970465 0 0,0 -0.8502001747695774,-0.09526670293079328 l 3.456811766263029 -28.627360317867126" fill="#a9ff21" stroke="none" /><path d="M 96.76829788921471 120.74984581791261 l -4.381451901297157 28.132064247847477 a49.47121633524635,49.47121633524635 0 0,0 -0.8380011715131384,-0.13789277387563934 l 4.863730575863359 -28.05270547547617" fill="#aeff20" stroke="none" /><path d="M 96.05791012581884 120.62667999033965 l -5.361601192863316 28.054163038072936 a49.56191224547283,49.56191224547283 0 0,0 -0.8343004839324234,-0.16688346273427132 l 5.842398162326697 -27.957990178675804" fill="#adff20" stroke="none" /><path d="M 94.6519064749342 120.30758222061772 l -7.268602649728065 27.60006818252794 a49.54113431802992,49.54113431802992 0 0,0 -0.8205394254572983,-0.22364166918513365 l 7.7413234761200584 -27.471226019198664" fill="#adff20" stroke="none" /><path d="M 93.61358852112213 120.00534299687104 l -9.275048308183033 29.05395672224242 a51.49850688701112,51.49850688701112 0 0,0 -0.8398603644710663,-0.27607878354815996 l 9.772431410301843 -28.890457017292242" fill="#96ff23" stroke="none" /><path d="M 92.93061703081489 119.77432235084164 l -9.964573212571635 27.872684738236277 a50.600325569591455,50.600325569591455 0 0,0 -0.8154142429801536,-0.2994314046864528 l 10.441576607205906 -27.697522484541103" fill="#a0ff22" stroke="none" /><path d="M 91.26138138417905 119.09545874513695 l -11.854100553178727 25.903349033234367 a49.486895075849105,49.486895075849105 0 0,0 -0.7694299884629583,-0.36013208539834346 l 12.297019255513176 -25.696040716265497" fill="#adff20" stroke="none" /><path d="M 90.28995756902619 118.62028667847754 l -13.193720444084162 25.30069860878033 a49.534183171224356,49.534183171224356 0 0,0 -0.7505871945695552,-0.3996454041164253 l 13.62609645444028 -25.07048273694133" fill="#adff20" stroke="none" /><line stroke="#e1ed5e" stroke-width="0.3" x1="58.13341422392154" x2="55.67067388415222" y1="173.97424548756322" y2="178.32567169271397" /><path d="M 57.64086615596768 174.84453072859336 a86.0,86.0 0 0,1 -31.369924170532247,-30.572349798747897" fill="none" id="id116" stroke="none" /><text fill="#e1ed5e" style="font-size:6.75px; font-family:Arial;" text-anchor="middle"><textPath startOffset="22.145653131862474" xlink:href="#id116">August</textPath></text><path d="M 89.34428304082925 118.09573695890944 l -14.937050016761942 25.366376479507483 a50.43753588368698,50.43753588368698 0 0,0 -0.742313818171761,-0.44573811940378627 l 15.37029659149113 -25.106224359567776" fill="#a2ff22" stroke="none" /><path d="M 88.72937992617639 117.7192867562869 l -17.262702491824793 27.13983557582026 a53.16475668186863,53.16475668186863 0 0,0 -0.7658620358964481,-0.4964225187854674 l 17.72605015997825 -26.839499215330896" fill="#83ff25" stroke="none" /><path d="M 88.1277618465304 117.32195027204791 l -17.241333510693483 25.155620855596304 a51.49703004978475,51.49703004978475 0 0,0 -0.7248940415565944,-0.5060323391148637 l 17.670622643423844 -24.855943700676313" fill="#96ff23" stroke="none" /><path d="M 87.2517909369889 116.68781488649013 l -17.804011967940767 23.306023182496613 a50.32837463511484,50.32837463511484 0 0,0 -0.6820454725631573,-0.5303626847802696 l 18.201467385139154 -22.99695944609555" fill="#a4ff21" stroke="none" /><path d="M 86.68645165197938 116.24036423190432 l -18.091850844622204 22.06911633664017 a49.53701040516009,49.53701040516009 0 0,0 -0.6530055185256044,-0.5447604285001254 l 18.4680306973097 -21.755293724228174" fill="#adff20" stroke="none" /><path d="M 86.13680546590413 115.77377054828092 l -18.929418546608527 21.538203480605613 a49.67432816448641,49.67432816448641 0 0,0 -0.6356775831833489,-0.5684268146650422 l 19.296361156615244 -21.21008113605719" fill="#abff21" stroke="none" /><path d="M 85.34317274990678 115.03919595460226 l -42.16341643396297 43.26337965550041 a81.41087405922667,81.41087405922667 0 0,0 -0.9924686451640031,-0.9839860581423242 l 42.89987699925694 -42.533213587129424" fill="#4aebff" stroke="none" /><path d="M 84.58840730492382 114.26474011684316 l -28.471308263409252 26.352617876659643 a59.79530723145929,59.79530723145929 0 0,0 -0.690784714915152,-0.7592934093626037 l 28.919490679166284 -25.859986891739368" fill="#3cff2e" stroke="none" /><path d="M 84.1078160697243 113.72728997021213 l -19.371117087035902 16.732309572260238 a46.597077192945406,46.597077192945406 0 0,0 -0.5176834016091865,-0.6098297453992226 l 19.6554950521522 -16.39731304441146" fill="#d0ff1d" stroke="none" /><path d="M 83.4222238831116 112.89097897827486 l -23.781130759323503 18.49235111733343 a51.12489385937792,51.12489385937792 0 0,0 -0.532789615671257,-0.6974387096900964 l 24.095072352349053 -18.081391494402464" fill="#9aff22" stroke="none" /><path d="M 82.98947788004972 112.3143062007846 l -21.23598518858324 15.373215604054895 a47.216460953730646,47.216460953730646 0 0,0 -0.4696574187659041,-0.6606319763041694 l 21.496757705879105 -15.006406401041222" fill="#c8ff1d" stroke="none" /><path d="M 82.576782715395 111.72311816256416 l -19.652769614802438 13.223260472080069 a44.68725334531163,44.68725334531163 0 0,0 -0.4227745300700677,-0.6401345232395165 l 19.876868583793232 -12.883946070501493" fill="#e7ff1a" stroke="none" /><path d="M 82.18462484594161 111.11811171558189 l -17.598691280841706 10.982884952824717 a41.744582345406656,41.744582345406656 0 0,0 -0.37417465275404155,-0.6111861749568873 l 17.784633898051155 -10.679161661743272" fill="#fff216" stroke="none" /><path d="M 81.99639281039703 110.81064883170644 l -23.180262987596244 13.919081900999407 a48.03822170818291,48.03822170818291 0 0,0 -0.41845017471625906,-0.710619878614382 l 23.415786872442272 -13.519110854091467" fill="#beff1e" stroke="none" /><line stroke="#e1ed5e" stroke-width="0.3" x1="26.387840678322732" x2="22.057713659400548" y1="142.50000000000003" y2="145.00000000000006" /><path d="M 25.521815274538298 143.00000000000003 a86.0,86.0 0 0,1 -11.493303480769221,-40.785679425670985" fill="none" id="id117" stroke="none" /><text fill="#e1ed5e" style="font-size:6.75px; font-family:Arial;" text-anchor="middle"><textPath startOffset="21.40746469413373" xlink:href="#id117">September</textPath></text><path d="M 81.63589988554817 110.18625677009913 l -18.205226980341216 10.098132520730248 a41.818322934664394,41.818322934664394 0 0,0 -0.3428199411662091,-0.630750079131132 l 18.375892271122755 -9.784127608124528" fill="#fff316" stroke="none" /><path d="M 81.29705330413844 109.54985784667822 l -23.823501298803244 12.164449512336306 a47.74944945362911,47.74944945362911 0 0,0 -0.36648859081084373,-0.733222682595928 l 24.028809802825823 -11.753694973576625" fill="#c2ff1e" stroke="none" /><path d="M 80.83023694016515 108.57439118712176 l -28.690016134437872 12.832679294661288 a52.429201130062694,52.429201130062694 0 0,0 -0.36042858267136885,-0.8247311326005052 l 28.90607859912621 -12.338286092284934" fill="#8cff24" stroke="none" /><path d="M 80.41425534168474 107.57618678355246 l -8.266242095515164 3.1975600216506668 a29.863134235343924,29.863134235343924 0 0,0 -0.180841636184114,-0.4797039252572226 l 8.319914415513713 -3.0551878161992994" fill="#ff5007" stroke="none" /><path d="M 79.94057633289273 106.21446072829308 l -30.13929357984901 9.337230193586995 a52.55250996640933,52.55250996640933 0 0,0 -0.25956855841723353,-0.8640193108726131 l 30.29513845826987 -8.818473279123658" fill="#8aff24" stroke="none" /><path d="M 79.73907114497094 105.5222062557868 l -27.492257834785207 7.493137125510963 a49.49511089355539,49.49511089355539 0 0,0 -0.21638913470307883,-0.8216647902725468 l 27.616836450293018 -7.020091830865614" fill="#adff20" stroke="none" /><path d="M 79.48165901384964 104.47187691870673 l -29.681662939412355 6.4689802892536035 a51.378426898567945,51.378426898567945 0 0,0 -0.1804172768449204,-0.8633619814923738 l 29.788337927081642 -5.958501856475821" fill="#98ff23" stroke="none" /><path d="M 79.34024301695615 103.76489593502545 l -44.70876635628626 8.14742655748245 a66.44506957427356,66.44506957427356 0 0,0 -0.1948586541177536,-1.1238929352789484 l 44.84203982789625 -7.37874058928291" fill="#36ff71" stroke="none" /><path d="M 79.13060592940153 102.33845913500099 l -20.19381619315335 2.2627592247126516 a41.320194185880325,41.320194185880325 0 0,0 -0.07293527336493122,-0.7055826082594189 l 20.229683858999945 -1.9157720941703011" fill="#ffec16" stroke="none" /><path d="M 79.03789590574601 101.26102812881392 l -33.4138681616108 2.0100953346482546 a54.47427473114067,54.47427473114067 0 0,0 -0.048140759738855135,-0.9339178780264689 l 33.44345051080623 -1.436205663245055" fill="#75ff27" stroke="none" /><line stroke="#e1ed5e" stroke-width="0.3" x1="15.003131293944662" x2="10.003315487706104" y1="100.72959589197737" y2="100.7725132973878" /><path d="M 14.003168132696942 100.73817937305945 a86.0,86.0 0 0,1 10.791469493833604,-42.45332614584628" fill="none" id="id118" stroke="none" /><text fill="#e1ed5e" style="font-size:6.75px; font-family:Arial;" text-anchor="middle"><textPath startOffset="22.145653131862435" xlink:href="#id118">October</textPath></text><path d="M 79.01933749520258 99.09900007780938 l -39.71283617582138 -1.7054400592070098 a60.74943877494593,60.74943877494593 0 0,0 0.05368633452706625,-1.041500547405477 l 39.67770825183774 2.386912399989199" fill="#33ff2f" stroke="none" /><path d="M 79.06263194458094 98.37931529534042 l -35.567240592747574 -2.7531293648293187 a56.67363626940596,56.67363626940596 0 0,0 0.0834084183634824,-0.9693322531741366 l 35.51473855168635 3.3632826653791357" fill="#5dff2a" stroke="none" /><path d="M 79.13060592940154 97.66154086499901 l -24.649956687057696 -2.7620790616742545 a45.80422233041705,45.80422233041705 0 0,0 0.09426490141042562,-0.7806486093171904 l 24.5989096993876 3.1848213479148813" fill="#d9ff1c" stroke="none" /><path d="M 79.17382384314186 97.30363454192245 l -30.105724477291442 -3.8977887711872192 a51.35699925235329,51.35699925235329 0 0,0 0.12070235839874878,-0.8733421375607514 l 30.034377602337486 4.414019216948038" fill="#98ff23" stroke="none" /><path d="M 79.34024301695615 96.23510406497455 l -27.87427996622141 -5.079622350965653 a49.33333808190842,49.33333808190842 0 0,0 0.15897951914764255,-0.8318480225308608 l 27.782974154791606 5.557372938529828" fill="#afff20" stroke="none" /><path d="M 79.56144815229197 95.17655741523228 l -31.140784107723643 -7.349140257463784 a52.99622317348921,52.99622317348921 0 0,0 0.21655890456244695,-0.8836342315221688 l 31.010037676644895 7.8826303135940705" fill="#85ff25" stroke="none" /><path d="M 79.73907114497095 94.47779374421319 l -28.52833861427408 -7.7755255492072495 a50.568985468849895,50.568985468849895 0 0,0 0.23546245968584245,-0.8355732025692659 l 28.390657662513654 8.264106675679528" fill="#a1ff22" stroke="none" /><path d="M 79.94057633289273 93.78553927170692 l -34.17493142123835 -10.58748111281213 a56.77737684571771,56.77737684571771 0 0,0 0.296419230852478,-0.928529018790135 l 33.98814747460862 11.172579165293657" fill="#5cff2a" stroke="none" /><path d="M 80.28708602549916 92.7611449362534 l -27.918737474031357 -10.252147115273019 a50.741594150567714,50.741594150567714 0 0,0 0.307274944299672,-0.8150832962143678 l 27.738631845917247 10.72989869168153" fill="#9fff22" stroke="none" /><path d="M 80.83023694016515 91.42560881287825 l -30.67257770210479 -13.719453866713565 a54.60104815764737,54.60104815764737 0 0,0 0.3900478789926111,-0.8523250080335298 l 30.43254535825713 14.243967856961767" fill="#73ff27" stroke="none" /><path d="M 81.29705330413844 90.45014215332179 l -34.92488409863943 -17.8328946704168 a60.214278797774384,60.214278797774384 0 0,0 0.47796354324201645,-0.9165581160220211 l 34.613612486422475 18.429799029543307" fill="#38ff2e" stroke="none" /><path d="M 81.46374523516351 90.13048839642627 l -24.99960202357735 -13.310879969371111 a49.32242268762081,49.32242268762081 0 0,0 0.40433735399577425,-0.7439351898869357 l 24.767419319966223 13.738069992732667" fill="#afff20" stroke="none" /><line stroke="#e1ed5e" stroke-width="0.3" x1="26.387840678322718" x2="22.05771365940052" y1="57.49999999999999" y2="54.99999999999999" /><path d="M 25.521815274538284 56.99999999999999 a86.0,86.0 0 0,1 29.574782752854787,-30.34633250058573" fill="none" id="id119" stroke="none" /><text fill="#e1ed5e" style="font-size:6.75px; font-family:Arial;" text-anchor="middle"><textPath startOffset="21.40746469413373" xlink:href="#id119">November</textPath></text><path d="M 81.81346652052679 89.5 l -21.507501038285234 -12.417361514050139 a45.83472302810027,45.83472302810027 0 0,0 0.3992559919409308,-0.6780239600127155 l 21.29117133621452 12.784736642356426" fill="#d9ff1c" stroke="none" /><path d="M 81.99639281039701 89.18935116829357 l -28.7344078809893 -17.254186325937223 a54.51675912198581,54.51675912198581 0 0,0 0.4886571686107814,-0.79818476091378 l 28.433982747923125 17.744908202975544" fill="#74ff27" stroke="none" /><path d="M 82.37810715431573 88.57770195909679 l -33.61367630270667 -21.787978870498705 a61.057399539216746,61.057399539216746 0 0,0 0.5776482434045289,-0.8746330646517971 l 33.23470362038141 22.36179181348956" fill="#30ff2f" stroke="none" /><path d="M 82.78059297857968 87.97951657250589 l -24.90530230628575 -17.385835253039136 a51.3733658064644,51.3733658064644 0 0,0 0.5110057359365241,-0.71879356259627 l 24.603181471819255 17.810806042344925" fill="#98ff23" stroke="none" /><path d="M 83.2033758604659 87.39550010848427 l -26.59076381290216 -19.954204893242455 a54.24513517907617,54.24513517907617 0 0,0 0.5653066939090073,-0.7400046089155486 l 26.244305141638847 20.407730415398888" fill="#77ff27" stroke="none" /><path d="M 83.42222388311158 87.10902102172516 l -20.22336156174163 -15.725808270319146 a46.61806781573831,46.61806781573831 0 0,0 0.49666793852423186,-0.6275237154639057 l 19.950427192575837 16.070651929697732" fill="#d0ff1d" stroke="none" /><path d="M 83.8745106332314 86.54754324733833 l -31.67088150926063 -26.420975768959103 a62.244547471848335,62.244547471848335 0 0,0 0.6915233960581766,-0.8146128217456853 l 31.21266354969534 26.960755373154345" fill="#31ff3e" stroke="none" /><path d="M 84.34580500576568 86.00192230759919 l -27.684929094384607 -24.756034309943065 a58.139150955779556,58.139150955779556 0 0,0 0.671651985379712,-0.7382631880422617 l 27.25587940816303 25.227635073542984" fill="#4dff2c" stroke="none" /><path d="M 84.83555147118756 85.47280134310135 l -32.090849901174735 -30.74230828093225 a65.43998386385398,65.43998386385398 0 0,0 0.7840744606011509,-0.8045294697667137 l 31.558388639422784 31.28866044276669" fill="#35ff65" stroke="none" /><path d="M 85.34317274990677 84.96080404539775 l -19.942404203997352 -20.46266354322298 a49.573065721388005,49.573065721388005 0 0,0 0.6145349032040489,-0.5887105359275715 l 19.588196814928004 20.80198620945612" fill="#acff20" stroke="none" /><path d="M 85.60350026404147 84.71141617570332 l -12.964762797290675 -13.768128810742787 a39.91154264831978,39.91154264831978 0 0,0 0.5028288555085177,-0.46541088185975055 l 12.726504170468203 13.988657438734904" fill="#ffda14" stroke="none" /><path d="M 86.40962598614128 83.9905735841838 l -13.993756425904177 -16.484609882915098 a42.62331107623059,42.62331107623059 0 0,0 0.561867927090553,-0.4687302083042471 l 13.708714164651715 16.722402275131227" fill="#fffd17" stroke="none" /><path d="M 86.68645165197937 83.75963576809568 l -10.132047084989814 -12.359449995876036 a36.98168896997469,36.98168896997469 0 0,0 0.49440860425153843,-0.39826057423626743 l 9.91838771038303 12.531558863905701" fill="#ffb310" stroke="none" /><path d="M 86.96720088162412 83.53348406188908 l -5.483682631336467 -6.928453866915476 a29.835963342341188,29.835963342341188 0 0,0 0.40433421235512806,-0.31441272912096774 l 5.363938474346094 7.021567647657249" fill="#ff5007" stroke="none" /><path d="M 87.54013794807813 83.09580414077388 l -17.117588247541924 -23.223295985801347 a49.85018724127319,49.85018724127319 0 0,0 0.6932000624221483,-0.5018233871291767 l 16.716407174745807 23.513720144303605" fill="#a9ff21" stroke="none" /><path d="M 88.4268655584334 82.4767994020092 l -12.132940731358634 -18.37081867082768 a43.015794998752426,43.015794998752426 0 0,0 0.6196617155718559,-0.40165723749322296 l 11.815793383529753 18.576389750024813" fill="#fcff18" stroke="none" /><line stroke="#e1ed5e" stroke-width="0.3" x1="56.869717070023135" x2="54.33264160355391" y1="26.7553504044142" y2="22.446841604673864" /><path d="M 56.362301976729285 25.89364864446614 a86.0,86.0 0 0,1 42.16139366436587,-11.88097634709845" fill="none" id="id120" stroke="none" /><text fill="#e1ed5e" style="font-size:6.75px; font-family:Arial;" text-anchor="middle"><textPath startOffset="22.145653131862474" xlink:href="#id120">December</textPath></text></svg>