<?xml version="1.0" encoding="utf-8" ?>
<svg baseProfile="full" height="200mm" version="1.1" viewBox="0,0,200,200" width="200mm" xmlns="http://www.w3.org/2000/svg" xmlns:ev="http://www.w3.org/2001/xml-events" xmlns:xlink="http://www.w3.org/1999/xlink"><defs /><rect fill="#1a1a1a" height="200" width="200" x="0" y="0" /><text alignment-baseline="middle" fill="#e1ed5e" style="dominant-baseline: central; font-size:9.0px; font-family:Arial;" text-anchor="middle" x="100.0" y="100.0">2022</text><line stroke="#e1ed5e" stroke-width="0.3" x1="100.0" x2="100.0" y1="15.0" y2="10.0" /><path d="M 100.0 14.0 a86.0,86.0 0 0,1 42.46469731375804,11.215312516191453" fill="none" id="id85" stroke="none" /><text fill="#e1ed5e" style="font-size:6.75px; font-family:Arial;" text-anchor="middle"><textPath startOffset="22.20632615414155" xlink:href="#id85">January</textPath></text><line stroke="#e1ed5e" stroke-width="0.3" x1="143.23703022742887" x2="145.7803849466894" y1="26.81831364943548" y2="22.513508569990506" /><path d="M 143.74570117128098 25.957352633546492 a86.0,86.0 0 0,1 28.547481713284135,27.462654790039103" fill="none" id="id86" stroke="none" /><text fill="#e1ed5e" style="font-size:6.75px; font-family:Arial;" text-anchor="middle"><textPath startOffset="19.985693538727396" xlink:href="#id86">February</textPath></text><line stroke="#e1ed5e" stroke-width="0.3" x1="172.23445277983987" x2="176.4835382374775" y1="55.19839476539836" y2="52.563006222186495" /><path d="M 173.08426987136738 54.67131705675599 a86.0,86.0 0 0,1 12.851231095245387,41.99856678651699" fill="none" id="id87" stroke="none" /><text fill="#e1ed5e" style="font-size:6.75px; font-family:Arial;" text-anchor="middle"><textPath startOffset="22.20632615414155" xlink:href="#id87">March</textPath></text><line stroke="#e1ed5e" stroke-width="0.3" x1="184.98032266829074" x2="189.97916517819016" y1="98.17113171792111" y2="98.06355123074" /><path d="M 185.9800911702706 98.14961562048488 a86.0,86.0 0 0,1 -9.607161424134198,41.387399972396054" fill="none" id="id88" stroke="none" /><text fill="#e1ed5e" style="font-size:6.75px; font-family:Arial;" text-anchor="middle"><textPath startOffset="21.466115282336823" xlink:href="#id88">April</textPath></text><line stroke="#e1ed5e" stroke-width="0.3" x1="174.80103733775053" x2="179.2010983576182" y1="140.37084112569926" y2="142.7455964860345" /><path d="M 175.68104954172406 140.8457921977663 a86.0,86.0 0 0,1 -30.038265399797805,32.042727171017184" fill="none" id="id89" stroke="none" /><text fill="#e1ed5e" style="font-size:6.75px; font-family:Arial;" text-anchor="middle"><textPath startOffset="22.206326154141568" xlink:href="#id89">May</textPath></text><line stroke="#e1ed5e" stroke-width="0.3" x1="143.8653032363475" x2="146.44561519142675" y1="172.8068346515853" y2="177.08958963109032" /><path d="M 144.38136562736335 173.6633856474863 a86.0,86.0 0 0,1 -40.68145358897372,12.25698825130547" fill="none" id="id90" stroke="none" /><text fill="#e1ed5e" style="font-size:6.75px; font-family:Arial;" text-anchor="middle"><textPath startOffset="21.466115282336833" xlink:href="#id90">June</textPath></text><line stroke="#e1ed5e" stroke-width="0.3" x1="102.19456741930631" x2="102.32365962044197" y1="184.97166512339345" y2="189.96999836594603" /><path d="M 102.22038585953345 185.97133177190398 a86.0,86.0 0 0,1 -42.740103519485714,-10.115201625700543" fill="none" id="id91" stroke="none" /><text fill="#e1ed5e" style="font-size:6.75px; font-family:Arial;" text-anchor="middle"><textPath startOffset="22.20632615414155" xlink:href="#id91">July</textPath></text><path d="M 96.58105272829116 120.7198165907248 l -2.2715639591741863 13.766339421978062 a34.95249454046574,34.95249454046574 0 0,0 -0.5927793752478302,-0.10306229267535284 l 2.5081923058940667 -13.725198550781704" fill="#ff0801" stroke="none" /><path d="M 96.22490169976321 120.6578951692458 l -2.456334535501642 13.441425176083001 a34.664021740122344,34.664021740122344 0 0,0 -0.5860404917587742,-0.11231605503369206 l 2.687342641832111 -13.397151922700841" fill="#ff0300" stroke="none" /><path d="M 95.86986931433489 120.58985236759428 l -2.9486167663361877 14.699676239832726 a35.992492200785755,35.992492200785755 0 0,0 -0.6064024316702001,-0.12707752549689882 l 3.2012106594357745 -14.646742733609287" fill="#ff1b02" stroke="none" /><path d="M 95.51606077576429 120.51570834832081 l -3.263497690790464 14.931729328041405 a36.28420615876685,36.28420615876685 0 0,0 -0.6090215031543196,-0.13861131131413773 l 3.5200393433376465 -14.87334128314958" fill="#ff2003" stroke="none" /><path d="M 94.81253420990036 120.34920634021253 l -3.7997410228406943 14.905488969339364 a36.382185581241565,36.382185581241565 0 0,0 -0.6055200748595219,-0.15992335525671886 l 4.0557515405117055 -14.837874264779064" fill="#ff2203" stroke="none" /><path d="M 94.46302465271185 120.25689768951611 l -4.076427620661197 14.913517231189166 a36.460603427792385,36.460603427792385 0 0,0 -0.6039765487917641,-0.170689805647234 l 4.332535337557575 -14.84113863220341" fill="#ff2303" stroke="none" /><path d="M 94.11515582081647 120.15858648285463 l -5.096748661123359 17.45895822187825 a39.187690043212,39.187690043212 0 0,0 -0.6458971532302132,-0.19460351389312364 l 5.396520788793818 -17.3686393388794" fill="#ff5307" stroke="none" /><path d="M 93.76903079525671 120.05430185196036 l -5.40513398605604 17.3963608140033 a39.216718776393506,39.216718776393506 0 0,0 -0.6429275804896961,-0.2058451082889853 l 5.703782911636676 -17.300742859054612" fill="#ff5407" stroke="none" /><path d="M 93.42475214034765 119.94407469862007 l -5.851201735941542 17.74789437435497 a39.68754442076182,39.68754442076182 0 0,0 -0.6469641752678622,-0.21948537458930187 l 6.15583564414663 -17.644546012867544" fill="#ff5c08" stroke="none" /><path d="M 93.08242187328487 119.8279376855182 l -6.117998734148439 17.536093621016796 a39.57268122797858,39.57268122797858 0 0,0 -0.6412290169198247,-0.229921911631789 l 6.41894731169799 -17.428184168345048" fill="#ff5a08" stroke="none" /><path d="M 92.7421414339146 119.70592522655815 l -7.963823902337299 21.622702744616802 a44.0426510004708,44.0426510004708 0 0,0 -0.7091491361867187,-0.2681395238263349 l 8.3348432592843 -21.482414970683834" fill="#ffa50f" stroke="none" /><path d="M 92.40401165467489 119.57807347666478 l -8.399501518153862 21.649066640680218 a44.22140633480414,44.22140633480414 0 0,0 -0.7072875416976083,-0.28144430959276817 l 8.770910135893327 -21.501275486681383" fill="#ffa80f" stroke="none" /><path d="M 91.7346041902142 119.30500536409082 l -9.895954009465456 23.11340553217592 a46.14278069451102,46.14278069451102 0 0,0 -0.7274724143692578,-0.31890252801590396 l 10.292347098492456 -22.939638450865566" fill="#ffc712" stroke="none" /><path d="M 91.40352486487194 119.15986991738527 l -10.325485046604118 23.01349648746408 a46.223732119299214,46.223732119299214 0 0,0 -0.7231416836315847,-0.33195887909545047 l 10.720094726003124 -22.832350538034557" fill="#ffc912" stroke="none" /><path d="M 91.07499286063937 119.00905698771935 l -8.157953193045406 17.37533592167595 a40.195168628876445,40.195168628876445 0 0,0 -0.6237664887497578,-0.29944582082698423 l 8.455832349795406 -17.232335824349406" fill="#ff6509" stroke="none" /><path d="M 90.42595943632237 118.69057910512821 l -18.73661371166769 36.57788562843052 a62.09747450180848,62.09747450180848 0 0,0 -0.9471612387170584,-0.49550999449208 l 19.363465852911244 -36.24994621499373" fill="#53ff2b" stroke="none" /><path d="M 90.10565033884886 118.52300852407294 l -9.628432500193101 18.02519047561012 a41.43561117492698,41.43561117492698 0 0,0 -0.6262246553906029,-0.3414676125651727 l 9.937279967452344 -17.856782211285182" fill="#ff7a0b" stroke="none" /><line stroke="#e1ed5e" stroke-width="0.3" x1="58.666819895761336" x2="56.23545636021788" y1="174.27360380694188" y2="178.64263932499728" /><path d="M 58.180547188652646 175.14741091055294 a86.0,86.0 0 0,1 -31.652253787137756,-30.449443065178592" fill="none" id="id92" stroke="none" /><text fill="#e1ed5e" style="font-size:6.75px; font-family:Arial;" text-anchor="middle"><textPath startOffset="22.20632615414155" xlink:href="#id92">August</textPath></text><path d="M 89.4739219176387 118.17145234162733 l -11.3247993697433 19.550306430903625 a43.59348495268426,43.59348495268426 0 0,0 -0.6460806252912433,-0.3817158215138347 l 11.659647866062926 -19.352472037096042" fill="#ff9e0e" stroke="none" /><path d="M 89.1626897886671 117.98757091392108 l -12.946145208831338 21.487776991218205 a46.08639543243455,46.08639543243455 0 0,0 -0.6759794473016421,-0.41524178752974156 l 13.31410385606529 -21.261746736860083" fill="#ffc612" stroke="none" /><path d="M 88.54995079064634 117.60387380957326 l -12.872352720310529 19.790593802474568 a44.608580381095145,44.608580381095145 0 0,0 -0.6400806629579107,-0.42421056087674713 l 13.211108082008401 -19.5660852205065" fill="#ffaf10" stroke="none" /><path d="M 88.24862548938628 117.40417183066458 l -13.329003719640399 19.74069253419392 a44.81926283258504,44.81926283258504 0 0,0 -0.6356718509982205,-0.43722089548197296 l 13.66683245526151 -19.508330849346844" fill="#ffb210" stroke="none" /><path d="M 87.95078237400918 117.19931262002967 l -16.15663600718549 23.06233003678201 a49.15862130492437,49.15862130492437 0 0,0 -0.6888589928887967,-0.4914826010855183 l 16.551222327923174 -22.780803173852274" fill="#fff617" stroke="none" /><path d="M 87.36589467227662 116.77436683061367 l -14.381981850242928 19.095031507915653 a44.905263651108484,44.905263651108484 0 0,0 -0.6134300038537478,-0.4703519689577831 l 14.708540582590164 -18.844640197130502" fill="#ffb310" stroke="none" /><path d="M 87.07902340077011 116.55440617244103 l -14.113046257463509 18.081690519463113 a43.93742807524303,43.93742807524303 0 0,0 -0.5921980859984538,-0.4704779752362374 l 14.42220183617932 -17.836078630221746" fill="#ffa40f" stroke="none" /><path d="M 86.79598089348748 116.32954008644616 l -10.448517751609334 12.921784503075697 a37.61758219325611,37.61758219325611 0 0,0 -0.5000090896220563,-0.4114734403134348 l 10.669396969776079 -12.740015943905082" fill="#ff3805" stroke="none" /><path d="M 86.51685102203217 116.09983520530335 l -16.074437320484048 19.194017087599995 a46.03593072224899,46.03593072224899 0 0,0 -0.6031463742665532,-0.5140144251311092 l 16.40244917132766 -18.914478272245933" fill="#ffc612" stroke="none" /><path d="M 85.97065885151581 115.62618273729859 l -28.865629190091376 32.15116032731181 a64.20788885067591,64.20788885067591 0 0,0 -0.8160530696203583,-0.7454451306666633 l 29.41478180917859 -31.649522430058568" fill="#38ff2e" stroke="none" /><path d="M 85.44109423537348 115.13401014063109 l -17.47281526329367 18.163024588190513 a46.20306996015369,46.20306996015369 0 0,0 -0.5684078725995342,-0.5563067373374369 l 17.782873088268996 -17.859567747930505" fill="#ffc812" stroke="none" /><path d="M 85.18274418774928 114.88116024355367 l -17.127587041228754 17.20145555799934 a45.2743550103539,45.2743550103539 0 0,0 -0.5475165190211125,-0.5546313431098888 l 17.4211441853054 -16.904083720908783" fill="#ffb911" stroke="none" /><path d="M 84.9287848128048 114.62390073753433 l -9.694799394745964 9.407057245093839 a34.508584726641025,34.508584726641025 0 0,0 -0.40998408621338595,-0.4298666752999582 l 9.855290032338306 -9.238783453211381" fill="#ff0000" stroke="none" /><path d="M 84.67929136418377 114.36230785411682 l -19.17097101454922 17.97171358834063 a47.27753068577856,47.27753068577856 0 0,0 -0.551466712503505,-0.5985082004240561 l 19.477484135048456 -17.63905413311523" fill="#ffd914" stroke="none" /><path d="M 84.43433777217949 114.09645910891817 l -33.48095612684588 30.3207741541524 a66.16994319760536,66.16994319760536 0 0,0 -0.7573028698484088,-0.8508378023872974 l 33.99791784634263 -29.73996218202424" fill="#31ff42" stroke="none" /><path d="M 83.72743513129214 113.27417163493432 l -10.925450162038443 8.912319711731797 a35.099464666692455,35.099464666692455 0 0,0 -0.37787429798106975,-0.4714562875608224 l 11.077242372074375 -8.722935590592716" fill="#ff0b01" stroke="none" /><path d="M 83.50135304334701 112.99209946851258 l -18.1283126033699 14.275403380535876 a44.07429001123361,44.07429001123361 0 0,0 -0.46423488030660265,-0.6000861622879117 l 18.37135430089457 -13.961239224134712" fill="#ffa60f" stroke="none" /><path d="M 83.28015986056508 112.70617746262583 l -19.115172508627236 14.526500977151864 a45.00852037660323,45.00852037660323 0 0,0 -0.46345644924595886,-0.6208756507354679 l 19.36239022456828 -14.195312446907087" fill="#ffb510" stroke="none" /><path d="M 83.06392112726016 112.41649034213515 l -19.550976311578633 14.333572155403964 a45.242358908944496,45.242358908944496 0 0,0 -0.4550524020078353,-0.6320279863810774 l 19.794808505962074 -13.994910563571748" fill="#ffb911" stroke="none" /><path d="M 82.6465618267979 111.8261652097733 l -41.49808979280325 28.280462976930718 a71.21828394759333,71.21828394759333 0 0,0 -0.6816501862591947,-1.0189745409457118 l 41.97874308447317 -27.561951521779186" fill="#39ff8b" stroke="none" /><path d="M 82.24976979558568 111.22182372390057 l -12.015282972841566 7.596148667439826 a35.21508000312711,35.21508000312711 0 0,0 -0.3195103789294088,-0.5151524651536368 l 12.14425799143893 -7.388199870920926" fill="#ff0d01" stroke="none" /><path d="M 82.05923443525364 110.91462005526583 l -20.299074418885546 12.349343953920284 a44.7604444056857,44.7604444056857 0 0,0 -0.39478525315138485,-0.6616827922870572 l 20.508640547735162 -11.998099067747116" fill="#ffb110" stroke="none" /><line stroke="#e1ed5e" stroke-width="0.3" x1="26.63291911575756" x2="22.317208475507996" y1="142.92168965132927" y2="145.44649492493687" /><path d="M 25.769776987707644 143.4266507060508 a86.0,86.0 0 0,1 -11.730757126820373,-40.83630448921669" fill="none" id="id93" stroke="none" /><text fill="#e1ed5e" style="font-size:6.75px; font-family:Arial;" text-anchor="middle"><textPath startOffset="21.46611528233685" xlink:href="#id93">September</textPath></text><path d="M 81.87401531095188 110.60418214915194 l -20.742618221158665 12.134982217014958 a45.03152105206853,45.03152105206853 0 0,0 -0.38565853197317745,-0.6724281577496449 l 20.948428749284222 -11.776134213407007" fill="#ffb510" stroke="none" /><path d="M 81.35079622478065 109.6543875284942 l -29.95901714117535 15.509292779461044 a54.73545420746964,54.73545420746964 0 0,0 -0.42594955887797964,-0.8404388895113873 l 30.221545369839596 -14.991299678246971" fill="#b5ff1f" stroke="none" /><path d="M 81.18737489456691 109.33194174019688 l -22.27770285631285 11.050782333428273 a45.86796804596186,45.86796804596186 0 0,0 -0.34476711341691485,-0.7103223702846768 l 22.464623226344482 -10.665671007178313" fill="#ffc312" stroke="none" /><path d="M 80.87730276802145 108.67885076344099 l -21.81869127085011 9.902429719832385 a44.96066366211275,44.96066366211275 0 0,0 -0.3137802902895717,-0.707491719025598 l 21.98591264587096 -9.525389664314092" fill="#ffb410" stroke="none" /><path d="M 80.58989483394504 108.01547362559985 l -22.461001992067555 9.275352582159906 a45.300797847211584,45.300797847211584 0 0,0 -0.29142949339108765,-0.7233041026378727 l 22.617334099716032 -8.887349111679226" fill="#ffba11" stroke="none" /><path d="M 80.32549172779594 107.34259656027581 l -59.02352481661217 22.027789680827432 a84.0,84.0 0 0,0 -0.4939029559791024,-1.3590088119755315 l 59.3939520335965 -21.008533071845783" fill="#4dd2ff" stroke="none" /><line stroke="#e1ed5e" stroke-width="0.3" x1="15.007084014347285" x2="10.007500721073583" y1="101.09737516637583" y2="101.16192664675087" /><path d="M 14.007167355692545 101.11028546245083 a86.0,86.0 0 0,1 10.666146001902534,-42.60595125391555" fill="none" id="id94" stroke="none" /><text fill="#e1ed5e" style="font-size:6.75px; font-family:Arial;" text-anchor="middle"><textPath startOffset="22.20632615414155" xlink:href="#id94">October</textPath></text><line stroke="#e1ed5e" stroke-width="0.3" x1="26.266209847984243" x2="21.928928074336255" y1="57.711370442889674" y2="55.22380399835377" /><path d="M 25.398753493254645 57.213857153982495 a86.0,86.0 0 0,1 29.58750427330803,-30.492523968695096" fill="none" id="id95" stroke="none" /><text fill="#e1ed5e" style="font-size:6.75px; font-family:Arial;" text-anchor="middle"><textPath startOffset="21.46611528233685" xlink:href="#id95">November</textPath></text><line stroke="#e1ed5e" stroke-width="0.3" x1="56.762969772571076" x2="54.21961505331055" y1="26.818313649435495" y2="22.513508569990535" /><path d="M 56.25429882871897 25.957352633546506 a86.0,86.0 0 0,1 42.265352541879196,-11.944610805530505" fill="none" id="id96" stroke="none" /><text fill="#e1ed5e" style="font-size:6.75px; font-family:Arial;" text-anchor="middle"><textPath startOffset="22.20632615414155" xlink:href="#id96">December</textPath></text></svg>